<?xml version="1.0" encoding="utf-8"?>
<!-- Generator: Adobe Illustrator 15.1.0, SVG Export Plug-In . SVG Version: 6.00 Build 0)  -->
<!DOCTYPE svg PUBLIC "-//W3C//DTD SVG 1.1//EN" "http://www.w3.org/Graphics/SVG/1.1/DTD/svg11.dtd">
<svg version="1.1" id="レイヤー_1" xmlns="http://www.w3.org/2000/svg" xmlns:xlink="http://www.w3.org/1999/xlink" x="0px"
	 y="0px" width="30px" height="30px" viewBox="0 0 30 30" enable-background="new 0 0 30 30" xml:space="preserve">
<path fill="#686B72" d="M15,7.521c-4.131,0-7.479,3.349-7.479,7.479c0,3.167,1.972,5.875,4.753,6.964
	c-0.066-0.592-0.124-1.5,0.026-2.146c0.135-0.582,0.877-3.717,0.877-3.717s-0.224-0.449-0.224-1.11c0-1.041,0.603-1.816,1.353-1.816
	c0.638,0,0.947,0.478,0.947,1.053c0,0.642-0.409,1.602-0.619,2.491c-0.177,0.744,0.373,1.352,1.107,1.352
	c1.329,0,2.351-1.402,2.351-3.425c0-1.789-1.287-3.042-3.123-3.042c-2.129,0-3.378,1.596-3.378,3.245
	c0,0.643,0.247,1.332,0.557,1.707c0.061,0.074,0.069,0.139,0.051,0.215c-0.056,0.236-0.183,0.744-0.208,0.848
	c-0.033,0.137-0.108,0.166-0.25,0.1c-0.934-0.434-1.518-1.799-1.518-2.896c0-2.359,1.714-4.527,4.941-4.527
	c2.594,0,4.61,1.849,4.61,4.32c0,2.578-1.625,4.652-3.88,4.652c-0.758,0-1.47-0.393-1.714-0.859c0,0-0.374,1.43-0.466,1.779
	c-0.169,0.648-0.625,1.463-0.929,1.959c0.7,0.219,1.443,0.334,2.213,0.334c4.131,0,7.479-3.348,7.479-7.478
	C22.479,10.87,19.131,7.521,15,7.521L15,7.521z"/>
</svg>
