<?xml version="1.0" encoding="utf-8"?>
<!-- Generator: Adobe Illustrator 15.1.0, SVG Export Plug-In . SVG Version: 6.00 Build 0)  -->
<!DOCTYPE svg PUBLIC "-//W3C//DTD SVG 1.1//EN" "http://www.w3.org/Graphics/SVG/1.1/DTD/svg11.dtd">
<svg version="1.1" id="レイヤー_1" xmlns="http://www.w3.org/2000/svg" xmlns:xlink="http://www.w3.org/1999/xlink" x="0px"
	 y="0px" width="36px" height="36px" viewBox="0 0 36 36" enable-background="new 0 0 36 36" xml:space="preserve">
<g>
	<path fill="#686B72" d="M22.17,22.598l-0.014,0.01c-0.264-0.301-0.801-0.646-1.594-1.037c-0.004,0.002-0.009,0.006-0.013,0.008
		c-0.043-0.021-0.095-0.045-0.139-0.066c-0.186-0.094-0.381-0.188-0.585-0.281c-0.041-0.018-0.075-0.037-0.117-0.057
		c-0.029-0.012-0.062-0.025-0.094-0.039c-0.147-0.064-0.303-0.131-0.461-0.195c-0.021-0.008-0.043-0.018-0.064-0.027
		c-0.039-0.016-0.083-0.031-0.123-0.049c-0.1-0.039-0.192-0.08-0.296-0.119c-0.107-0.043-0.204-0.082-0.307-0.123l0.007-0.006
		c-1.864-0.764-3.029-1.398-3.475-1.904c-0.472-0.536-0.709-1.125-0.709-1.76h-0.009c0.007-0.255,0.057-0.495,0.128-0.727
		c-0.613-0.331-1.129-0.667-1.562-1.014c-0.26,0.525-0.408,1.093-0.438,1.702h-0.014c0,0.004,0.001,0.01,0.001,0.015h-0.001
		c0,0.032,0.005,0.062,0.007,0.095c-0.002,0.047-0.007,0.092-0.007,0.14c0,0.982,0.309,1.877,0.927,2.682
		c0.312,0.404,0.809,0.812,1.488,1.223c0.688,0.424,1.558,0.844,2.618,1.254c0.254,0.1,0.494,0.193,0.725,0.287l0.024-0.004
		c1.64,0.672,2.662,1.236,3.064,1.695c0.46,0.523,0.691,1.096,0.691,1.719c0,0.875-0.379,1.613-1.137,2.213
		c-0.76,0.592-1.691,0.895-2.794,0.895c-1.49,0-3.166-0.625-5.03-1.877v2.115c1.771,1.037,3.407,1.555,4.908,1.553
		c1.651,0,3.052-0.49,4.202-1.465c1.152-0.979,1.727-2.164,1.727-3.561c0-0.986-0.31-1.879-0.929-2.686
		C22.623,23.004,22.416,22.801,22.17,22.598z"/>
	<path fill="#686B72" d="M23.707,18.857c0-0.984-0.31-1.88-0.929-2.686c-0.302-0.391-0.776-0.783-1.42-1.177
		c-0.697-0.442-1.59-0.876-2.688-1.299c-0.245-0.095-0.476-0.187-0.698-0.278c-1.637-0.69-2.663-1.27-3.076-1.739
		c-0.472-0.535-0.709-1.125-0.709-1.761l-0.011,0c0.018-0.845,0.389-1.564,1.129-2.145c0.76-0.596,1.689-0.895,2.796-0.895
		c1.491,0,3.166,0.625,5.028,1.874V6.635c-1.772-1.034-3.407-1.554-4.909-1.552c-1.65,0-3.05,0.492-4.201,1.466
		c-1.085,0.922-1.653,2.034-1.716,3.331l-0.011,0c0,0.033,0.005,0.063,0.007,0.096c-0.002,0.046-0.007,0.092-0.007,0.14
		c0,0.981,0.309,1.877,0.927,2.681c0.167,0.217,0.392,0.435,0.665,0.653c-0.002,0.001-0.003,0.003-0.004,0.005
		c0.401,0.324,0.925,0.65,1.561,0.977h0.001c0.226,0.118,0.474,0.234,0.727,0.351c0.089,0.041,0.175,0.081,0.267,0.121
		c0.281,0.125,0.573,0.249,0.891,0.372c0.254,0.098,0.494,0.192,0.725,0.286c1.625,0.686,2.644,1.263,3.055,1.729
		c0.472,0.538,0.706,1.125,0.706,1.762h0.012c-0.005,0.225-0.039,0.439-0.094,0.646c0.649,0.344,1.165,0.684,1.557,1.023
		c0.231-0.506,0.369-1.049,0.397-1.631l0.023,0.002c0-0.047-0.01-0.09-0.01-0.137C23.697,18.922,23.707,18.891,23.707,18.857z"/>
</g>
</svg>
