<?xml version="1.0" encoding="utf-8"?>
<!-- Generator: Adobe Illustrator 15.1.0, SVG Export Plug-In . SVG Version: 6.00 Build 0)  -->
<!DOCTYPE svg PUBLIC "-//W3C//DTD SVG 1.1//EN" "http://www.w3.org/Graphics/SVG/1.1/DTD/svg11.dtd">
<svg version="1.1" xmlns="http://www.w3.org/2000/svg" xmlns:xlink="http://www.w3.org/1999/xlink" x="0px" y="0px" width="660px"
	 height="400px" viewBox="0 0 660 400" enable-background="new 0 0 660 400" xml:space="preserve">
		<rect fill="#8C8C8F" width="660" height="400"/>
		<path fill="#FFFFFF" d="M347.729,219.541l-0.058,0.041c-1.121-1.277-3.404-2.744-6.775-4.408
			c-0.017,0.012-0.041,0.029-0.058,0.037c-0.183-0.088-0.403-0.191-0.59-0.277c-0.789-0.404-1.619-0.803-2.486-1.197
			c-0.175-0.078-0.32-0.156-0.499-0.244c-0.12-0.049-0.261-0.104-0.402-0.166c-0.623-0.27-1.287-0.557-1.959-0.826
			c-0.088-0.033-0.184-0.078-0.271-0.115c-0.166-0.066-0.353-0.133-0.522-0.209c-0.424-0.166-0.818-0.34-1.259-0.506
			c-0.456-0.184-0.867-0.35-1.303-0.523l0.028-0.025c-7.925-3.246-12.878-5.943-14.774-8.094c-2.006-2.28-3.015-4.784-3.015-7.482
			h-0.037c0.029-1.083,0.245-2.104,0.544-3.089c-2.607-1.411-4.799-2.84-6.638-4.313c-1.108,2.229-1.735,4.646-1.864,7.236h-0.059
			c0,0.017,0.005,0.042,0.005,0.066h-0.005c0,0.133,0.021,0.262,0.029,0.398c-0.008,0.199-0.029,0.395-0.029,0.598
			c0,4.177,1.312,7.98,3.94,11.4c1.324,1.719,3.441,3.455,6.326,5.197c2.927,1.807,6.622,3.592,11.13,5.336
			c1.08,0.422,2.102,0.816,3.081,1.215l0.104-0.016c6.971,2.855,11.312,5.256,13.023,7.207c1.959,2.225,2.939,4.658,2.939,7.307
			c0,3.719-1.611,6.857-4.833,9.406c-3.229,2.521-7.19,3.809-11.881,3.809c-6.331,0-13.459-2.658-21.381-7.98v8.992
			c7.531,4.404,14.48,6.609,20.865,6.602c7.017,0,12.974-2.08,17.86-6.229c4.898-4.162,7.344-9.199,7.344-15.139
			c0-4.189-1.316-7.988-3.948-11.418C349.655,221.268,348.775,220.404,347.729,219.541z">
			<animateTransform
			attributeName="transform"
			attributeType="XML"
			type="rotate"
			from="0 330 200"
			to="360 330 200"
			dur="2s"
			repeatCount="indefinite"/>
		</path>
		<path fill="#FFFFFF" d="M354.264,203.641c0-4.184-1.32-7.996-3.952-11.42c-1.279-1.665-3.297-3.325-6.037-5.003
			c-2.96-1.88-6.758-3.724-11.425-5.521c-1.042-0.406-2.025-0.797-2.964-1.183c-6.962-2.936-11.325-5.401-13.077-7.394
			c-2.009-2.275-3.014-4.783-3.014-7.485h-0.05c0.074-3.591,1.652-6.648,4.799-9.119c3.23-2.534,7.183-3.805,11.89-3.805
			c6.336,0,13.459,2.657,21.372,7.967v-8.996c-7.531-4.395-14.48-6.605-20.865-6.597c-7.016,0-12.969,2.092-17.859,6.231
			c-4.616,3.921-7.028,8.647-7.299,14.16h-0.045c0,0.142,0.021,0.271,0.028,0.411c-0.008,0.191-0.028,0.391-0.028,0.594
			c0,4.173,1.315,7.979,3.939,11.396c0.714,0.922,1.669,1.852,2.827,2.777c-0.009,0.005-0.013,0.013-0.017,0.021
			c1.706,1.378,3.932,2.765,6.638,4.151l0,0c0.964,0.502,2.018,0.996,3.093,1.494c0.378,0.175,0.743,0.345,1.134,0.515
			c1.195,0.531,2.437,1.055,3.79,1.578c1.08,0.419,2.097,0.817,3.081,1.221c6.907,2.914,11.237,5.367,12.989,7.348
			c2.005,2.287,2.998,4.782,2.998,7.489h0.054c-0.021,0.955-0.166,1.869-0.403,2.748c2.761,1.463,4.957,2.906,6.622,4.352
			c0.983-2.154,1.569-4.463,1.689-6.938l0.096,0.008c0-0.199-0.042-0.381-0.042-0.58
			C354.222,203.914,354.264,203.781,354.264,203.641z">
			<animateTransform
			attributeName="transform"
			attributeType="XML"
			type="rotate"
			from="0 330 200"
			to="360 330 200"
			dur="2s"
			repeatCount="indefinite"/>
		</path>
</svg>
