<?xml version="1.0" encoding="utf-8"?>
<!-- Generator: Adobe Illustrator 15.1.0, SVG Export Plug-In . SVG Version: 6.00 Build 0)  -->
<!DOCTYPE svg PUBLIC "-//W3C//DTD SVG 1.1//EN" "http://www.w3.org/Graphics/SVG/1.1/DTD/svg11.dtd">
<svg version="1.1" id="レイヤー_1" xmlns="http://www.w3.org/2000/svg" xmlns:xlink="http://www.w3.org/1999/xlink" x="0px"
	 y="0px" width="76px" height="18px" viewBox="0.499756 0 76 18" enable-background="new 0.499756 0 76 18" xml:space="preserve">
<g>
	<path fill="#45474C" d="M3.252686,10.320312c0,1.574219,0.029297,1.769531,0.989258,1.875l0.405273,0.044922
		c0.089844,0.074219,0.060547,0.330078-0.030273,0.375c-0.854492-0.030273-1.349609-0.044922-1.949219-0.044922
		c-0.629883,0-1.169922,0.014648-1.830078,0.044922c-0.089844-0.044922-0.120117-0.285156-0.030273-0.375l0.31543-0.044922
		c0.870117-0.121094,0.899414-0.300781,0.899414-1.875V4.785156c0-1.274902-0.029297-1.529785-0.705078-1.60498L0.7771,3.120117
		c-0.104492-0.089844-0.089844-0.314941,0.030273-0.375C1.602295,2.640137,2.531982,2.625,3.7771,2.625
		s2.174805,0.165039,2.879883,0.600098c0.69043,0.435059,1.200195,1.214844,1.200195,2.25
		c0,1.379883-0.854492,2.069824-1.5,2.384766C5.697021,8.174805,4.9021,8.310059,4.287842,8.310059
		c-0.105469-0.044922-0.105469-0.27002-0.015625-0.300293c1.620117-0.299805,2.205078-1.214844,2.205078-2.519531
		c0-1.455078-0.854492-2.399902-2.415039-2.399902c-0.794922,0-0.80957,0.060059-0.80957,0.540039V10.320312z"/>
	<path fill="#45474C" d="M10.616943,4.110352c0-0.885254-0.014648-0.975098-0.464844-1.245117l-0.149414-0.089844
		c-0.075195-0.044922-0.075195-0.255371,0-0.300293c0.375-0.119629,1.080078-0.344727,1.619141-0.629883
		c0.060547,0,0.120117,0.030273,0.150391,0.089844c-0.014648,0.450195-0.044922,1.200195-0.044922,1.860352v3.149414
		c0,0.135254,0.014648,0.255371,0.05957,0.285156c0.540039-0.419922,1.260742-0.779785,2.025391-0.779785
		c1.424805,0,1.93457,0.884766,1.93457,1.93457v2.504883c0,1.080078,0.030273,1.245117,0.570312,1.305664l0.405273,0.044922
		c0.104492,0.074219,0.074219,0.330078-0.030273,0.375c-0.540039-0.030273-0.974609-0.044922-1.5-0.044922
		c-0.540039,0-0.990234,0.014648-1.394531,0.044922c-0.105469-0.044922-0.135742-0.300781-0.030273-0.375l0.299805-0.044922
		c0.554688-0.089844,0.570312-0.225586,0.570312-1.305664V8.745117c0-0.959961-0.464844-1.60498-1.424805-1.60498
		c-0.510742,0-0.900391,0.179688-1.169922,0.404785c-0.270508,0.225098-0.31543,0.300293-0.31543,0.825195v2.519531
		c0,1.080078,0.030273,1.229492,0.570312,1.305664l0.314453,0.044922c0.105469,0.05957,0.075195,0.330078-0.030273,0.375
		c-0.449219-0.030273-0.884766-0.044922-1.40918-0.044922c-0.540039,0-0.990234,0.014648-1.470703,0.044922
		c-0.104492-0.044922-0.134766-0.300781-0.029297-0.375l0.375-0.044922c0.554688-0.060547,0.569336-0.225586,0.569336-1.305664
		V4.110352z"/>
	<path fill="#45474C" d="M24.626709,9.554688c0,1.875-1.290039,3.224609-3.164062,3.224609
		c-1.725586,0-3.075195-1.214844-3.075195-3.089844c0-1.889648,1.424805-3.239258,3.194336-3.239258
		C23.262451,6.450195,24.626709,7.709961,24.626709,9.554688z M21.4021,6.899902c-0.990234,0-1.724609,0.945312-1.724609,2.594727
		c0,1.364746,0.614258,2.835449,1.93457,2.835449s1.724609-1.380859,1.724609-2.535156
		C23.33667,8.52002,22.826904,6.899902,21.4021,6.899902z"/>
	<path fill="#45474C" d="M28.632568,7.290039c-0.254883,0-0.269531,0.044922-0.269531,0.359863v2.805176
		c0,0.869141,0.104492,1.664062,1.094727,1.664062c0.149414,0,0.285156-0.029297,0.405273-0.074219
		c0.134766-0.044922,0.330078-0.209961,0.375-0.209961c0.119141,0,0.179688,0.165039,0.149414,0.254883
		c-0.269531,0.314453-0.80957,0.689453-1.575195,0.689453c-1.289062,0-1.55957-0.71875-1.55957-1.619141V7.725098
		c0-0.405273-0.014648-0.435059-0.31543-0.435059h-0.419922c-0.089844-0.060059-0.104492-0.225098-0.044922-0.314941
		c0.435547-0.135254,0.810547-0.330078,0.960938-0.464844c0.194336-0.180176,0.479492-0.584961,0.628906-0.885254
		c0.076172-0.029785,0.255859-0.029785,0.31543,0.075195V6.375c0,0.27002,0.014648,0.285156,0.270508,0.285156h1.664062
		c0.180664,0.134766,0.150391,0.540039,0.015625,0.629883H28.632568z"/>
	<path fill="#45474C" d="M38.382568,9.554688c0,1.875-1.290039,3.224609-3.165039,3.224609
		c-1.724609,0-3.075195-1.214844-3.075195-3.089844c0-1.889648,1.425781-3.239258,3.195312-3.239258
		C37.017334,6.450195,38.382568,7.709961,38.382568,9.554688z M35.157959,6.899902c-0.990234,0-1.724609,0.945312-1.724609,2.594727
		c0,1.364746,0.614258,2.835449,1.93457,2.835449c1.319336,0,1.724609-1.380859,1.724609-2.535156
		C37.092529,8.52002,36.582764,6.899902,35.157959,6.899902z"/>
	<path fill="#45474C" d="M46.452881,6.990234c0.164062,0.074707,0.134766,0.584961-0.089844,0.614746h-1.080078
		c0.029297,0.254883,0.029297,0.510254,0.029297,0.765137c0,1.034668-0.615234,2.384766-2.519531,2.384766
		c-0.269531,0-0.480469-0.030273-0.660156-0.044922c-0.179688,0.104492-0.660156,0.389648-0.660156,0.825195
		c0,0.344727,0.345703,0.629883,1.050781,0.629883c0.509766,0,1.125-0.045898,1.785156-0.045898
		c0.839844,0,2.099609,0.150391,2.099609,1.650391c0,1.634766-1.785156,2.834961-3.735352,2.834961
		c-1.844727,0-2.489258-0.989258-2.489258-1.739258c0-0.240234,0.05957-0.435547,0.164062-0.555664
		c0.255859-0.270508,0.675781-0.65918,1.020508-1.004883c0.134766-0.134766,0.254883-0.269531,0.120117-0.359375
		c-0.584961-0.150391-1.095703-0.660156-1.095703-1.185547c0-0.074219,0.060547-0.134766,0.225586-0.254883
		c0.254883-0.165039,0.540039-0.419922,0.794922-0.69043c0.075195-0.089844,0.149414-0.208984,0.149414-0.285156
		c-0.509766-0.269531-1.125-0.854492-1.125-1.814453c0-1.290039,1.111328-2.264648,2.445312-2.264648
		c0.570312,0,1.095703,0.149902,1.44043,0.299805c0.479492,0.209961,0.584961,0.240234,0.915039,0.240234H46.452881z
		 M43.318115,13.049805c-0.480469,0-1.080078,0.030273-1.290039,0.165039c-0.360352,0.224609-0.719727,0.689453-0.719727,1.259766
		c0,0.810547,0.644531,1.484375,2.009766,1.484375c1.333984,0,2.219727-0.749023,2.219727-1.603516
		c0-0.916016-0.629883-1.305664-1.709961-1.305664H43.318115z M44.247803,8.759766c0-1.019531-0.419922-1.874512-1.334961-1.874512
		c-0.719727,0-1.259766,0.659668-1.259766,1.679688c0,1.064941,0.644531,1.755371,1.364258,1.755371
		C43.827881,10.320312,44.247803,9.674805,44.247803,8.759766z"/>
	<path fill="#45474C" d="M49.047607,8.265137c0-0.584961,0-0.660156-0.405273-0.930176l-0.134766-0.089844
		c-0.05957-0.060059-0.05957-0.225098,0.015625-0.27002c0.344727-0.120117,1.139648-0.510254,1.514648-0.734863
		c0.075195,0.014648,0.120117,0.044922,0.120117,0.10498v0.869629c0,0.075195,0.014648,0.120117,0.044922,0.135254
		c0.525391-0.435059,1.094727-0.899902,1.650391-0.899902c0.375,0,0.673828,0.239746,0.673828,0.599609
		c0,0.495117-0.404297,0.69043-0.644531,0.69043c-0.150391,0-0.224609-0.04541-0.330078-0.10498
		c-0.224609-0.150391-0.449219-0.240234-0.660156-0.240234c-0.240234,0-0.419922,0.135254-0.539062,0.299805
		c-0.150391,0.209961-0.195312,0.64502-0.195312,1.155273v2.039551c0,1.080078,0.029297,1.260742,0.599609,1.305664
		l0.540039,0.044922c0.104492,0.074219,0.075195,0.330078-0.030273,0.375c-0.705078-0.030273-1.139648-0.044922-1.664062-0.044922
		c-0.541016,0-0.990234,0.014648-1.380859,0.044922c-0.104492-0.044922-0.134766-0.300781-0.029297-0.375l0.285156-0.044922
		c0.554688-0.089844,0.569336-0.225586,0.569336-1.305664V8.265137z"/>
	<path fill="#45474C" d="M57.238037,9.464355c0.224609-0.074219,0.254883-0.209961,0.254883-0.43457l0.014648-0.689941
		c0.015625-0.554688-0.165039-1.304688-1.094727-1.304688c-0.419922,0-0.930664,0.209961-0.959961,0.674805
		c-0.015625,0.240234-0.030273,0.419922-0.150391,0.510254c-0.224609,0.179688-0.629883,0.284668-0.854492,0.284668
		c-0.135742,0-0.209961-0.074707-0.209961-0.209961c0-0.779785,1.695312-1.844727,2.789062-1.844727
		c1.080078,0,1.605469,0.629883,1.560547,1.754883l-0.089844,2.609375c-0.030273,0.69043,0.105469,1.304688,0.689453,1.304688
		c0.150391,0,0.285156-0.044922,0.375-0.089844c0.075195-0.044922,0.150391-0.104492,0.195312-0.104492
		c0.060547,0,0.105469,0.089844,0.105469,0.194336c0,0.076172-0.525391,0.660156-1.259766,0.660156
		c-0.360352,0-0.720703-0.134766-0.975586-0.464844c-0.05957-0.089844-0.149414-0.208984-0.239258-0.208984
		c-0.105469,0-0.285156,0.134766-0.585938,0.298828c-0.330078,0.180664-0.660156,0.375-1.080078,0.375
		c-0.43457,0-0.794922-0.119141-1.049805-0.34375c-0.28418-0.255859-0.464844-0.630859-0.464844-1.050781
		c0-0.584961,0.285156-0.929688,1.245117-1.275391L57.238037,9.464355z M56.30835,12.105469
		c0.298828,0,0.763672-0.225586,0.914062-0.375c0.179688-0.180664,0.179688-0.390625,0.195312-0.705078l0.029297-0.884766
		c0-0.166016-0.058594-0.195312-0.149414-0.195312c-0.089844,0-0.344727,0.05957-0.614258,0.149414
		c-0.885742,0.299805-1.320312,0.525391-1.320312,1.110352C55.363037,11.459961,55.542725,12.105469,56.30835,12.105469z"/>
	<path fill="#45474C" d="M61.767334,8.265137c0-0.584961,0-0.660156-0.404297-0.930176l-0.134766-0.089844
		c-0.060547-0.060059-0.060547-0.225098,0.014648-0.27002c0.389648-0.165039,1.094727-0.524902,1.485352-0.810059
		c0.089844,0,0.149414,0.030273,0.179688,0.10498c-0.030273,0.27002-0.060547,0.495117-0.060547,0.689941
		c0,0.10498,0.030273,0.195312,0.134766,0.195312c0.195312-0.090332,1.140625-0.705078,2.100586-0.705078
		c1.514648,0,2.489258,1.22998,2.489258,2.744629c0,2.084473-1.529297,3.584473-3.65918,3.584473
		c-0.270508,0-0.69043-0.029297-0.825195-0.05957c-0.134766,0.030273-0.209961,0.104492-0.209961,0.419922v1.575195
		c0,1.064453,0.030273,1.199219,0.570312,1.275391l0.584961,0.074219c0.105469,0.075195,0.074219,0.330078-0.030273,0.375
		c-0.719727-0.029297-1.155273-0.044922-1.679688-0.044922c-0.540039,0-0.990234,0.015625-1.410156,0.044922
		c-0.104492-0.044922-0.134766-0.299805-0.030273-0.375l0.31543-0.044922c0.554688-0.074219,0.569336-0.224609,0.569336-1.304688
		V8.265137z M62.877686,11.054688c0,0.480469,0.149414,0.660156,0.450195,0.900391
		c0.299805,0.224609,0.764648,0.330078,1.080078,0.330078c1.230469,0,1.949219-1.140625,1.949219-2.700195
		c0-1.200195-0.673828-2.415039-2.024414-2.415039c-0.645508,0-1.110352,0.240234-1.274414,0.419922
		c-0.135742,0.165039-0.180664,0.390137-0.180664,0.885254V11.054688z"/>
	<path fill="#45474C" d="M69.822021,4.110352c0-0.885254-0.013672-0.975098-0.464844-1.245117l-0.149414-0.089844
		c-0.075195-0.044922-0.075195-0.255371,0-0.300293c0.375-0.119629,1.080078-0.344727,1.620117-0.629883
		c0.05957,0,0.119141,0.030273,0.150391,0.089844c-0.015625,0.450195-0.045898,1.200195-0.045898,1.860352v3.149414
		c0,0.135254,0.014648,0.255371,0.05957,0.285156c0.541016-0.419922,1.260742-0.779785,2.025391-0.779785
		c1.425781,0,1.935547,0.884766,1.935547,1.93457v2.504883c0,1.080078,0.029297,1.245117,0.569336,1.305664l0.405273,0.044922
		c0.105469,0.074219,0.074219,0.330078-0.030273,0.375c-0.540039-0.030273-0.974609-0.044922-1.5-0.044922
		c-0.540039,0-0.989258,0.014648-1.394531,0.044922c-0.104492-0.044922-0.135742-0.300781-0.030273-0.375l0.300781-0.044922
		c0.554688-0.089844,0.569336-0.225586,0.569336-1.305664V8.745117c0-0.959961-0.464844-1.60498-1.424805-1.60498
		c-0.509766,0-0.900391,0.179688-1.169922,0.404785s-0.31543,0.300293-0.31543,0.825195v2.519531
		c0,1.080078,0.030273,1.229492,0.570312,1.305664l0.31543,0.044922c0.104492,0.05957,0.074219,0.330078-0.03125,0.375
		c-0.449219-0.030273-0.884766-0.044922-1.40918-0.044922c-0.540039,0-0.990234,0.014648-1.469727,0.044922
		c-0.105469-0.044922-0.134766-0.300781-0.030273-0.375l0.375-0.044922c0.555664-0.060547,0.569336-0.225586,0.569336-1.305664
		V4.110352z"/>
</g>
</svg>
