<?xml version="1.0" encoding="utf-8"?>
<!-- Generator: Adobe Illustrator 15.1.0, SVG Export Plug-In . SVG Version: 6.00 Build 0)  -->
<!DOCTYPE svg PUBLIC "-//W3C//DTD SVG 1.1//EN" "http://www.w3.org/Graphics/SVG/1.1/DTD/svg11.dtd">
<svg version="1.1" id="レイヤー_1" xmlns="http://www.w3.org/2000/svg" xmlns:xlink="http://www.w3.org/1999/xlink" x="0px"
	 y="0px" width="42.531738px" height="16px" viewBox="0 0 42.531738 16" enable-background="new 0 0 42.531738 16"
	 xml:space="preserve">
<g>
	<path fill="#45474C" d="M10.290039,12.048828c-0.130859-0.018555-0.253906-0.027344-0.371094-0.027344
		c-0.115723,0-0.239746,0-0.370117,0c-0.130859,0-0.254883,0-0.370605,0c-0.117188,0-0.240234,0.008789-0.371094,0.027344
		c-0.064941-0.213867-0.154297-0.473633-0.26709-0.777344c-0.11084-0.302734-0.234863-0.621094-0.371094-0.951172
		C8.03418,9.989258,7.895996,9.652344,7.756836,9.3125C7.616211,8.972656,7.484863,8.646484,7.36377,8.338867
		C7.064941,8.330078,6.763184,8.323242,6.454102,8.317871C6.145996,8.313965,5.838867,8.312012,5.529785,8.312012
		c-0.288574,0-0.57373,0.001953-0.854004,0.006836c-0.279785,0.004395-0.564941,0.01123-0.854004,0.02002
		C3.522949,9.066406,3.25293,9.759766,3.01123,10.417969c-0.243164,0.658203-0.425293,1.202148-0.546387,1.630859
		c-0.158691-0.018555-0.332031-0.027344-0.519043-0.027344s-0.358887,0.008789-0.517578,0.027344
		c0.755859-1.632812,1.492676-3.256836,2.211914-4.87207C4.358887,5.562988,5.082031,3.919922,5.811035,2.25h0.266113
		c0.224609,0.541992,0.466797,1.126953,0.729004,1.756836c0.260742,0.630371,0.526855,1.26709,0.797852,1.911133
		S8.14502,7.201172,8.416016,7.835938c0.270996,0.635254,0.524902,1.224609,0.76416,1.771484
		c0.236816,0.544922,0.45166,1.033203,0.644043,1.462891C10.013184,11.499023,10.168945,11.826172,10.290039,12.048828z
		 M4.088867,7.694824c0.242188,0,0.494141,0.005371,0.756348,0.01416c0.260742,0.008789,0.512695,0.01416,0.755859,0.01416
		c0.260742,0,0.521973-0.001953,0.783691-0.007324c0.26123-0.003906,0.522461-0.010742,0.783203-0.020996L5.61377,4.140137
		L4.088867,7.694824z"/>
	<path fill="#45474C" d="M18.669922,10.03418c-0.164062,0.448242-0.387695,0.833008-0.671875,1.155273
		c-0.285156,0.321289-0.621094,0.568359-1.007812,0.742188c-0.388184,0.171875-0.806152,0.257812-1.254395,0.257812
		c-0.446777,0-0.852051-0.095703-1.210938-0.287109c-0.358887-0.19043-0.631836-0.421875-0.817871-0.692383
		c-0.335938,0.270508-0.648926,0.541992-0.937988,0.811523H12.51709c0.019043-0.223633,0.034668-0.494141,0.048828-0.811523
		c0.015137-0.317383,0.025879-0.655273,0.035156-1.014648c0.009766-0.359375,0.01709-0.726562,0.020996-1.099609
		s0.006836-0.71875,0.006836-1.035645V5.524902c0-0.316895-0.00293-0.663086-0.006836-1.035645
		c-0.004883-0.373047-0.012207-0.742188-0.020996-1.106445c-0.009277-0.362793-0.020996-0.710938-0.036133-1.042969
		c-0.01416-0.331055-0.029785-0.612793-0.048828-0.84668c0.261719,0.046875,0.47168,0.069824,0.629883,0.069824
		c0.103027,0,0.209961-0.006836,0.321777-0.020996c0.112305-0.01416,0.233398-0.029785,0.364258-0.048828
		c-0.027832,0.187012-0.052246,0.48291-0.069824,0.888672c-0.019043,0.40625-0.033203,0.859375-0.041992,1.358398
		c-0.010254,0.499023-0.019043,1.012695-0.02832,1.540039c-0.008789,0.527832-0.019043,1.005859-0.026855,1.43457h0.026855
		c0.316895-0.503906,0.667969-0.873047,1.05127-1.105957c0.381836-0.23291,0.824707-0.350098,1.328613-0.350098
		c0.485352,0,0.905273,0.091309,1.26123,0.273438c0.354004,0.181641,0.647949,0.421875,0.881836,0.720703
		c0.233398,0.298828,0.408203,0.645996,0.525391,1.042969c0.115723,0.396973,0.174805,0.813965,0.174805,1.25293
		C18.915039,9.09082,18.833008,9.584961,18.669922,10.03418z M17.520996,7.367188
		c-0.106934-0.332031-0.24707-0.609375-0.419922-0.833008C16.929199,6.310059,16.729004,6.13916,16.5,6.021973
		c-0.229004-0.116699-0.464844-0.174805-0.707031-0.174805c-0.290039,0-0.566895,0.053711-0.833008,0.160645
		c-0.26709,0.107422-0.49707,0.285156-0.692871,0.532227c-0.196289,0.248047-0.353027,0.568848-0.469238,0.96582
		c-0.116699,0.396973-0.174805,0.885254-0.174805,1.462891c0,1.875977,0.681152,2.814453,2.043945,2.814453
		c0.289062,0,0.555176-0.077148,0.797852-0.231445c0.242188-0.15332,0.455078-0.375,0.637207-0.665039
		c0.183105-0.289062,0.32373-0.634766,0.426758-1.035156c0.103027-0.401367,0.154297-0.849609,0.154297-1.344727
		C17.683105,8.078125,17.628906,7.698242,17.520996,7.367188z"/>
	<path fill="#45474C" d="M21.48291,7.12793c0.200195-0.442871,0.463867-0.802734,0.791016-1.078125
		c0.326172-0.274902,0.693359-0.475586,1.099609-0.601562c0.405273-0.125977,0.80957-0.189453,1.210938-0.189453
		c0.410156,0,0.816406,0.063477,1.21875,0.189453c0.400391,0.125977,0.764648,0.32666,1.091797,0.601562
		c0.326172,0.275391,0.589844,0.635254,0.791016,1.078125c0.200195,0.442871,0.300781,0.981934,0.300781,1.617188
		c0,0.634766-0.100586,1.173828-0.300781,1.616211c-0.201172,0.443359-0.464844,0.803711-0.791016,1.078125
		c-0.327148,0.275391-0.691406,0.469727-1.091797,0.582031c-0.401367,0.111328-0.808594,0.167969-1.21875,0.167969
		c-0.401367,0-0.805664-0.056641-1.210938-0.167969c-0.40625-0.112305-0.772461-0.306641-1.099609-0.582031
		c-0.327148-0.274414-0.59082-0.634766-0.791016-1.078125c-0.200684-0.442383-0.300781-0.981445-0.300781-1.616211
		C21.182129,8.109863,21.282227,7.572266,21.48291,7.12793z M22.52002,9.878906c0.070312,0.364258,0.1875,0.6875,0.355469,0.972656
		s0.393555,0.511719,0.673828,0.679688c0.279297,0.167969,0.625,0.251953,1.035156,0.251953s0.755859-0.083984,1.035156-0.251953
		c0.280273-0.167969,0.503906-0.394531,0.671875-0.679688s0.287109-0.608398,0.357422-0.972656
		c0.070312-0.363281,0.103516-0.742188,0.103516-1.133789c0-0.39209-0.033203-0.77002-0.103516-1.134277
		c-0.070312-0.36377-0.189453-0.687988-0.357422-0.972656c-0.167969-0.285156-0.391602-0.51123-0.671875-0.679199
		c-0.279297-0.167969-0.625-0.251953-1.035156-0.251953s-0.755859,0.083984-1.035156,0.251953
		c-0.280273,0.167969-0.505859,0.39502-0.673828,0.679199C22.70752,6.921875,22.590332,7.248047,22.52002,7.61084
		c-0.070312,0.364258-0.105469,0.742188-0.105469,1.134277C22.414551,9.136719,22.449707,9.515625,22.52002,9.878906z"/>
	<path fill="#45474C" d="M30.752441,8.667969c0.013672-0.350098,0.020508-0.698242,0.020508-1.042969
		c0-0.327148-0.00293-0.681152-0.007812-1.063965c-0.004883-0.383301-0.012695-0.77002-0.020508-1.162109
		c0.232422,0.046875,0.427734,0.069824,0.587891,0.069824c0.148438,0,0.339844-0.022949,0.573242-0.069824
		c-0.046875,0.560059-0.081055,1.174316-0.104492,1.841309s-0.035156,1.350586-0.035156,2.050781
		c0,0.484375,0.041992,0.855469,0.125977,1.113281c0.083984,0.256836,0.186523,0.451172,0.30957,0.580078
		c0.130859,0.149414,0.294922,0.273438,0.496094,0.371094c0.200195,0.098633,0.435547,0.147461,0.707031,0.147461
		c0.392578,0,0.71875-0.085938,0.978516-0.258789c0.262695-0.173828,0.453125-0.384766,0.574219-0.636719
		c0.06543-0.15918,0.117188-0.294922,0.154297-0.40625c0.037109-0.112305,0.067383-0.261719,0.091797-0.448242
		c0.022461-0.186523,0.037109-0.438477,0.041016-0.755859c0.005859-0.317383,0.007812-0.750977,0.007812-1.302246V6.52002
		c0-0.205078-0.001953-0.400879-0.007812-0.587891c-0.003906-0.187012-0.011719-0.364258-0.020508-0.532227
		c0.102539,0.019043,0.200195,0.035156,0.293945,0.049316c0.09375,0.013672,0.191406,0.020508,0.294922,0.020508
		s0.200195-0.006836,0.293945-0.020508c0.092773-0.01416,0.186523-0.030273,0.279297-0.049316
		c-0.047852,0.728027-0.074219,1.431152-0.084961,2.106934c-0.007812,0.677246-0.013672,1.393555-0.013672,2.149414
		c0,0.419922,0.005859,0.830078,0.013672,1.232422c0.010742,0.400391,0.023438,0.788086,0.042969,1.161133
		c-0.1875-0.018555-0.368164-0.02832-0.546875-0.02832c-0.175781,0-0.358398,0.009766-0.544922,0.02832
		c0.008789-0.083984,0.016602-0.171875,0.020508-0.265625c0.003906-0.092773,0.006836-0.191406,0.006836-0.293945v-0.601562
		h-0.027344c-0.244141,0.447266-0.556641,0.776367-0.938477,0.986328c-0.382812,0.209961-0.798828,0.314453-1.246094,0.314453
		c-0.729492,0-1.299805-0.192383-1.71582-0.580078c-0.415039-0.386719-0.62207-0.945312-0.62207-1.673828
		C30.730957,9.441406,30.737793,9.019531,30.752441,8.667969z"/>
	<path fill="#45474C" d="M40.979004,3.522949c-0.027344,0.35498-0.048828,0.703125-0.0625,1.042969
		C40.901855,4.907227,40.88623,5.25,40.867676,5.594727c0.102539,0,0.292969-0.001953,0.573242-0.006836
		c0.280273-0.003906,0.583008-0.015625,0.910156-0.035156c-0.010742,0.02832-0.014648,0.079102-0.014648,0.154297v0.140137v0.153809
		c0,0.064941,0.003906,0.111816,0.014648,0.140137c-0.121094-0.009277-0.24707-0.016113-0.37793-0.020996
		s-0.271484-0.007324-0.419922-0.007324h-0.6875c-0.008789,0.038086-0.020508,0.187012-0.033203,0.448242
		c-0.015625,0.26123-0.026367,0.571777-0.035156,0.931152c-0.009766,0.358887-0.017578,0.734863-0.021484,1.126953
		c-0.003906,0.391602-0.006836,0.742188-0.006836,1.049805c0,0.260742,0.006836,0.518555,0.020508,0.770508
		c0.014648,0.251953,0.058594,0.478516,0.132812,0.678711s0.1875,0.362305,0.335938,0.483398
		c0.150391,0.121094,0.365234,0.181641,0.644531,0.181641c0.075195,0,0.175781-0.009766,0.302734-0.02832
		c0.125-0.018555,0.234375-0.041992,0.328125-0.069336v0.335938c-0.158203,0.027344-0.333984,0.0625-0.525391,0.104492
		c-0.19043,0.041992-0.375,0.063477-0.552734,0.063477c-0.587891,0-1.021484-0.145508-1.302734-0.43457
		c-0.279297-0.289062-0.419922-0.713867-0.419922-1.274414c0-0.251953,0.004883-0.524414,0.015625-0.818359
		c0.007812-0.293945,0.020508-0.616211,0.033203-0.966797c0.015625-0.349121,0.026367-0.736328,0.035156-1.161133
		c0.009766-0.425293,0.015625-0.898438,0.015625-1.421387h-0.449219c-0.074219,0-0.15332,0.002441-0.237305,0.007324
		s-0.172852,0.011719-0.266602,0.020996c0.009766-0.056152,0.016602-0.109863,0.021484-0.161133
		c0.004883-0.050781,0.007812-0.10498,0.007812-0.161133c0-0.045898-0.00293-0.092773-0.007812-0.139648
		c-0.004883-0.047363-0.011719-0.093262-0.021484-0.140137c0.419922,0.027832,0.728516,0.041992,0.924805,0.041992
		c-0.010742-0.187012-0.016602-0.419922-0.020508-0.700195c-0.005859-0.279785-0.016602-0.568848-0.035156-0.867676
		l1.162109-0.490234H40.979004z"/>
</g>
</svg>
