<?xml version="1.0" encoding="utf-8"?>
<!-- Generator: Adobe Illustrator 15.1.0, SVG Export Plug-In . SVG Version: 6.00 Build 0)  -->
<!DOCTYPE svg PUBLIC "-//W3C//DTD SVG 1.1//EN" "http://www.w3.org/Graphics/SVG/1.1/DTD/svg11.dtd">
<svg version="1.1" id="レイヤー_1" xmlns="http://www.w3.org/2000/svg" xmlns:xlink="http://www.w3.org/1999/xlink" x="0px"
	 y="0px" width="79.539062px" height="16px" viewBox="0 0 79.539062 16" enable-background="new 0 0 79.539062 16"
	 xml:space="preserve">
<g>
	<path fill="#769FC0" d="M1.336914,4.245117C1.312988,3.651855,1.288086,3.046875,1.259766,2.432129
		C1.483887,2.450195,1.709961,2.46582,1.938965,2.47998s0.454102,0.020996,0.679199,0.020996
		c0.111816,0,0.24707-0.003906,0.405762-0.01416C3.182129,2.478027,3.342773,2.471191,3.505859,2.46582
		c0.164062-0.003906,0.320312-0.010742,0.470215-0.020996C4.125,2.436035,4.250977,2.431152,4.354004,2.431152
		c0.141113,0,0.312988,0.004883,0.519043,0.013672C5.078125,2.455078,5.294922,2.48291,5.523926,2.528809
		C5.75293,2.576172,5.978027,2.645996,6.203125,2.739258c0.223633,0.09375,0.426758,0.228516,0.60791,0.405762
		c0.182129,0.178223,0.329102,0.398926,0.440918,0.666016s0.167969,0.594238,0.167969,0.98584
		c0,0.616211-0.132812,1.116211-0.397949,1.498047c-0.26709,0.382812-0.59375,0.682129-0.97998,0.895996
		C5.652832,7.40625,5.243164,7.550781,4.809082,7.625C4.375,7.700195,3.990234,7.736816,3.653809,7.736816
		c-0.214844,0-0.410645-0.001953-0.587891-0.006836C2.88916,7.726074,2.707031,7.713867,2.52002,7.694824v0.77002
		c0,0.616211,0.012207,1.222656,0.035156,1.820312c0.022949,0.59668,0.048828,1.185547,0.07666,1.763672
		c-0.214844-0.019531-0.442871-0.027344-0.686035-0.027344c-0.242676,0-0.47168,0.008789-0.687012,0.027344
		c0.02832-0.578125,0.054199-1.166992,0.077148-1.763672C1.358887,9.6875,1.371094,9.081055,1.371094,8.464844V6.058105
		C1.37207,5.440918,1.359863,4.836914,1.336914,4.245117z M3.51416,7.219727c0.289062,0,0.587891-0.032715,0.895996-0.097656
		C4.717773,7.056152,5,6.937988,5.256836,6.765137c0.257324-0.17334,0.467285-0.411133,0.630371-0.714355
		C6.049805,5.74707,6.131836,5.356934,6.131836,4.880859c0-0.400879-0.055664-0.728027-0.167969-0.97998
		c-0.111816-0.251953-0.269043-0.446777-0.46875-0.587891C5.293945,3.172852,5.048828,3.078125,4.759766,3.025879
		c-0.288574-0.050781-0.615723-0.075684-0.97998-0.075684H2.52002V7.10791C2.836914,7.182129,3.168945,7.219727,3.51416,7.219727z"
		/>
	<path fill="#769FC0" d="M10.144043,4.489258c-0.004883-0.373047-0.012207-0.742188-0.020996-1.106445
		c-0.010254-0.36377-0.020996-0.710938-0.035156-1.042969c-0.014648-0.331055-0.029785-0.612793-0.048828-0.84668
		c0.260742,0.046875,0.470703,0.069824,0.629883,0.069824c0.158203,0,0.368164-0.022949,0.629883-0.069824
		C11.279785,1.726074,11.26416,2.005859,11.25,2.333008c-0.015137,0.327148-0.025879,0.669922-0.035156,1.028809
		c-0.009766,0.359375-0.016602,0.721191-0.020996,1.085449c-0.004883,0.36377-0.006836,0.699707-0.006836,1.007812V6.52002h0.027832
		c0.262207-0.400879,0.575195-0.710938,0.939941-0.931152c0.365234-0.21875,0.80127-0.329102,1.307129-0.329102
		c0.262207,0,0.525879,0.038086,0.792969,0.112305c0.26709,0.07373,0.508301,0.203125,0.724121,0.384766
		c0.214844,0.182129,0.391113,0.430176,0.525879,0.742188c0.13623,0.312988,0.204102,0.711914,0.204102,1.196777
		c0,0.401367-0.009766,0.813965-0.027832,1.239746c-0.018066,0.423828-0.02832,0.875-0.02832,1.351562v0.908203
		c0,0.150391,0.00293,0.297852,0.007324,0.441406c0.004883,0.145508,0.011719,0.282227,0.020996,0.413086
		c-0.188965-0.018555-0.388184-0.02832-0.595215-0.02832c-0.19873,0-0.393066,0.010742-0.581055,0.02832
		c0.019043-0.485352,0.039062-0.983398,0.062012-1.49707s0.035156-1.041016,0.035156-1.582031V8.116211
		c0-0.700195-0.13623-1.230469-0.40625-1.589355c-0.270996-0.358887-0.644043-0.539062-1.119629-0.539062
		c-0.65332,0-1.132324,0.201172-1.435059,0.602051c-0.304199,0.401367-0.455078,0.966309-0.455078,1.694336
		c0,0.260742,0.001953,0.563477,0.006836,0.90918c0.005371,0.34668,0.012207,0.692383,0.020996,1.042969
		c0.009277,0.350586,0.020996,0.6875,0.035156,1.015625s0.029785,0.59375,0.048828,0.797852
		c-0.214844-0.018555-0.424805-0.02832-0.629883-0.02832c-0.206055,0-0.416016,0.010742-0.629883,0.02832
		c0.019043-0.213867,0.033691-0.485352,0.048828-0.811523c0.01416-0.326172,0.024902-0.671875,0.035156-1.036133
		c0.008789-0.364258,0.016113-0.733398,0.020996-1.106445s0.006836-0.71875,0.006836-1.035645V5.524902
		C10.149902,5.208008,10.147949,4.862793,10.144043,4.489258z"/>
	<path fill="#769FC0" d="M18.73877,7.12793c0.200195-0.442871,0.464355-0.802734,0.791016-1.078125
		c0.326172-0.274902,0.693359-0.475586,1.099121-0.601562c0.40625-0.125977,0.810059-0.189453,1.210938-0.189453
		c0.411133,0,0.817383,0.063477,1.219238,0.189453c0.399902,0.125977,0.765137,0.32666,1.091797,0.601562
		c0.326172,0.275391,0.590332,0.635254,0.791016,1.078125c0.200195,0.442871,0.30127,0.981934,0.30127,1.617188
		c0,0.634766-0.101074,1.173828-0.30127,1.616211c-0.200684,0.443359-0.464844,0.803711-0.791016,1.078125
		c-0.32666,0.274414-0.690918,0.469727-1.091797,0.582031c-0.400879,0.110352-0.808105,0.167969-1.219238,0.167969
		c-0.400879,0-0.804688-0.057617-1.210938-0.167969c-0.404785-0.112305-0.771973-0.307617-1.099121-0.582031
		c-0.32666-0.274414-0.59082-0.634766-0.791016-1.078125c-0.200684-0.442383-0.300781-0.981445-0.300781-1.616211
		C18.437988,8.109863,18.538086,7.572266,18.73877,7.12793z M19.774902,9.878906
		c0.070312,0.364258,0.187988,0.6875,0.355957,0.972656s0.393066,0.512695,0.67334,0.680664
		c0.278809,0.167969,0.625,0.251953,1.034668,0.251953c0.411133,0,0.757324-0.083984,1.036133-0.251953
		c0.279785-0.167969,0.503906-0.395508,0.671875-0.680664s0.287109-0.607422,0.356934-0.972656
		c0.070312-0.363281,0.104004-0.742188,0.104004-1.133789c0-0.39209-0.033691-0.77002-0.104004-1.134277
		c-0.069824-0.36377-0.188965-0.687988-0.356934-0.972656c-0.167969-0.285156-0.39209-0.51123-0.671875-0.679199
		c-0.278809-0.167969-0.625-0.251953-1.036133-0.251953c-0.409668,0-0.755859,0.083984-1.034668,0.251953
		c-0.280273,0.167969-0.505371,0.39502-0.67334,0.679199c-0.167969,0.283691-0.285645,0.608887-0.355957,0.972656
		c-0.069824,0.364258-0.10498,0.742188-0.10498,1.134277C19.669922,9.136719,19.705078,9.515625,19.774902,9.878906z"/>
	<path fill="#769FC0" d="M29.26123,3.522949c-0.02832,0.35498-0.049316,0.703125-0.062012,1.042969
		C29.184082,4.907227,29.167969,5.25,29.148926,5.594727c0.103027,0,0.293945-0.001953,0.574219-0.006836
		c0.279785-0.003906,0.583008-0.015625,0.909668-0.035156c-0.009766,0.02832-0.013672,0.079102-0.013672,0.154297v0.140137v0.153809
		c0,0.064941,0.003906,0.111816,0.013672,0.140137C30.512207,6.131836,30.38623,6.125,30.254883,6.120117
		c-0.130859-0.004883-0.270996-0.007324-0.419922-0.007324h-0.687012c-0.007812,0.038086-0.02002,0.187012-0.03418,0.449219
		c-0.014648,0.26123-0.025879,0.571777-0.034668,0.931152c-0.010254,0.358887-0.01709,0.734863-0.020996,1.126953
		c-0.003906,0.391602-0.007324,0.741211-0.007324,1.049805c0,0.261719,0.007324,0.517578,0.020996,0.769531
		c0.01416,0.251953,0.058105,0.479492,0.133301,0.680664c0.07373,0.200195,0.187012,0.360352,0.335938,0.481445
		s0.36377,0.183594,0.644043,0.183594c0.074707,0,0.174805-0.009766,0.301758-0.02832
		c0.125977-0.020508,0.235352-0.041992,0.328125-0.069336v0.335938c-0.157715,0.027344-0.333008,0.0625-0.523926,0.104492
		s-0.375977,0.061523-0.553223,0.061523c-0.588867,0-1.021973-0.144531-1.302734-0.433594
		c-0.279297-0.289062-0.419922-0.713867-0.419922-1.273438c0-0.251953,0.004883-0.524414,0.014648-0.818359
		c0.009277-0.293945,0.020996-0.616211,0.03418-0.96582c0.015137-0.350098,0.025879-0.737305,0.035156-1.162109
		c0.009766-0.425293,0.014648-0.897949,0.014648-1.420898h-0.447754c-0.075195,0-0.153809,0.001953-0.237793,0.006836
		c-0.084473,0.004883-0.17334,0.011719-0.266113,0.020996c0.008789-0.056152,0.016113-0.109863,0.020996-0.161133
		c0.004883-0.050781,0.006836-0.105957,0.006836-0.162109c0-0.045898-0.001953-0.092773-0.006836-0.139648
		c-0.004883-0.047363-0.012207-0.093262-0.020996-0.140137c0.419922,0.027832,0.728027,0.041992,0.923828,0.041992
		c-0.009766-0.187012-0.01709-0.419922-0.020996-0.700195c-0.004883-0.279785-0.016113-0.568848-0.03418-0.867676l1.161133-0.490234
		L29.26123,3.522949L29.26123,3.522949z"/>
	<path fill="#769FC0" d="M32.794922,7.12793c0.200195-0.442871,0.463867-0.802734,0.791016-1.078125
		c0.326172-0.274902,0.692871-0.475586,1.099121-0.601562c0.405762-0.125977,0.810059-0.189453,1.210938-0.189453
		c0.411133,0,0.816895,0.063477,1.219238,0.189453c0.399902,0.125977,0.764648,0.32666,1.091797,0.601562
		c0.326172,0.275391,0.589844,0.635254,0.791016,1.078125c0.200195,0.442871,0.300781,0.981934,0.300781,1.617188
		c0,0.634766-0.101074,1.173828-0.300781,1.616211c-0.201172,0.443359-0.464844,0.803711-0.791016,1.078125
		c-0.327148,0.274414-0.690918,0.469727-1.091797,0.582031c-0.401367,0.110352-0.808105,0.167969-1.219238,0.167969
		c-0.400879,0-0.805176-0.057617-1.210938-0.167969c-0.405273-0.112305-0.771973-0.307617-1.099121-0.582031
		s-0.59082-0.634766-0.791016-1.078125c-0.201172-0.442383-0.300781-0.981445-0.300781-1.616211
		C32.494141,8.109863,32.594238,7.572266,32.794922,7.12793z M33.831055,9.878906
		c0.069824,0.364258,0.187988,0.6875,0.355957,0.972656s0.393066,0.512695,0.672852,0.680664
		c0.279297,0.167969,0.625,0.251953,1.035156,0.251953c0.411133,0,0.756836-0.083984,1.036133-0.251953
		c0.279785-0.167969,0.503906-0.395508,0.671875-0.680664s0.287109-0.607422,0.356934-0.972656
		c0.069824-0.363281,0.104004-0.742188,0.104004-1.133789c0-0.39209-0.03418-0.77002-0.104004-1.134277
		c-0.069824-0.36377-0.188965-0.687988-0.356934-0.972656c-0.167969-0.285156-0.39209-0.51123-0.671875-0.679199
		c-0.279297-0.167969-0.625-0.251953-1.036133-0.251953c-0.410156,0-0.755859,0.083984-1.035156,0.251953
		c-0.279785,0.167969-0.504883,0.39502-0.672852,0.679199c-0.167969,0.283691-0.286133,0.608887-0.355957,0.972656
		c-0.069824,0.364258-0.10498,0.742188-0.10498,1.134277C33.726074,9.136719,33.76123,9.515625,33.831055,9.878906z"/>
	<path fill="#769FC0" d="M41.888672,6.525879c0.140625-0.284668,0.333984-0.52002,0.582031-0.707031
		c0.245117-0.187012,0.530273-0.32666,0.853516-0.419922c0.322266-0.092773,0.664062-0.140137,1.029297-0.140137
		c0.175781,0,0.347656,0.005371,0.509766,0.01416c0.164062,0.009277,0.371094,0.022949,0.623047,0.041992
		c0.216797,0.019043,0.40625,0.033203,0.574219,0.041992c0.167969,0.009277,0.302734,0.01416,0.405273,0.01416
		c0.522461,0,0.900391-0.022949,1.135742-0.070312c-0.010742,0.047363-0.018555,0.096191-0.021484,0.146484
		c-0.003906,0.051758-0.005859,0.100586-0.005859,0.146484c0,0.046387,0.001953,0.096191,0.005859,0.147461
		c0.005859,0.050781,0.011719,0.099609,0.021484,0.146973c-0.271484-0.019043-0.535156-0.040039-0.791016-0.062988
		c-0.257812-0.023438-0.512695-0.040039-0.764648-0.049316l-0.026367,0.02832
		c0.289062,0.158691,0.520508,0.403809,0.699219,0.734863c0.177734,0.332031,0.265625,0.673828,0.265625,1.028809
		c0,0.700195-0.234375,1.250488-0.707031,1.64502c-0.470703,0.396484-1.103516,0.595703-1.895508,0.595703
		c-0.130859,0-0.259766-0.003906-0.386719-0.014648c-0.125-0.008789-0.253906-0.013672-0.385742-0.013672
		c-0.167969,0-0.323242,0.060547-0.46875,0.181641c-0.144531,0.12207-0.216797,0.274414-0.216797,0.461914
		c0,0.243164,0.058594,0.420898,0.175781,0.532227c0.115234,0.110352,0.333984,0.172852,0.650391,0.182617
		c0.261719,0.009766,0.517578,0.015625,0.769531,0.020508s0.509766,0.011719,0.770508,0.020508
		c0.430664,0.007812,0.796875,0.061523,1.100586,0.15332c0.302734,0.092773,0.550781,0.219727,0.741211,0.37793
		c0.19043,0.15918,0.332031,0.341797,0.420898,0.545898c0.087891,0.206055,0.132812,0.428711,0.132812,0.672852
		c0,0.326172-0.0625,0.657227-0.1875,0.993164c-0.126953,0.336914-0.322266,0.639648-0.587891,0.910156
		c-0.267578,0.270508-0.609375,0.495117-1.029297,0.671875s-0.923828,0.266602-1.511719,0.266602
		c-0.90625,0-1.619141-0.179688-2.142578-0.539062c-0.524414-0.358398-0.785156-0.852539-0.785156-1.477539
		c0-0.243164,0.044922-0.466797,0.134766-0.671875c0.087891-0.206055,0.201172-0.387695,0.34375-0.545898
		c0.140625-0.15918,0.296875-0.285156,0.476562-0.37793c0.176758-0.094727,0.357422-0.163086,0.544922-0.209961v-0.02832
		c-0.289062-0.083984-0.507812-0.223633-0.657227-0.419922c-0.147461-0.196289-0.223633-0.428711-0.223633-0.700195
		c0-0.158203,0.029297-0.302734,0.089844-0.433594c0.061523-0.130859,0.139648-0.248047,0.230469-0.349609
		c0.09375-0.104492,0.201172-0.188477,0.322266-0.251953c0.120117-0.06543,0.236328-0.107422,0.351562-0.126953V9.613281
		c-0.431641-0.188477-0.767578-0.450195-1.009766-0.791016c-0.242188-0.340332-0.363281-0.768066-0.363281-1.28125
		C41.679688,7.148926,41.748047,6.812012,41.888672,6.525879z M46.158203,12.357422
		c-0.326172-0.225586-0.867188-0.335938-1.623047-0.335938c-0.699219,0-1.242188,0.112305-1.625,0.341797
		s-0.572266,0.642578-0.572266,1.240234c0,0.31543,0.052734,0.587891,0.160156,0.811523
		c0.105469,0.223633,0.251953,0.405273,0.435547,0.545898c0.181641,0.140625,0.396484,0.243164,0.648438,0.308594
		c0.253906,0.064453,0.523438,0.098633,0.8125,0.098633c0.27832,0,0.554688-0.038086,0.826172-0.112305
		c0.270508-0.074219,0.509766-0.1875,0.720703-0.335938c0.208984-0.148438,0.378906-0.337891,0.511719-0.566406
		c0.130859-0.229492,0.195312-0.501953,0.195312-0.818359C46.648438,12.974609,46.484375,12.582031,46.158203,12.357422z
		 M45.472656,6.126953c-0.279297-0.308105-0.648438-0.461914-1.105469-0.461914c-0.503906,0-0.896484,0.169922-1.175781,0.510742
		c-0.279297,0.341309-0.419922,0.796387-0.419922,1.365234c0,0.587891,0.126953,1.052734,0.384766,1.392578
		c0.257812,0.341797,0.65625,0.511719,1.197266,0.511719c0.270508,0,0.501953-0.052734,0.692383-0.160156
		c0.188477-0.105469,0.350586-0.25293,0.475586-0.435547c0.126953-0.181641,0.220703-0.391602,0.280273-0.628418
		c0.061523-0.238281,0.09082-0.488281,0.09082-0.749023C45.892578,6.882812,45.75293,6.436035,45.472656,6.126953z"/>
	<path fill="#769FC0" d="M53.166016,6.394043c-0.136719-0.046875-0.273438-0.069824-0.414062-0.069824
		c-0.224609,0-0.423828,0.051758-0.601562,0.153809c-0.177734,0.103027-0.326172,0.239746-0.447266,0.413086
		c-0.123047,0.172852-0.216797,0.37793-0.28125,0.615723C51.357422,7.745117,51.324219,8,51.324219,8.27002v1.540527
		c0,0.625,0.001953,1.104492,0.007812,1.435547c0.003906,0.331055,0.021484,0.601562,0.048828,0.804688
		c-0.1875-0.018555-0.373047-0.027344-0.560547-0.027344c-0.207031,0-0.400391,0.009766-0.587891,0.027344
		c0.026367-0.316406,0.042969-0.749023,0.048828-1.294922c0.003906-0.545898,0.007812-1.214844,0.007812-2.008789V8.296875
		c0-0.36377-0.003906-0.783691-0.007812-1.259766c-0.005859-0.476074-0.021484-1.021973-0.048828-1.638184
		c0.103516,0.019043,0.199219,0.035156,0.292969,0.049316c0.09375,0.013672,0.19043,0.020508,0.294922,0.020508
		c0.083984,0,0.171875-0.006836,0.265625-0.020508c0.09375-0.01416,0.191406-0.030273,0.294922-0.049316
		c-0.037109,0.335938-0.060547,0.602051-0.0625,0.79834c-0.003906,0.195801-0.007812,0.382812-0.007812,0.55957l0.027344,0.01416
		c0.552734-1.007812,1.167969-1.512207,1.849609-1.512207c0.083984,0,0.154297,0.005371,0.216797,0.01416
		c0.061523,0.009277,0.139648,0.033203,0.230469,0.069824c-0.046875,0.112305-0.074219,0.283203-0.083984,0.51123
		c-0.009766,0.229004-0.013672,0.437012-0.013672,0.623047L53.4375,6.546875
		C53.392578,6.492188,53.299805,6.439941,53.166016,6.394043z"/>
	<path fill="#769FC0" d="M57.373047,5.426758c0.353516-0.111816,0.71875-0.167969,1.091797-0.167969
		c0.335938,0,0.644531,0.049316,0.925781,0.147461c0.279297,0.097656,0.520508,0.237793,0.71875,0.419922
		c0.199219,0.181641,0.354492,0.400879,0.469727,0.657715c0.112305,0.257324,0.169922,0.539062,0.169922,0.847168
		c0,0.531738-0.010742,1.062012-0.026367,1.588867c-0.020508,0.527344-0.029297,1.084961-0.029297,1.673828
		c0,0.111328,0.001953,0.230469,0.007812,0.356445s0.025391,0.237305,0.0625,0.335938
		c0.036133,0.097656,0.091797,0.179688,0.161133,0.245117c0.068359,0.063477,0.174805,0.097656,0.313477,0.097656
		c0.047852,0,0.09668-0.001953,0.146484-0.006836c0.050781-0.004883,0.099609-0.020508,0.146484-0.049805v0.308594
		c-0.103516,0.046875-0.229492,0.083984-0.384766,0.112305c-0.15332,0.02832-0.324219,0.041992-0.511719,0.041992
		c-0.304688,0-0.535156-0.077148-0.695312-0.230469c-0.162109-0.154297-0.255859-0.353516-0.285156-0.595703
		c-0.333984,0.335938-0.664062,0.583008-0.989258,0.742188c-0.326172,0.158203-0.725586,0.238281-1.199219,0.238281
		c-0.231445,0-0.460938-0.033203-0.68457-0.099609c-0.222656-0.064453-0.421875-0.171875-0.59375-0.320312
		c-0.171875-0.150391-0.311523-0.330078-0.417969-0.539062c-0.106445-0.210938-0.160156-0.451172-0.160156-0.722656
		c0-0.55957,0.174805-0.992188,0.521484-1.301758c0.349609-0.30957,0.830078-0.514648,1.445312-0.616211
		c0.501953-0.083984,0.894531-0.155762,1.177734-0.216797s0.494141-0.124023,0.628906-0.188965s0.216797-0.14209,0.244141-0.230957
		C59.652344,7.864258,59.667969,7.75,59.667969,7.609863c0-0.23291-0.027344-0.457031-0.083984-0.671875
		C59.527344,6.724121,59.4375,6.537109,59.316406,6.37793S59.037109,6.09082,58.84082,5.993164
		c-0.196289-0.098145-0.436523-0.146973-0.714844-0.146973c-0.373047,0-0.72168,0.083984-1.042969,0.251953
		s-0.561523,0.400879-0.72168,0.699707h-0.15332V6.070801C56.629883,5.753906,57.017578,5.540039,57.373047,5.426758z
		 M59.119141,8.704102c-0.208984,0.037109-0.421875,0.077148-0.634766,0.118164
		c-0.214844,0.042969-0.425781,0.09668-0.634766,0.162109C57.640625,9.047852,57.454102,9.138672,57.291992,9.25
		S57,9.500977,56.902344,9.668945s-0.145508,0.383789-0.145508,0.643555c0,0.439453,0.125,0.771484,0.375,0.994141
		c0.25,0.225586,0.529297,0.335938,0.836914,0.335938c0.353516,0,0.675781-0.097656,0.96875-0.292969
		c0.292969-0.197266,0.519531-0.425781,0.675781-0.686523L59.669922,8.5625
		C59.511719,8.620117,59.328125,8.666992,59.119141,8.704102z"/>
	<path fill="#769FC0" d="M64.113281,8.437988c-0.005859-0.373047-0.011719-0.744141-0.021484-1.112793
		c-0.007812-0.369141-0.021484-0.721191-0.033203-1.057129c-0.015625-0.335938-0.03125-0.625-0.050781-0.868164
		c0.263672,0.047363,0.472656,0.069824,0.630859,0.069824s0.369141-0.022461,0.630859-0.069824
		c-0.037109,0.243164-0.06543,0.476074-0.083984,0.700195c-0.019531,0.224121-0.027344,0.447754-0.027344,0.671875h0.027344
		C65.25,6.623047,65.34375,6.461914,65.464844,6.289062s0.277344-0.335938,0.46875-0.490234
		C66.125,5.64502,66.357422,5.51709,66.626953,5.414062s0.578125-0.154297,0.923828-0.154297
		c0.353516,0,0.705078,0.068359,1.050781,0.203125c0.345703,0.135254,0.650391,0.343262,0.916016,0.623047
		c0.268555,0.280273,0.480469,0.637207,0.645508,1.071289c0.164062,0.433594,0.246094,0.949707,0.246094,1.546875
		c0,0.59668-0.09082,1.114258-0.268555,1.553711c-0.177734,0.44043-0.408203,0.802734-0.691406,1.091797
		c-0.28418,0.289062-0.608398,0.501953-0.974609,0.636719c-0.363281,0.136719-0.728516,0.203125-1.091797,0.203125
		c-1.025391,0-1.759766-0.441406-2.197266-1.330078H65.15918v0.883789c0,0.297852,0.001953,0.631836,0.005859,1.000977
		c0.005859,0.367188,0.011719,0.734375,0.020508,1.098633c0.009766,0.364258,0.021484,0.713867,0.035156,1.042969
		C65.236328,15.217773,65.25,15.5,65.269531,15.734375c-0.261719-0.046875-0.470703-0.070312-0.628906-0.070312
		s-0.369141,0.023438-0.630859,0.070312c0.019531-0.233398,0.035156-0.517578,0.048828-0.848633
		c0.016602-0.329102,0.025391-0.678711,0.035156-1.042969c0.009766-0.362305,0.017578-0.729492,0.021484-1.098633
		s0.005859-0.703125,0.005859-1.000977V9.474609C64.121094,9.15625,64.117188,8.810547,64.113281,8.437988z M69,7.304199
		c-0.117188-0.364258-0.267578-0.65625-0.449219-0.875c-0.181641-0.219238-0.388672-0.371094-0.621094-0.455078
		c-0.234375-0.083984-0.462891-0.125977-0.6875-0.125977c-0.373047,0-0.693359,0.078613-0.958984,0.237793
		c-0.267578,0.15918-0.482422,0.371094-0.650391,0.637207s-0.289062,0.578613-0.363281,0.937988
		C65.195312,8.02002,65.15918,8.400879,65.15918,8.802734c0,1.94043,0.679688,2.911133,2.042969,2.911133
		c0.335938,0,0.626953-0.077148,0.875-0.231445c0.248047-0.152344,0.452148-0.368164,0.616211-0.643555
		c0.162109-0.274414,0.283203-0.59668,0.363281-0.96582c0.078125-0.369141,0.117188-0.763672,0.117188-1.183594
		C69.172852,8.128906,69.115234,7.666992,69,7.304199z"/>
	<path fill="#769FC0" d="M73.353516,4.489258c-0.003906-0.373047-0.012695-0.742188-0.020508-1.106445
		c-0.010742-0.36377-0.020508-0.710938-0.035156-1.042969c-0.015625-0.331055-0.030273-0.612793-0.048828-0.84668
		c0.259766,0.046875,0.47168,0.069824,0.628906,0.069824c0.158203,0,0.369141-0.022949,0.630859-0.069824
		c-0.020508,0.23291-0.03418,0.512695-0.048828,0.839844c-0.016602,0.327148-0.026367,0.669922-0.035156,1.028809
		c-0.009766,0.359375-0.018555,0.721191-0.020508,1.085449c-0.005859,0.36377-0.007812,0.699707-0.007812,1.007812V6.52002h0.02832
		C74.6875,6.119141,75,5.809082,75.365234,5.588867c0.365234-0.21875,0.800781-0.329102,1.305664-0.329102
		c0.262695,0,0.526367,0.038086,0.792969,0.112305c0.268555,0.07373,0.508789,0.203125,0.725586,0.384766
		c0.214844,0.182129,0.390625,0.430176,0.524414,0.742188c0.137695,0.312988,0.205078,0.711914,0.205078,1.196777
		c0,0.401367-0.009766,0.813965-0.02832,1.239746c-0.018555,0.423828-0.027344,0.875-0.027344,1.351562v0.908203
		c0,0.150391,0.00293,0.297852,0.007812,0.441406c0.003906,0.145508,0.011719,0.282227,0.021484,0.413086
		c-0.188477-0.018555-0.388672-0.02832-0.595703-0.02832c-0.199219,0-0.394531,0.010742-0.582031,0.02832
		c0.019531-0.485352,0.039062-0.983398,0.0625-1.49707c0.022461-0.513672,0.035156-1.041016,0.035156-1.582031V8.116211
		c0-0.700195-0.137695-1.230469-0.40625-1.589355c-0.271484-0.358887-0.644531-0.539062-1.119141-0.539062
		c-0.654297,0-1.132812,0.201172-1.435547,0.602051c-0.305664,0.401367-0.455078,0.966309-0.455078,1.694336
		c0,0.260742,0.001953,0.563477,0.005859,0.90918c0.005859,0.34668,0.013672,0.692383,0.021484,1.042969
		c0.009766,0.350586,0.021484,0.6875,0.035156,1.015625c0.015625,0.327148,0.030273,0.59375,0.048828,0.797852
		c-0.214844-0.018555-0.423828-0.02832-0.628906-0.02832c-0.207031,0-0.416016,0.010742-0.630859,0.02832
		c0.019531-0.213867,0.035156-0.485352,0.048828-0.811523c0.015625-0.326172,0.025391-0.671875,0.035156-1.036133
		s0.017578-0.733398,0.021484-1.106445s0.005859-0.71875,0.005859-1.035645V5.524902
		C73.359375,5.208008,73.357422,4.862793,73.353516,4.489258z"/>
</g>
</svg>
