<?xml version="1.0" encoding="utf-8"?>
<!-- Generator: Adobe Illustrator 15.1.0, SVG Export Plug-In . SVG Version: 6.00 Build 0)  -->
<!DOCTYPE svg PUBLIC "-//W3C//DTD SVG 1.1//EN" "http://www.w3.org/Graphics/SVG/1.1/DTD/svg11.dtd">
<svg version="1.1" id="レイヤー_1" xmlns="http://www.w3.org/2000/svg" xmlns:xlink="http://www.w3.org/1999/xlink" x="0px"
	 y="0px" width="79.538574px" height="16px" viewBox="0 0 79.538574 16" enable-background="new 0 0 79.538574 16"
	 xml:space="preserve">
<g>
	<path fill="#45474C" d="M1.336914,4.245117C1.312988,3.651855,1.288086,3.046875,1.259766,2.432129
		C1.483887,2.450195,1.709961,2.46582,1.938965,2.47998s0.454102,0.020996,0.679199,0.020996
		c0.111816,0,0.24707-0.003906,0.405762-0.01416C3.182129,2.478027,3.342773,2.471191,3.505859,2.46582
		c0.164062-0.003906,0.320312-0.010742,0.470215-0.020996C4.125,2.436035,4.250977,2.431152,4.354004,2.431152
		c0.141113,0,0.312988,0.004883,0.519043,0.013672C5.078125,2.455078,5.294922,2.48291,5.523926,2.528809
		C5.75293,2.576172,5.978027,2.645996,6.203125,2.739258c0.223633,0.09375,0.426758,0.228516,0.60791,0.405762
		c0.182129,0.178223,0.329102,0.398926,0.440918,0.666016s0.167969,0.594238,0.167969,0.98584
		c0,0.616211-0.132812,1.116211-0.397949,1.498047c-0.26709,0.382812-0.59375,0.682129-0.97998,0.895996
		C5.652832,7.40625,5.243164,7.550781,4.809082,7.625C4.375,7.700195,3.990234,7.736816,3.653809,7.736816
		c-0.214844,0-0.410645-0.001953-0.587891-0.006836C2.88916,7.726074,2.707031,7.713867,2.52002,7.694824v0.77002
		c0,0.616211,0.012207,1.222656,0.035156,1.820312c0.022949,0.59668,0.048828,1.18457,0.07666,1.763672
		c-0.214844-0.018555-0.442871-0.027344-0.686035-0.027344c-0.242676,0-0.47168,0.008789-0.687012,0.027344
		c0.02832-0.579102,0.054199-1.166992,0.077148-1.763672C1.358887,9.6875,1.371094,9.081055,1.371094,8.464844V6.058105
		C1.37207,5.440918,1.359863,4.836914,1.336914,4.245117z M3.51416,7.219727c0.289062,0,0.587891-0.032715,0.895996-0.097656
		C4.717773,7.056152,5,6.937988,5.256836,6.765137c0.257324-0.17334,0.467285-0.411133,0.630371-0.714355
		C6.049805,5.74707,6.131836,5.356934,6.131836,4.880859c0-0.400879-0.055664-0.728027-0.167969-0.97998
		c-0.111816-0.251953-0.269043-0.446777-0.46875-0.587891C5.293945,3.172852,5.048828,3.078125,4.759766,3.025879
		c-0.288574-0.050781-0.615723-0.075684-0.97998-0.075684H2.52002V7.10791C2.836914,7.182129,3.168945,7.219727,3.51416,7.219727z"
		/>
	<path fill="#45474C" d="M10.144043,4.489258c-0.004883-0.373047-0.012207-0.742188-0.020996-1.106445
		c-0.010254-0.36377-0.020996-0.710938-0.035156-1.042969c-0.014648-0.331055-0.029785-0.612793-0.048828-0.84668
		c0.260742,0.046875,0.470703,0.069824,0.629883,0.069824c0.158203,0,0.368164-0.022949,0.629883-0.069824
		C11.279785,1.726074,11.26416,2.005859,11.25,2.333008c-0.015137,0.327148-0.025879,0.669922-0.035156,1.028809
		c-0.009766,0.359375-0.016602,0.721191-0.020996,1.085449c-0.004883,0.36377-0.006836,0.699707-0.006836,1.007812V6.52002h0.027832
		c0.262207-0.400879,0.575195-0.710938,0.939941-0.931152c0.365234-0.21875,0.80127-0.329102,1.307129-0.329102
		c0.262207,0,0.525879,0.038086,0.792969,0.112305c0.26709,0.07373,0.508301,0.203125,0.724121,0.384766
		c0.214844,0.182129,0.391113,0.430176,0.525879,0.742188c0.13623,0.312988,0.204102,0.711914,0.204102,1.196777
		c0,0.401367-0.009766,0.813965-0.027832,1.239746c-0.018066,0.423828-0.02832,0.875-0.02832,1.350586v0.90918
		c0,0.149414,0.003418,0.296875,0.007324,0.441406c0.004883,0.145508,0.011719,0.282227,0.020996,0.413086
		c-0.188965-0.018555-0.388184-0.02832-0.595215-0.02832c-0.19873,0-0.393066,0.009766-0.581055,0.02832
		c0.019043-0.485352,0.039062-0.983398,0.062012-1.498047c0.022949-0.512695,0.035156-1.041016,0.035156-1.582031V8.116211
		c0-0.700195-0.13623-1.230469-0.40625-1.589355c-0.270996-0.358887-0.644043-0.539062-1.119629-0.539062
		c-0.65332,0-1.132324,0.201172-1.435059,0.602051c-0.304199,0.401367-0.455078,0.966309-0.455078,1.694336
		c0,0.260742,0.001953,0.563477,0.006836,0.90918c0.005371,0.34668,0.012207,0.693359,0.020996,1.042969
		c0.009277,0.350586,0.020996,0.688477,0.035156,1.015625s0.029785,0.592773,0.048828,0.797852
		c-0.214844-0.018555-0.424805-0.02832-0.629883-0.02832c-0.206055,0-0.416016,0.009766-0.629883,0.02832
		c0.019043-0.213867,0.033691-0.485352,0.048828-0.811523c0.01416-0.326172,0.024902-0.671875,0.035156-1.036133
		c0.008789-0.364258,0.016113-0.733398,0.020996-1.106445s0.006836-0.71875,0.006836-1.035645V5.524902
		C10.149902,5.208008,10.147949,4.862793,10.144043,4.489258z"/>
	<path fill="#45474C" d="M18.73877,7.12793c0.200195-0.442871,0.464355-0.802734,0.791016-1.078125
		c0.326172-0.274902,0.693359-0.475586,1.099121-0.601562c0.40625-0.125977,0.810059-0.189453,1.210938-0.189453
		c0.411133,0,0.817383,0.063477,1.219238,0.189453c0.399902,0.125977,0.765137,0.32666,1.091797,0.601562
		c0.326172,0.275391,0.590332,0.635254,0.791016,1.078125c0.200195,0.442871,0.30127,0.981934,0.30127,1.617188
		c0,0.634766-0.101074,1.173828-0.30127,1.616211c-0.200684,0.443359-0.464844,0.803711-0.791016,1.078125
		c-0.32666,0.275391-0.690918,0.469727-1.091797,0.582031c-0.400879,0.111328-0.808105,0.167969-1.219238,0.167969
		c-0.400879,0-0.804688-0.056641-1.210938-0.167969c-0.404785-0.112305-0.771973-0.306641-1.099121-0.582031
		c-0.32666-0.274414-0.59082-0.634766-0.791016-1.078125c-0.200684-0.442383-0.300781-0.981445-0.300781-1.616211
		C18.437988,8.109863,18.538086,7.572266,18.73877,7.12793z M19.774902,9.878906
		c0.070312,0.364258,0.187988,0.6875,0.355957,0.972656s0.393066,0.511719,0.67334,0.679688
		c0.278809,0.167969,0.625,0.251953,1.034668,0.251953c0.411133,0,0.757324-0.083984,1.036133-0.251953
		c0.279785-0.167969,0.503906-0.394531,0.671875-0.679688s0.287109-0.608398,0.356934-0.972656
		c0.070312-0.363281,0.104004-0.742188,0.104004-1.133789c0-0.39209-0.033691-0.77002-0.104004-1.134277
		c-0.069824-0.36377-0.188965-0.687988-0.356934-0.972656c-0.167969-0.285156-0.39209-0.51123-0.671875-0.679199
		c-0.278809-0.167969-0.625-0.251953-1.036133-0.251953c-0.409668,0-0.755859,0.083984-1.034668,0.251953
		c-0.280273,0.167969-0.505371,0.39502-0.67334,0.679199c-0.167969,0.283691-0.285645,0.608887-0.355957,0.972656
		c-0.069824,0.364258-0.10498,0.742188-0.10498,1.134277C19.669922,9.136719,19.705078,9.515625,19.774902,9.878906z"/>
	<path fill="#45474C" d="M29.26123,3.522949c-0.02832,0.35498-0.049316,0.703125-0.062012,1.042969
		C29.184082,4.907227,29.167969,5.25,29.148926,5.594727c0.103027,0,0.293945-0.001953,0.574219-0.006836
		c0.279785-0.003906,0.583008-0.015625,0.909668-0.035156c-0.009766,0.02832-0.013672,0.079102-0.013672,0.154297v0.140137v0.153809
		c0,0.064941,0.003906,0.111816,0.013672,0.140137C30.512207,6.131836,30.38623,6.125,30.254883,6.120117
		c-0.130859-0.004883-0.270996-0.007324-0.419922-0.007324h-0.687012c-0.007812,0.038086-0.02002,0.187012-0.03418,0.449219
		c-0.014648,0.26123-0.025879,0.571777-0.034668,0.931152c-0.010254,0.358887-0.01709,0.734863-0.020996,1.126953
		c-0.003906,0.391602-0.007324,0.741211-0.007324,1.049805c0,0.261719,0.007324,0.517578,0.020996,0.769531
		c0.01416,0.251953,0.058105,0.479492,0.133301,0.679688c0.07373,0.201172,0.187012,0.361328,0.335938,0.482422
		s0.36377,0.182617,0.644043,0.182617c0.074707,0,0.174805-0.008789,0.301758-0.02832
		c0.125977-0.019531,0.235352-0.041992,0.328125-0.070312v0.335938c-0.157715,0.02832-0.333008,0.063477-0.523926,0.105469
		s-0.375977,0.0625-0.553223,0.0625c-0.588867,0-1.021973-0.144531-1.302734-0.433594
		c-0.279297-0.289062-0.419922-0.713867-0.419922-1.273438c0-0.251953,0.004883-0.525391,0.014648-0.819336
		c0.009277-0.293945,0.020996-0.616211,0.03418-0.96582c0.015137-0.350098,0.025879-0.737305,0.035156-1.162109
		c0.009766-0.425293,0.014648-0.897949,0.014648-1.420898h-0.447754c-0.075195,0-0.153809,0.001953-0.237793,0.006836
		c-0.084473,0.004883-0.17334,0.011719-0.266113,0.020996c0.008789-0.056152,0.016113-0.109863,0.020996-0.161133
		c0.004883-0.050781,0.006836-0.10498,0.006836-0.161133c0-0.045898-0.001953-0.092773-0.006836-0.139648
		c-0.004883-0.047363-0.012207-0.093262-0.020996-0.140137c0.419922,0.027832,0.728027,0.041992,0.923828,0.041992
		c-0.009766-0.187012-0.01709-0.419922-0.020996-0.700195c-0.004883-0.279785-0.016113-0.568848-0.03418-0.867676l1.161133-0.490234
		h0.069336V3.522949z"/>
	<path fill="#45474C" d="M32.794922,7.12793c0.200195-0.442871,0.463867-0.802734,0.791016-1.078125
		c0.326172-0.274902,0.692871-0.475586,1.099121-0.601562c0.405762-0.125977,0.810059-0.189453,1.210938-0.189453
		c0.411133,0,0.816895,0.063477,1.219238,0.189453c0.399902,0.125977,0.764648,0.32666,1.091797,0.601562
		c0.326172,0.275391,0.589844,0.635254,0.791016,1.078125c0.200195,0.442871,0.300781,0.981934,0.300781,1.617188
		c0,0.634766-0.101074,1.173828-0.300781,1.616211c-0.201172,0.443359-0.464844,0.803711-0.791016,1.078125
		c-0.327148,0.275391-0.690918,0.469727-1.091797,0.582031c-0.401367,0.111328-0.808105,0.167969-1.219238,0.167969
		c-0.400879,0-0.805176-0.056641-1.210938-0.167969c-0.405273-0.112305-0.771973-0.306641-1.099121-0.582031
		c-0.327148-0.274414-0.59082-0.634766-0.791016-1.078125c-0.201172-0.442383-0.300781-0.981445-0.300781-1.616211
		C32.494141,8.109863,32.594238,7.572266,32.794922,7.12793z M33.831055,9.878906
		c0.069824,0.364258,0.187988,0.6875,0.355957,0.972656s0.393066,0.511719,0.672852,0.679688
		c0.279297,0.167969,0.625,0.251953,1.035156,0.251953c0.411133,0,0.756836-0.083984,1.036133-0.251953
		c0.279785-0.167969,0.503906-0.394531,0.671875-0.679688s0.287109-0.608398,0.356934-0.972656
		c0.069824-0.363281,0.104004-0.742188,0.104004-1.133789c0-0.39209-0.03418-0.77002-0.104004-1.134277
		c-0.069824-0.36377-0.188965-0.687988-0.356934-0.972656c-0.167969-0.285156-0.39209-0.51123-0.671875-0.679199
		c-0.279297-0.167969-0.625-0.251953-1.036133-0.251953c-0.410156,0-0.755859,0.083984-1.035156,0.251953
		c-0.279785,0.167969-0.504883,0.39502-0.672852,0.679199c-0.167969,0.283691-0.286133,0.608887-0.355957,0.972656
		c-0.069824,0.364258-0.10498,0.742188-0.10498,1.134277C33.726074,9.136719,33.76123,9.515625,33.831055,9.878906z"/>
	<path fill="#45474C" d="M41.88916,6.525879c0.139648-0.284668,0.333008-0.52002,0.581055-0.707031
		c0.246094-0.187012,0.53125-0.32666,0.853516-0.419922c0.322266-0.092773,0.665039-0.140137,1.029297-0.140137
		c0.176758,0,0.347656,0.005371,0.510742,0.01416c0.163086,0.009277,0.371094,0.022949,0.623047,0.041992
		c0.21582,0.019043,0.40625,0.033203,0.574219,0.041992c0.167969,0.009277,0.302734,0.01416,0.405273,0.01416
		c0.522461,0,0.900391-0.022949,1.134766-0.070312c-0.009766,0.047363-0.017578,0.096191-0.021484,0.147461
		C47.575684,5.5,47.57373,5.548828,47.57373,5.594727c0,0.046387,0.001953,0.096191,0.005859,0.147461
		c0.005859,0.050781,0.011719,0.099609,0.021484,0.146973c-0.271484-0.019043-0.53418-0.040039-0.791016-0.062988
		c-0.256836-0.023438-0.511719-0.040039-0.763672-0.049316l-0.027344,0.02832
		c0.289062,0.158691,0.521484,0.403809,0.700195,0.734863c0.176758,0.332031,0.265625,0.673828,0.265625,1.028809
		c0,0.700195-0.235352,1.249512-0.707031,1.64502c-0.47168,0.397461-1.104492,0.594727-1.895508,0.594727
		c-0.130859,0-0.259766-0.003906-0.386719-0.013672c-0.125-0.008789-0.253906-0.013672-0.384766-0.013672
		c-0.167969,0-0.324219,0.060547-0.46875,0.181641c-0.144531,0.12207-0.216797,0.275391-0.216797,0.461914
		c0,0.243164,0.057617,0.419922,0.174805,0.532227c0.116211,0.111328,0.333984,0.172852,0.651367,0.181641
		c0.260742,0.009766,0.517578,0.016602,0.769531,0.021484s0.508789,0.011719,0.769531,0.021484
		c0.430664,0.007812,0.796875,0.060547,1.100586,0.15332c0.302734,0.092773,0.550781,0.219727,0.741211,0.37793
		c0.191406,0.15918,0.332031,0.341797,0.420898,0.545898c0.087891,0.206055,0.132812,0.428711,0.132812,0.672852
		c0,0.326172-0.063477,0.657227-0.188477,0.993164c-0.126953,0.335938-0.322266,0.639648-0.587891,0.910156
		c-0.266602,0.270508-0.609375,0.495117-1.029297,0.671875s-0.923828,0.266602-1.511719,0.266602
		c-0.90625,0-1.619141-0.180664-2.142578-0.539062c-0.523438-0.359375-0.78418-0.852539-0.78418-1.477539
		c0-0.243164,0.043945-0.466797,0.133789-0.671875c0.087891-0.206055,0.202148-0.386719,0.34375-0.545898
		c0.139648-0.15918,0.296875-0.285156,0.475586-0.37793c0.176758-0.094727,0.358398-0.163086,0.545898-0.209961v-0.02832
		c-0.289062-0.083984-0.508789-0.223633-0.658203-0.419922c-0.148438-0.196289-0.223633-0.428711-0.223633-0.700195
		c0-0.158203,0.030273-0.302734,0.09082-0.433594s0.138672-0.248047,0.230469-0.349609
		c0.09375-0.103516,0.201172-0.1875,0.322266-0.251953c0.121094-0.06543,0.237305-0.107422,0.350586-0.126953V9.613281
		c-0.430664-0.1875-0.766602-0.450195-1.008789-0.791016c-0.242188-0.340332-0.363281-0.768066-0.363281-1.28125
		C41.679199,7.148926,41.747559,6.812012,41.88916,6.525879z M46.157715,12.357422
		c-0.326172-0.224609-0.867188-0.335938-1.623047-0.335938c-0.699219,0-1.242188,0.113281-1.625,0.342773
		c-0.382812,0.228516-0.572266,0.641602-0.572266,1.239258c0,0.316406,0.052734,0.587891,0.160156,0.811523
		c0.106445,0.223633,0.251953,0.405273,0.43457,0.545898c0.181641,0.140625,0.397461,0.243164,0.649414,0.308594
		c0.253906,0.064453,0.523438,0.097656,0.8125,0.097656c0.279297,0,0.554688-0.038086,0.826172-0.112305
		c0.271484-0.075195,0.510742-0.186523,0.720703-0.335938s0.379883-0.337891,0.511719-0.567383
		c0.130859-0.228516,0.195312-0.501953,0.195312-0.818359C46.647949,12.974609,46.484863,12.582031,46.157715,12.357422z
		 M45.473145,6.126953c-0.280273-0.308105-0.649414-0.461914-1.106445-0.461914c-0.503906,0-0.895508,0.169922-1.175781,0.510742
		c-0.279297,0.341309-0.419922,0.796387-0.419922,1.365234c0,0.587891,0.12793,1.051758,0.384766,1.392578
		c0.257812,0.341797,0.65625,0.511719,1.197266,0.511719c0.271484,0,0.501953-0.052734,0.693359-0.161133
		c0.189453-0.107422,0.349609-0.251953,0.475586-0.43457c0.125977-0.181641,0.219727-0.391602,0.280273-0.629883
		c0.060547-0.237793,0.09082-0.487793,0.09082-0.748535C45.893066,6.882812,45.753418,6.436035,45.473145,6.126953z"/>
	<path fill="#45474C" d="M53.165527,6.394043c-0.136719-0.046875-0.273438-0.069824-0.414062-0.069824
		c-0.223633,0-0.423828,0.051758-0.601562,0.153809c-0.177734,0.103027-0.326172,0.239746-0.447266,0.413086
		c-0.123047,0.172852-0.21582,0.37793-0.28125,0.615723C51.356934,7.745117,51.32373,8,51.32373,8.27002v1.540527
		c0,0.625,0.001953,1.103516,0.007812,1.43457c0.003906,0.331055,0.020508,0.599609,0.048828,0.804688
		c-0.1875-0.018555-0.373047-0.02832-0.560547-0.02832c-0.206055,0-0.400391,0.009766-0.587891,0.02832
		c0.027344-0.317383,0.043945-0.749023,0.048828-1.294922c0.003906-0.545898,0.007812-1.214844,0.007812-2.008789V8.296875
		c0-0.36377-0.003906-0.783691-0.007812-1.259766c-0.004883-0.476074-0.021484-1.021973-0.048828-1.638184
		c0.103516,0.019043,0.200195,0.035156,0.293945,0.049316c0.092773,0.013672,0.19043,0.020508,0.293945,0.020508
		c0.083984,0,0.171875-0.006836,0.265625-0.020508c0.09375-0.01416,0.191406-0.030273,0.294922-0.049316
		c-0.037109,0.335938-0.05957,0.602051-0.0625,0.79834c-0.004883,0.195801-0.007812,0.382812-0.007812,0.55957l0.027344,0.01416
		c0.551758-1.007812,1.167969-1.512207,1.848633-1.512207c0.083984,0,0.155273,0.005371,0.217773,0.01416
		c0.060547,0.009277,0.138672,0.033203,0.230469,0.069824c-0.046875,0.112305-0.074219,0.283203-0.083984,0.51123
		c-0.009766,0.229004-0.013672,0.437012-0.013672,0.623047l-0.099609,0.069824
		C53.39209,6.492188,53.300293,6.439941,53.165527,6.394043z"/>
	<path fill="#45474C" d="M57.372559,5.426758c0.354492-0.111816,0.71875-0.167969,1.091797-0.167969
		c0.335938,0,0.644531,0.049316,0.925781,0.147461c0.279297,0.097656,0.519531,0.237793,0.71875,0.419922
		c0.198242,0.181641,0.353516,0.400879,0.46875,0.657715c0.112305,0.257324,0.169922,0.539062,0.169922,0.847168
		c0,0.531738-0.009766,1.062012-0.027344,1.588867c-0.019531,0.527344-0.02832,1.084961-0.02832,1.672852
		c0,0.112305,0.001953,0.231445,0.006836,0.357422c0.005859,0.125977,0.025391,0.237305,0.063477,0.335938
		c0.036133,0.097656,0.09082,0.179688,0.161133,0.245117c0.068359,0.064453,0.174805,0.097656,0.313477,0.097656
		c0.047852,0,0.09668-0.001953,0.147461-0.006836s0.099609-0.020508,0.145508-0.048828v0.307617
		c-0.102539,0.046875-0.229492,0.083984-0.384766,0.112305c-0.15332,0.02832-0.324219,0.041992-0.510742,0.041992
		c-0.304688,0-0.535156-0.077148-0.696289-0.230469c-0.161133-0.154297-0.255859-0.353516-0.28418-0.595703
		c-0.334961,0.335938-0.665039,0.583008-0.990234,0.742188c-0.326172,0.158203-0.725586,0.238281-1.199219,0.238281
		c-0.232422,0-0.460938-0.033203-0.68457-0.098633c-0.222656-0.06543-0.420898-0.171875-0.592773-0.321289
		c-0.171875-0.150391-0.3125-0.330078-0.418945-0.539062c-0.106445-0.210938-0.160156-0.450195-0.160156-0.72168
		c0-0.55957,0.174805-0.993164,0.522461-1.301758c0.348633-0.308594,0.830078-0.513672,1.445312-0.616211
		c0.501953-0.083984,0.894531-0.155762,1.177734-0.216797S59.247559,8.25,59.382324,8.185059s0.21582-0.14209,0.244141-0.230957
		c0.026367-0.088867,0.041016-0.203125,0.041016-0.343262c0-0.23291-0.027344-0.457031-0.083984-0.671875
		c-0.056641-0.213867-0.145508-0.400879-0.266602-0.560059c-0.121094-0.158691-0.280273-0.287109-0.475586-0.384766
		c-0.196289-0.098145-0.435547-0.146973-0.714844-0.146973c-0.373047,0-0.72168,0.083984-1.042969,0.251953
		S56.521973,6.5,56.361816,6.798828h-0.15332V6.070801C56.630371,5.753906,57.018066,5.540039,57.372559,5.426758z
		 M59.118652,8.704102c-0.208984,0.037109-0.421875,0.077148-0.634766,0.119141
		c-0.213867,0.041992-0.424805,0.095703-0.633789,0.161133C57.641113,9.048828,57.45459,9.138672,57.29248,9.25
		s-0.292969,0.250977-0.389648,0.418945c-0.097656,0.167969-0.145508,0.382812-0.145508,0.643555
		c0,0.439453,0.125,0.770508,0.375,0.994141c0.25,0.224609,0.529297,0.335938,0.836914,0.335938
		c0.352539,0,0.675781-0.097656,0.967773-0.292969c0.292969-0.197266,0.519531-0.425781,0.675781-0.686523L59.669434,8.5625
		C59.51123,8.620117,59.327637,8.666992,59.118652,8.704102z"/>
	<path fill="#45474C" d="M64.112793,8.437988c-0.004883-0.373047-0.011719-0.744141-0.021484-1.112793
		c-0.007812-0.369141-0.020508-0.721191-0.03418-1.057129c-0.014648-0.335938-0.030273-0.625-0.049805-0.868164
		c0.262695,0.047363,0.472656,0.069824,0.630859,0.069824s0.369141-0.022461,0.629883-0.069824
		c-0.037109,0.243164-0.06543,0.476074-0.083984,0.700195s-0.026367,0.447754-0.026367,0.671875h0.026367
		c0.06543-0.148926,0.15918-0.310059,0.280273-0.48291s0.277344-0.335938,0.46875-0.490234
		c0.191406-0.153809,0.422852-0.281738,0.693359-0.384766c0.269531-0.103027,0.578125-0.154297,0.923828-0.154297
		c0.353516,0,0.705078,0.068359,1.049805,0.203125c0.345703,0.135254,0.651367,0.343262,0.916992,0.623047
		c0.267578,0.280273,0.480469,0.637207,0.644531,1.071289c0.164062,0.433594,0.246094,0.949707,0.246094,1.546875
		c0,0.59668-0.089844,1.114258-0.267578,1.553711s-0.408203,0.802734-0.692383,1.091797s-0.608398,0.501953-0.973633,0.636719
		c-0.363281,0.135742-0.728516,0.203125-1.091797,0.203125c-1.026367,0-1.759766-0.442383-2.198242-1.330078h-0.026367v0.882812
		c0,0.297852,0.001953,0.631836,0.005859,1.000977c0.005859,0.368164,0.011719,0.735352,0.021484,1.098633
		c0.009766,0.364258,0.021484,0.712891,0.035156,1.042969c0.014648,0.332031,0.029297,0.614258,0.048828,0.847656
		c-0.261719-0.046875-0.470703-0.070312-0.629883-0.070312c-0.158203,0-0.368164,0.023438-0.629883,0.070312
		c0.018555-0.233398,0.035156-0.516602,0.048828-0.847656c0.015625-0.330078,0.025391-0.678711,0.035156-1.042969
		c0.009766-0.363281,0.016602-0.730469,0.021484-1.098633c0.003906-0.369141,0.005859-0.703125,0.005859-1.000977V9.474609
		C64.120605,9.15625,64.116699,8.810547,64.112793,8.437988z M68.999512,7.304199
		c-0.117188-0.364258-0.266602-0.65625-0.449219-0.875c-0.181641-0.219238-0.388672-0.371094-0.62207-0.455078
		s-0.461914-0.125977-0.686523-0.125977c-0.373047,0-0.693359,0.078613-0.958984,0.237793
		c-0.266602,0.15918-0.482422,0.371094-0.650391,0.637207s-0.289062,0.578613-0.364258,0.937988
		c-0.074219,0.358887-0.110352,0.739746-0.110352,1.140625c0,1.941406,0.679688,2.912109,2.042969,2.912109
		c0.335938,0,0.626953-0.077148,0.875-0.231445c0.248047-0.15332,0.452148-0.368164,0.616211-0.643555
		c0.163086-0.274414,0.28418-0.59668,0.363281-0.96582s0.118164-0.763672,0.118164-1.183594
		C69.17334,8.128906,69.114746,7.666992,68.999512,7.304199z"/>
	<path fill="#45474C" d="M73.354004,4.489258c-0.004883-0.373047-0.012695-0.742188-0.020508-1.106445
		c-0.010742-0.36377-0.021484-0.710938-0.035156-1.042969c-0.015625-0.331055-0.030273-0.612793-0.048828-0.84668
		c0.259766,0.046875,0.470703,0.069824,0.628906,0.069824s0.369141-0.022949,0.630859-0.069824
		c-0.019531,0.23291-0.035156,0.512695-0.048828,0.839844c-0.015625,0.327148-0.026367,0.669922-0.035156,1.028809
		c-0.009766,0.359375-0.017578,0.721191-0.021484,1.085449c-0.004883,0.36377-0.006836,0.699707-0.006836,1.007812V6.52002h0.02832
		c0.261719-0.400879,0.574219-0.710938,0.939453-0.931152c0.365234-0.21875,0.800781-0.329102,1.306641-0.329102
		c0.262695,0,0.526367,0.038086,0.792969,0.112305c0.267578,0.07373,0.508789,0.203125,0.724609,0.384766
		c0.214844,0.182129,0.390625,0.430176,0.525391,0.742188c0.136719,0.312988,0.205078,0.711914,0.205078,1.196777
		c0,0.401367-0.009766,0.813965-0.02832,1.239746c-0.018555,0.423828-0.02832,0.875-0.02832,1.350586v0.90918
		c0,0.149414,0.003906,0.296875,0.007812,0.441406c0.003906,0.145508,0.011719,0.282227,0.020508,0.413086
		c-0.188477-0.018555-0.387695-0.02832-0.594727-0.02832c-0.199219,0-0.393555,0.009766-0.582031,0.02832
		c0.019531-0.485352,0.039062-0.983398,0.0625-1.498047c0.023438-0.512695,0.035156-1.041016,0.035156-1.582031V8.116211
		c0-0.700195-0.136719-1.230469-0.40625-1.589355c-0.271484-0.358887-0.643555-0.539062-1.119141-0.539062
		c-0.654297,0-1.132812,0.201172-1.435547,0.602051c-0.304688,0.401367-0.455078,0.966309-0.455078,1.694336
		c0,0.260742,0.001953,0.563477,0.006836,0.90918c0.004883,0.34668,0.012695,0.693359,0.020508,1.042969
		c0.009766,0.350586,0.021484,0.688477,0.035156,1.015625c0.014648,0.327148,0.030273,0.592773,0.048828,0.797852
		c-0.214844-0.018555-0.423828-0.02832-0.628906-0.02832c-0.207031,0-0.416016,0.009766-0.630859,0.02832
		c0.019531-0.213867,0.035156-0.485352,0.048828-0.811523c0.014648-0.326172,0.025391-0.671875,0.035156-1.036133
		s0.016602-0.733398,0.021484-1.106445s0.006836-0.71875,0.006836-1.035645V5.524902
		C73.359863,5.208008,73.35791,4.862793,73.354004,4.489258z"/>
</g>
</svg>
