<?xml version="1.0" encoding="utf-8"?>
<!-- Generator: Adobe Illustrator 15.1.0, SVG Export Plug-In . SVG Version: 6.00 Build 0)  -->
<!DOCTYPE svg PUBLIC "-//W3C//DTD SVG 1.1//EN" "http://www.w3.org/Graphics/SVG/1.1/DTD/svg11.dtd">
<svg version="1.1" id="レイヤー_1" xmlns="http://www.w3.org/2000/svg" xmlns:xlink="http://www.w3.org/1999/xlink" x="0px"
	 y="0px" width="42px" height="16px" viewBox="0 0 42 16" enable-background="new 0 0 42 16" xml:space="preserve">
<g>
	<path fill="#45474C" d="M3.10791,10.970703c-0.153809-0.503906-0.329102-1.072266-0.524902-1.707031
		S2.182129,7.963867,1.966797,7.269043c-0.214844-0.694824-0.419922-1.358887-0.614746-1.98877
		C1.154785,4.649902,0.976074,4.083008,0.812012,3.579102S0.52002,2.702148,0.425781,2.458984
		c0.121094,0.019043,0.238281,0.035156,0.351074,0.048828c0.111328,0.01416,0.229004,0.020996,0.350098,0.020996
		s0.238281-0.006836,0.351074-0.020996c0.11084-0.013672,0.229004-0.029785,0.350098-0.048828
		c0.176758,0.708984,0.350098,1.374023,0.518066,1.995117S2.693848,5.705078,2.884766,6.34375
		C3.075195,6.983887,3.279785,7.65625,3.5,8.359863c0.220215,0.70459,0.469238,1.501465,0.749023,2.388184h0.027832
		c0.083984-0.25293,0.200195-0.599609,0.350098-1.043945c0.148926-0.442383,0.312012-0.932617,0.490234-1.470215
		c0.176758-0.536621,0.36377-1.09375,0.55957-1.672852c0.196289-0.578125,0.378418-1.130859,0.546387-1.65918
		C6.39209,4.375,6.540039,3.89502,6.670898,3.459961s0.225098-0.768066,0.280273-1.000977
		c0.187012,0.046875,0.34082,0.069824,0.461914,0.069824S7.687988,2.505859,7.875,2.458984
		c0.064941,0.251953,0.166016,0.598145,0.300781,1.036133c0.13623,0.438965,0.287109,0.926758,0.455078,1.462891
		s0.348145,1.094727,0.539062,1.672852s0.375977,1.134277,0.553223,1.666016c0.177734,0.532227,0.338867,1.013672,0.48291,1.442383
		c0.14502,0.429688,0.258789,0.765625,0.342773,1.008789h0.02832c0.064941-0.206055,0.166016-0.525391,0.300781-0.959961
		c0.13623-0.43457,0.289062-0.923828,0.461914-1.470215c0.17334-0.545898,0.351074-1.119629,0.532227-1.72168
		s0.354004-1.17627,0.518066-1.722168s0.309082-1.03418,0.435059-1.462891c0.125977-0.429199,0.211914-0.74707,0.258789-0.952148
		C13.167969,2.478027,13.25,2.494141,13.329102,2.507812c0.079102,0.01416,0.161133,0.020996,0.245117,0.020996
		s0.164551-0.006836,0.244629-0.020996c0.079102-0.013672,0.161133-0.029785,0.245117-0.048828
		c-0.09375,0.214844-0.229004,0.568848-0.405762,1.063965c-0.178223,0.495117-0.375977,1.059082-0.595215,1.693848
		c-0.220215,0.635254-0.447754,1.307129-0.687012,2.016113c-0.23877,0.708984-0.466797,1.384277-0.686035,2.021973
		c-0.219727,0.639648-0.416016,1.213867-0.587891,1.723633c-0.172852,0.507812-0.302246,0.875-0.38623,1.098633
		c-0.148926-0.018555-0.307617-0.02832-0.475586-0.02832c-0.168457,0-0.327148,0.009766-0.477051,0.02832
		C9.345215,10.780273,8.930176,9.476562,8.52002,8.165039C8.108887,6.853027,7.666016,5.498047,7.189941,4.098145H7.161133
		C7.085938,4.312012,6.98584,4.599121,6.859863,4.958008S6.594238,5.721191,6.439941,6.168945
		C6.286133,6.617188,6.120117,7.098145,5.942871,7.61084C5.766113,8.125,5.587891,8.642578,5.411133,9.166016
		C5.23291,9.6875,5.061035,10.201172,4.893066,10.705078s-0.322266,0.960938-0.462891,1.37207
		c-0.149414-0.018555-0.312012-0.02832-0.489258-0.02832c-0.177734,0-0.34082,0.009766-0.489746,0.02832
		C3.375977,11.84375,3.262207,11.474609,3.10791,10.970703z"/>
	<path fill="#45474C" d="M15.091797,7.15625c0.200195-0.443359,0.464355-0.803223,0.791016-1.078125
		c0.326172-0.275391,0.693359-0.476074,1.099121-0.602051c0.40625-0.125977,0.810059-0.188965,1.210938-0.188965
		c0.411133,0,0.816895,0.062988,1.219238,0.188965c0.399902,0.125977,0.764648,0.32666,1.091797,0.602051
		c0.326172,0.274902,0.590332,0.634766,0.791016,1.078125c0.200195,0.442871,0.300781,0.981934,0.300781,1.617188
		c0,0.634766-0.100586,1.173828-0.300781,1.617188c-0.200684,0.442383-0.464844,0.802734-0.791016,1.077148
		c-0.327148,0.275391-0.690918,0.469727-1.091797,0.580078c-0.400879,0.112305-0.808105,0.167969-1.219238,0.167969
		c-0.400879,0-0.804688-0.055664-1.210938-0.167969c-0.404785-0.110352-0.771973-0.304688-1.099121-0.580078
		c-0.32666-0.274414-0.59082-0.634766-0.791016-1.077148c-0.200684-0.443359-0.300781-0.982422-0.300781-1.617188
		C14.791016,8.138184,14.891113,7.600098,15.091797,7.15625z M16.12793,9.907227
		c0.070312,0.364258,0.187988,0.6875,0.355957,0.973633c0.167969,0.28418,0.393066,0.509766,0.67334,0.677734
		c0.278809,0.169922,0.625,0.253906,1.034668,0.253906c0.411133,0,0.757324-0.083984,1.036133-0.253906
		c0.279785-0.167969,0.503906-0.393555,0.671875-0.677734c0.167969-0.285156,0.287109-0.609375,0.356934-0.973633
		c0.070312-0.365234,0.104004-0.741211,0.104004-1.133789S20.327148,8.00293,20.256836,7.63916
		c-0.069824-0.364258-0.188965-0.687988-0.356934-0.973145s-0.39209-0.510742-0.671875-0.679199
		c-0.278809-0.167969-0.625-0.251953-1.036133-0.251953c-0.409668,0-0.755859,0.083984-1.034668,0.251953
		c-0.280273,0.168457-0.505371,0.39502-0.67334,0.679199S16.198242,7.274902,16.12793,7.63916
		c-0.069824,0.36377-0.10498,0.741699-0.10498,1.134277C16.021973,9.166016,16.058105,9.542969,16.12793,9.907227z"/>
	<path fill="#45474C" d="M27.174805,6.420898c-0.136719-0.046875-0.272461-0.069824-0.413086-0.069824
		c-0.223633,0-0.424805,0.051758-0.602539,0.153809c-0.178711,0.102051-0.326172,0.240234-0.447266,0.413086
		c-0.123047,0.172852-0.214844,0.37793-0.280273,0.616211c-0.064453,0.237793-0.098633,0.492676-0.098633,0.762695v1.541016
		c0,0.625,0.001953,1.103516,0.007812,1.435547c0.004883,0.330078,0.020508,0.599609,0.049805,0.804688
		c-0.188477-0.019531-0.373047-0.02832-0.561523-0.02832c-0.205078,0-0.399414,0.010742-0.587891,0.02832
		c0.026367-0.317383,0.044922-0.749023,0.048828-1.294922c0.003906-0.546875,0.007812-1.216797,0.007812-2.009766V8.325195
		c0-0.364258-0.003906-0.78418-0.007812-1.260254s-0.020508-1.021973-0.048828-1.638184
		c0.104492,0.019043,0.200195,0.035156,0.294922,0.049316c0.091797,0.01416,0.188477,0.020996,0.292969,0.020996
		c0.083984,0,0.171875-0.006836,0.266602-0.020996c0.09375-0.01416,0.19043-0.030273,0.294922-0.049316
		c-0.037109,0.336426-0.05957,0.602051-0.0625,0.79834c-0.005859,0.195801-0.007812,0.382812-0.007812,0.560059l0.027344,0.013672
		c0.550781-1.007812,1.167969-1.511719,1.847656-1.511719c0.083984,0,0.15625,0.004883,0.21875,0.013672
		c0.060547,0.009277,0.136719,0.033203,0.230469,0.070312c-0.046875,0.111816-0.074219,0.282715-0.083984,0.510742
		c-0.010742,0.229004-0.014648,0.437012-0.014648,0.623047l-0.100586,0.070312
		C27.402344,6.52002,27.310547,6.467773,27.174805,6.420898z"/>
	<path fill="#45474C" d="M30.199219,4.51709c-0.005859-0.373047-0.011719-0.742188-0.021484-1.105957
		c-0.009766-0.364258-0.020508-0.710938-0.035156-1.042969c-0.013672-0.331055-0.029297-0.613281-0.048828-0.847168
		c0.261719,0.046875,0.470703,0.069824,0.630859,0.069824c0.158203,0,0.367188-0.022949,0.628906-0.069824
		c-0.017578,0.23291-0.035156,0.516113-0.048828,0.847168c-0.013672,0.332031-0.025391,0.678711-0.035156,1.042969
		c-0.009766,0.36377-0.015625,0.73291-0.020508,1.105957c-0.003906,0.374023-0.005859,0.71875-0.005859,1.035645v2.54834
		c0,0.177734,0.054688,0.266113,0.167969,0.266113c0.073242,0,0.155273-0.032227,0.243164-0.098145
		c0.09082-0.064941,0.189453-0.140137,0.301758-0.224121c0.083984-0.064941,0.227539-0.190918,0.427734-0.37793
		c0.201172-0.187012,0.424805-0.403809,0.672852-0.650879s0.501953-0.51123,0.763672-0.791016
		c0.259766-0.280273,0.498047-0.545898,0.712891-0.79834c0.1875,0.047363,0.365234,0.070312,0.533203,0.070312
		c0.101562,0,0.205078-0.006836,0.306641-0.020996c0.103516-0.01416,0.234375-0.030273,0.392578-0.049316
		c-0.587891,0.476074-1.149414,0.945312-1.6875,1.407227s-1.046875,0.931152-1.533203,1.407227
		c0.533203,0.643555,1.080078,1.288086,1.646484,1.932617c0.563477,0.644531,1.140625,1.27832,1.728516,1.90332
		c-0.158203-0.018555-0.300781-0.02832-0.427734-0.02832c-0.125,0-0.25,0-0.371094,0c-0.101562,0-0.214844,0-0.335938,0
		s-0.246094,0.009766-0.376953,0.02832c-0.205078-0.233398-0.439453-0.506836-0.701172-0.819336
		c-0.259766-0.3125-0.519531-0.623047-0.775391-0.930664c-0.257812-0.307617-0.501953-0.59668-0.736328-0.868164
		c-0.231445-0.269531-0.433594-0.494141-0.601562-0.671875C31.566406,8.75,31.533203,8.716797,31.496094,8.689453
		c-0.037109-0.02832-0.074219-0.042969-0.113281-0.042969c-0.091797,0-0.138672,0.056641-0.138672,0.167969v0.84082
		c0,0.419922,0.005859,0.829102,0.021484,1.225586c0.013672,0.396484,0.042969,0.794922,0.089844,1.196289
		c-0.214844-0.018555-0.423828-0.02832-0.628906-0.02832c-0.207031,0-0.416016,0.009766-0.630859,0.02832
		c0.019531-0.213867,0.03418-0.485352,0.048828-0.811523c0.013672-0.328125,0.024414-0.672852,0.035156-1.037109
		c0.009766-0.363281,0.015625-0.732422,0.020508-1.105469C30.204102,8.75,30.206055,8.405273,30.206055,8.086914v-2.53418
		C30.205078,5.23584,30.203125,4.891113,30.199219,4.51709z"/>
	<path fill="#45474C" d="M38.431641,11.083984c0.097656,0.111328,0.214844,0.216797,0.349609,0.314453
		c0.134766,0.09668,0.289062,0.179688,0.462891,0.244141c0.171875,0.06543,0.355469,0.098633,0.552734,0.098633
		c0.175781,0,0.347656-0.02832,0.509766-0.083984c0.164062-0.055664,0.30957-0.135742,0.436523-0.237305
		c0.125-0.103516,0.224609-0.234375,0.300781-0.392578c0.074219-0.158203,0.110352-0.341797,0.110352-0.546875
		c0-0.289062-0.081055-0.510742-0.243164-0.664062C40.74707,9.662109,40.543945,9.536133,40.301758,9.4375
		c-0.243164-0.098633-0.509766-0.18457-0.798828-0.257812C39.211914,9.103516,38.947266,9,38.705078,8.864258
		c-0.244141-0.135742-0.447266-0.31543-0.609375-0.539062c-0.164062-0.224121-0.246094-0.532227-0.246094-0.924316
		c0-0.308105,0.052734-0.589844,0.154297-0.84668c0.103516-0.256348,0.251953-0.478027,0.449219-0.665039
		c0.195312-0.187012,0.4375-0.333008,0.726562-0.440918c0.289062-0.107422,0.621094-0.161133,0.994141-0.161133
		c0.345703,0,0.636719,0.046875,0.875,0.139648c0.238281,0.093262,0.464844,0.177246,0.679688,0.252441
		c-0.074219,0.139648-0.144531,0.312988-0.210938,0.518066c-0.063477,0.205566-0.106445,0.36377-0.125,0.475586h-0.167969
		c-0.076172-0.223633-0.220703-0.424805-0.433594-0.602051c-0.214844-0.176758-0.482422-0.265625-0.798828-0.265625
		c-0.140625,0-0.279297,0.022949-0.419922,0.069824s-0.265625,0.117188-0.378906,0.209961
		c-0.111328,0.092773-0.205078,0.214844-0.279297,0.364258c-0.074219,0.148926-0.111328,0.32666-0.111328,0.531738
		c0,0.299316,0.082031,0.529785,0.244141,0.692871c0.164062,0.164062,0.367188,0.291992,0.609375,0.385254
		c0.242188,0.09375,0.507812,0.174805,0.798828,0.245117c0.289062,0.069824,0.554688,0.167969,0.796875,0.293457
		c0.242188,0.126953,0.445312,0.300781,0.609375,0.524414c0.162109,0.225586,0.244141,0.532227,0.244141,0.923828
		c0,0.270508-0.05957,0.537109-0.173828,0.798828c-0.117188,0.262695-0.285156,0.496094-0.503906,0.707031
		c-0.22168,0.208984-0.484375,0.373047-0.791016,0.490234c-0.30957,0.115234-0.658203,0.173828-1.051758,0.173828
		c-0.430664,0-0.789062-0.041016-1.078125-0.125s-0.530273-0.182617-0.729492-0.294922
		c0.057617-0.121094,0.115234-0.287109,0.176758-0.496094c0.061523-0.210938,0.091797-0.384766,0.091797-0.524414h0.167969
		C38.261719,10.869141,38.333008,10.970703,38.431641,11.083984z"/>
</g>
</svg>
