<?xml version="1.0" encoding="utf-8"?>
<!-- Generator: Adobe Illustrator 15.1.0, SVG Export Plug-In . SVG Version: 6.00 Build 0)  -->
<!DOCTYPE svg PUBLIC "-//W3C//DTD SVG 1.1//EN" "http://www.w3.org/Graphics/SVG/1.1/DTD/svg11.dtd">
<svg version="1.1" id="レイヤー_1" xmlns="http://www.w3.org/2000/svg" xmlns:xlink="http://www.w3.org/1999/xlink" x="0px"
	 y="0px" width="40px" height="18px" viewBox="0 0 40 18" enable-background="new 0 0 40 18" xml:space="preserve">
<g>
	<path fill="#45474C" d="M6.613,9.09C6.508,8.76,6.448,8.715,5.998,8.715H3.733c-0.375,0-0.466,0.045-0.57,0.36L2.637,10.65
		c-0.225,0.674-0.33,1.08-0.33,1.244c0,0.18,0.075,0.271,0.436,0.301l0.495,0.045c0.104,0.074,0.104,0.314-0.03,0.375
		c-0.39-0.03-0.855-0.03-1.56-0.045c-0.495,0-1.035,0.029-1.44,0.045c-0.09-0.061-0.12-0.301-0.03-0.375l0.495-0.045
		c0.36-0.03,0.69-0.195,0.9-0.735c0.27-0.69,0.689-1.665,1.319-3.345l1.53-4.05C4.633,3.525,4.722,3.24,4.677,3
		c0.36-0.105,0.615-0.375,0.78-0.57c0.09,0,0.195,0.03,0.225,0.135c0.195,0.66,0.436,1.35,0.66,2.01l2.055,6.03
		c0.436,1.289,0.63,1.514,1.275,1.59l0.405,0.045c0.104,0.074,0.074,0.314,0,0.375c-0.615-0.03-1.141-0.045-1.815-0.045
		c-0.72,0-1.29,0.029-1.725,0.045c-0.12-0.061-0.136-0.301-0.03-0.375l0.435-0.045c0.315-0.03,0.525-0.121,0.525-0.271
		c0-0.165-0.075-0.435-0.195-0.795L6.613,9.09z M3.642,7.755c-0.12,0.345-0.104,0.36,0.315,0.36h1.845
		c0.436,0,0.465-0.06,0.33-0.465l-0.81-2.445C5.203,4.845,5.068,4.44,4.977,4.26H4.948c-0.045,0.075-0.195,0.435-0.36,0.885
		L3.642,7.755z"/>
	<path fill="#45474C" d="M11.937,4.11c0-0.885-0.015-0.975-0.465-1.245l-0.15-0.09c-0.074-0.045-0.074-0.255,0-0.3
		c0.346-0.135,1.065-0.33,1.636-0.63c0.06,0,0.12,0.03,0.149,0.09c-0.029,0.525-0.06,1.2-0.06,1.86V6.63
		c0,0.255,0.06,0.315,0.149,0.315c0.391-0.225,0.99-0.495,1.726-0.495c1.71,0,2.864,1.29,2.864,2.94
		c0,1.995-1.439,3.389-3.449,3.389c-0.556,0-0.976-0.104-1.275-0.194c-0.314-0.104-0.51-0.195-0.63-0.195s-0.24,0.12-0.314,0.226
		c-0.016,0.015-0.03,0.015-0.061,0.015c-0.06,0-0.12-0.03-0.15-0.09c0.016-0.21,0.03-0.495,0.03-1.275V4.11z M13.048,10.529
		c0,0.525,0.12,0.99,0.375,1.306s0.66,0.495,1.14,0.495c1.41,0,1.965-1.2,1.965-2.49c0-1.545-0.795-2.745-2.279-2.745
		c-0.45,0-0.811,0.105-1.021,0.24c-0.149,0.105-0.18,0.27-0.18,0.855V10.529z"/>
	<path fill="#45474C" d="M26.082,9.555c0,1.875-1.29,3.225-3.164,3.225c-1.726,0-3.075-1.215-3.075-3.09
		c0-1.89,1.425-3.239,3.194-3.239C24.718,6.45,26.082,7.71,26.082,9.555z M22.857,6.9c-0.99,0-1.725,0.945-1.725,2.595
		c0,1.364,0.614,2.835,1.935,2.835s1.725-1.381,1.725-2.535C24.792,8.52,24.282,6.9,22.857,6.9z"/>
	<path fill="#45474C" d="M29.487,10.365c0,1.035,0.256,1.725,1.396,1.725c0.405,0,0.886-0.165,1.215-0.45
		c0.195-0.18,0.3-0.405,0.3-0.87V8.31c0-0.975-0.104-1.005-0.555-1.185L31.647,7.05c-0.104-0.06-0.104-0.27,0.016-0.33
		c0.6-0.015,1.425-0.12,1.755-0.27c0.075,0.015,0.12,0.045,0.135,0.105c-0.03,0.285-0.045,0.75-0.045,1.305v2.52
		c0,1.185,0.045,1.635,0.465,1.635c0.181,0,0.375-0.03,0.585-0.075c0.09,0.075,0.105,0.375-0.015,0.436
		c-0.585,0.119-1.455,0.27-1.966,0.555c-0.074,0-0.149-0.045-0.18-0.105V12.21c0-0.136-0.045-0.21-0.135-0.21
		c-0.449,0.285-1.186,0.779-2.07,0.779c-1.319,0-1.814-0.66-1.814-1.875V8.4c0-0.945,0-1.08-0.449-1.275L27.748,7.05
		c-0.09-0.075-0.075-0.285,0.03-0.33c0.689-0.015,1.274-0.15,1.604-0.27c0.091,0.015,0.136,0.045,0.149,0.105
		c-0.029,0.255-0.045,0.57-0.045,1.305V10.365z"/>
	<path fill="#45474C" d="M38.052,7.29c-0.254,0-0.27,0.045-0.27,0.36v2.805c0,0.869,0.105,1.664,1.096,1.664
		c0.149,0,0.285-0.029,0.404-0.074c0.135-0.045,0.33-0.21,0.375-0.21c0.12,0,0.18,0.165,0.15,0.255
		c-0.27,0.314-0.811,0.689-1.575,0.689c-1.29,0-1.56-0.719-1.56-1.619V7.725c0-0.405-0.016-0.435-0.315-0.435h-0.42
		c-0.09-0.06-0.104-0.225-0.045-0.315c0.435-0.135,0.81-0.33,0.96-0.465c0.195-0.18,0.48-0.585,0.63-0.885
		c0.075-0.03,0.255-0.03,0.315,0.075v0.675c0,0.27,0.015,0.285,0.27,0.285h1.665c0.18,0.135,0.149,0.54,0.015,0.63H38.052z"/>
</g>
</svg>
