<?xml version="1.0" encoding="utf-8"?>
<!-- Generator: Adobe Illustrator 15.1.0, SVG Export Plug-In . SVG Version: 6.00 Build 0)  -->
<!DOCTYPE svg PUBLIC "-//W3C//DTD SVG 1.1//EN" "http://www.w3.org/Graphics/SVG/1.1/DTD/svg11.dtd">
<svg version="1.1" id="レイヤー_1" xmlns="http://www.w3.org/2000/svg" xmlns:xlink="http://www.w3.org/1999/xlink" x="0px"
	 y="0px" width="42px" height="18px" viewBox="0 -3 42 18" enable-background="new 0 -3 42 18" xml:space="preserve">
<path fill="#45474C" d="M0.839355-0.111328C0.749512-0.202148,0.76416-0.412109,0.884277-0.47168
	c0.404785,0.030273,1.080078,0.044922,1.544922,0.044922c0.419922,0,1.185059-0.014648,1.709961-0.044922
	c0.134766,0.044922,0.120117,0.254883,0.029785,0.360352L3.824219-0.082031C3.509277-0.051758,3.329102,0.038086,3.329102,0.172852
	c0,0.180664,0.314941,0.945312,0.780273,2.010742c0.839844,1.875,1.724609,3.749023,2.594727,5.594727
	c0.359863-0.75,0.765137-1.589844,1.154785-2.430664c0.135254-0.28418,0.240234-0.540039,0.240234-0.614258
	c0-0.075195-0.044922-0.209961-0.120117-0.390625C7.454102,3.143555,6.898926,1.943359,6.329102,0.743164
	C6.104004,0.27832,5.878906-0.037109,5.369141-0.082031L5.009277-0.111328C4.904297-0.231445,4.918945-0.412109,5.039062-0.47168
	c0.435059,0.030273,1.004883,0.044922,1.60498,0.044922c0.75,0,1.305176-0.014648,1.649902-0.044922
	c0.10498,0.044922,0.120117,0.240234,0.030273,0.360352L7.934082-0.082031C7.349121-0.037109,7.333984,0.068359,7.619141,0.743164
	c0.314941,0.735352,0.734863,1.679688,1.154785,2.610352c0.285156-0.584961,0.555176-1.155273,0.884766-1.964844
	c0.540039-1.275391,0.465332-1.44043-0.014648-1.470703L9.193848-0.111328c-0.10498-0.150391-0.074707-0.31543,0.030273-0.360352
	c0.404785,0.030273,0.85498,0.044922,1.409668,0.044922c0.495117,0,1.095215-0.014648,1.439941-0.044922
	c0.10498,0.044922,0.120117,0.240234,0.030273,0.360352l-0.435059,0.029297c-0.629883,0.044922-0.899902,0.720703-1.22998,1.334961
	c-0.314941,0.555664-0.944824,1.860352-1.169922,2.384766C9.193848,3.788086,9.133789,3.938477,9.133789,3.998047
	c0,0.060547,0.030273,0.179688,0.10498,0.360352c0.510254,1.154297,1.035156,2.279297,1.530273,3.419922
	c0.464844-1.050781,0.914551-2.100586,1.349609-3.165039c0.300293-0.719727,1.095215-2.714844,1.200195-2.985352
	c0.194824-0.540039,0.449707-1.18457,0.449707-1.364258c0-0.209961-0.179688-0.330078-0.494629-0.345703l-0.435059-0.029297
	c-0.120117-0.135742-0.10498-0.300781,0.015137-0.360352c0.569824,0.030273,0.974609,0.044922,1.439941,0.044922
	c0.569824,0,1.004883-0.014648,1.394531-0.044922c0.120117,0.044922,0.135254,0.240234,0.030273,0.360352l-0.285156,0.029297
	c-0.75,0.075195-0.884766,0.525391-1.784668,2.610352l-1.095215,2.535156c-0.659668,1.529297-1.259766,3-1.875,4.604492
	c-0.044922,0.030273-0.10498,0.044922-0.179688,0.044922c-0.075195,0-0.149902-0.014648-0.209961-0.044922
	c-0.47998-1.334961-1.350098-3.209961-1.814941-4.259766c-0.540039,1.094727-1.439941,3.014648-1.875,4.259766
	c-0.044922,0.030273-0.10498,0.044922-0.180176,0.044922c-0.074707,0-0.149902-0.014648-0.225098-0.044922
	C5.938965,9.038086,5.354004,7.688477,5.15918,7.25293C4.199219,5.167969,3.269043,3.083008,2.294434,0.998047
	C2.009277,0.382812,1.829102-0.021484,1.199219-0.082031L0.839355-0.111328z"/>
<path fill="#45474C" d="M21.013672,6.458008c0,1.875-1.290039,3.224609-3.165039,3.224609
	c-1.724609,0-3.074707-1.214844-3.074707-3.089844c0-1.889648,1.424805-3.239258,3.194824-3.239258
	C19.648926,3.353516,21.013672,4.613281,21.013672,6.458008z M17.789062,3.802734c-0.990234,0-1.725098,0.945312-1.725098,2.595703
	c0,1.364258,0.614746,2.834961,1.935059,2.834961c1.319824,0,1.724609-1.380859,1.724609-2.535156
	C19.723633,5.422852,19.213867,3.802734,17.789062,3.802734z"/>
<path fill="#45474C" d="M23.564453,5.167969c0-0.584961,0-0.660156-0.405273-0.929688l-0.134766-0.089844
	c-0.05957-0.060547-0.05957-0.225586,0.014648-0.270508c0.345703-0.120117,1.140625-0.509766,1.515625-0.734375
	c0.074219,0.014648,0.119141,0.044922,0.119141,0.104492v0.870117c0,0.075195,0.015625,0.120117,0.044922,0.134766
	c0.525391-0.43457,1.095703-0.899414,1.650391-0.899414c0.375,0,0.674805,0.239258,0.674805,0.599609
	c0,0.495117-0.405273,0.69043-0.645508,0.69043c-0.149414,0-0.224609-0.045898-0.330078-0.105469
	c-0.224609-0.150391-0.449219-0.240234-0.65918-0.240234c-0.240234,0-0.419922,0.135742-0.540039,0.299805
	c-0.150391,0.209961-0.195312,0.645508-0.195312,1.155273v2.040039c0,1.080078,0.030273,1.260742,0.599609,1.305664
	l0.541016,0.044922c0.104492,0.074219,0.074219,0.330078-0.030273,0.375c-0.705078-0.030273-1.139648-0.044922-1.665039-0.044922
	c-0.540039,0-0.990234,0.014648-1.379883,0.044922c-0.104492-0.044922-0.135742-0.300781-0.030273-0.375l0.285156-0.044922
	c0.554688-0.089844,0.570312-0.225586,0.570312-1.305664V5.167969z"/>
<path fill="#45474C" d="M29.489258,1.013672c0-0.885742-0.014648-0.975586-0.464844-1.245117L28.875-0.321289
	c-0.076172-0.044922-0.076172-0.255859,0-0.300781c0.375-0.119141,1.080078-0.344727,1.619141-0.629883
	c0.060547,0,0.120117,0.030273,0.150391,0.089844c-0.015625,0.450195-0.044922,1.200195-0.044922,1.860352v5.144531
	c0,0.195312,0.014648,0.225586,0.269531,0.225586c0.330078,0,0.615234-0.165039,1.019531-0.584961l0.615234-0.660156
	c0.419922-0.450195,0.525391-0.615234,0.525391-0.69043c0-0.074219-0.075195-0.120117-0.330078-0.149414l-0.359375-0.044922
	c-0.135742-0.044922-0.135742-0.330078,0-0.375h0.34375c0.660156,0,1.544922-0.030273,2.385742-0.120117
	c0.104492,0.044922,0.120117,0.299805,0.030273,0.375l-0.480469,0.089844c-0.299805,0.05957-0.554688,0.209961-0.945312,0.525391
	c-0.583984,0.464844-1.094727,1.004883-1.365234,1.259766c-0.179688,0.165039-0.194336,0.239258-0.104492,0.359375
	c0.254883,0.345703,0.495117,0.629883,1.004883,1.200195c0.585938,0.660156,1.110352,1.245117,1.410156,1.530273
	c0.209961,0.194336,0.509766,0.285156,0.779297,0.330078l0.210938,0.030273c0.105469,0.074219,0.089844,0.330078-0.030273,0.375
	c-0.43457-0.030273-0.944336-0.044922-1.424805-0.044922c-0.599609,0-1.125,0.014648-1.560547,0.044922
	c-0.119141-0.060547-0.134766-0.31543-0.029297-0.375l0.269531-0.044922c0.224609-0.030273,0.375-0.060547,0.375-0.150391
	s-0.05957-0.195312-0.254883-0.419922l-1.604492-1.860352c-0.134766-0.150391-0.300781-0.209961-0.464844-0.209961
	c-0.270508,0-0.285156,0.044922-0.285156,0.509766v0.825195c0,1.080078,0.029297,1.229492,0.570312,1.305664l0.359375,0.044922
	c0.105469,0.074219,0.075195,0.330078-0.029297,0.375c-0.496094-0.030273-0.930664-0.044922-1.455078-0.044922
	c-0.541016,0-0.990234,0.014648-1.44043,0.044922C28.5,9.473633,28.46875,9.217773,28.589844,9.143555l0.330078-0.044922
	c0.554688-0.076172,0.569336-0.225586,0.569336-1.305664V1.013672z"/>
<path fill="#45474C" d="M40.933594,3.623047c0.134766,0.330078,0.240234,0.810547,0.240234,1.214844
	c-0.05957,0.105469-0.285156,0.134766-0.359375,0.044922c-0.255859-0.660156-0.705078-1.094727-1.320312-1.094727
	c-0.584961,0-0.959961,0.375-0.959961,0.915039c0,0.615234,0.629883,0.945312,1.155273,1.245117
	c0.794922,0.450195,1.529297,0.959961,1.529297,2.025391c0,1.139648-1.049805,1.708984-2.160156,1.708984
	c-0.705078,0-1.229492-0.149414-1.604492-0.449219c-0.120117-0.285156-0.209961-1.019531-0.179688-1.515625
	c0.075195-0.089844,0.269531-0.104492,0.344727-0.014648c0.254883,0.825195,0.734375,1.544922,1.589844,1.544922
	c0.540039,0,1.004883-0.31543,1.004883-0.959961c0-0.689453-0.599609-1.06543-1.155273-1.379883
	c-0.869141-0.495117-1.484375-1.020508-1.484375-1.844727c0-1.095703,0.900391-1.709961,2.040039-1.709961
	C40.244141,3.353516,40.798828,3.50293,40.933594,3.623047z"/>
</svg>
