<?xml version="1.0" encoding="utf-8"?>
<!-- Generator: Adobe Illustrator 15.1.0, SVG Export Plug-In . SVG Version: 6.00 Build 0)  -->
<!DOCTYPE svg PUBLIC "-//W3C//DTD SVG 1.1//EN" "http://www.w3.org/Graphics/SVG/1.1/DTD/svg11.dtd">
<svg version="1.1" id="レイヤー_1" xmlns="http://www.w3.org/2000/svg" xmlns:xlink="http://www.w3.org/1999/xlink" x="0px"
	 y="0px" width="36.831px" height="63.889px" viewBox="0 0 36.831 63.889" enable-background="new 0 0 36.831 63.889"
	 xml:space="preserve">
<g>
	<path fill-rule="evenodd" clip-rule="evenodd" fill="#686B72" d="M17.021,63.149c-0.194-0.342-0.076,0.551-0.209,0.734
		c-0.089-0.037,0.019-0.31,0.008-0.442c-0.088-0.021-0.043,0.219-0.076,0.308c0.31-4.514,0.319-8.665,0.597-13.692
		c0.001-0.092-0.121-0.037-0.11-0.139c0.123-0.649,0.092-1.41,0.221-1.996c-0.004-0.086-0.098-0.063-0.159-0.079
		c0.267-2.63-0.167-5.333,0.237-8.181c-0.003-0.086-0.097-0.062-0.157-0.08c0.063-1.497-0.071-2.512,0.131-3.835
		c-0.004-0.087-0.098-0.063-0.159-0.081c0.211-0.73-0.055-1.512,0.069-2.138c0-0.092-0.12-0.036-0.11-0.138
		c0.088-0.817,0.041-1.303,0.181-2.002c0.001-0.073-0.071-0.06-0.118-0.076c0.176-1.109-0.012-2.573,0.139-3.897
		c-0.355,1.047,0.009-1.102,0.015-1.261c-0.258-0.347,0.134-1.052-0.179-1.408c0.154-0.577,0.025-1.171,0.138-1.624
		c0.006-0.118-0.135-0.055-0.151-0.143c0.096-0.351,0.066-0.73,0.171-1.182c-0.002-0.085-0.097-0.064-0.157-0.079
		c0.229-1.992-0.086-3.397,0.152-5.16c-0.004-0.085-0.097-0.062-0.159-0.079c0.223-1.271,0.012-1.982,0.167-3.389
		c0.001-0.075-0.07-0.062-0.118-0.076c0.211-1.197-0.029-2.533,0.125-3.395c-0.208-0.219-0.057-0.843,0.014-1.26
		c-0.093-0.687,0.038-1.773,0.037-2.584c-0.002-0.751-0.039-1.529-0.028-2.402c0.015-1.051,0.089-2.117,0.25-3.379
		c0.128,0.577,0.185,1.436,0.053,2.151c0,0.091,0.122,0.036,0.111,0.138c-0.198,1.194,0.077,2.287-0.077,3.338
		c-0.001,0.09,0.121,0.034,0.11,0.138c-0.051,0.391-0.149,0.954-0.013,1.26c-0.14,2.326-0.026,4.637-0.141,7.306
		c-0.001,0.074,0.07,0.061,0.117,0.075c-0.222,0.689,0.078,1.485-0.11,2.134c0,0.091,0.121,0.036,0.11,0.138
		c-0.176,1.373,0.052,2.059-0.119,3.333c-0.002,0.073,0.069,0.061,0.118,0.076c-0.2,1.01,0.049,1.724-0.119,2.953
		c-0.001,0.073,0.07,0.06,0.118,0.075c-0.109,1.32,0.056,2.779-0.105,4.344c0.089,0.021,0.043-0.22,0.077-0.308
		c0.055,0.647,0.016,1.551-0.022,2.46c-0.001,0.073,0.07,0.06,0.117,0.074c-0.144,0.426,0.02,0.773-0.138,1.248
		c0,0.089,0.12,0.034,0.109,0.138c-0.103,1.687,0.036,2.94-0.098,4.659c-0.001,0.073,0.069,0.062,0.119,0.077
		c-0.149,1.095-0.026,1.771-0.202,2.944c-0.001,0.073,0.069,0.062,0.117,0.076c-0.109,1.644,0.149,2.346-0.055,4.286
		c-0.002,0.073,0.068,0.062,0.118,0.074c-0.194,1.129,0.004,1.892-0.167,3.393c-0.001,0.072,0.069,0.059,0.118,0.075
		c-0.057,0.913-0.178,1.868-0.084,2.642C17.478,55.031,17.843,57.576,17.021,63.149z"/>
	<path fill-rule="evenodd" clip-rule="evenodd" fill="#686B72" d="M16.893,63.33c-0.269-0.053,0.087,0.249,0.019,0.379
		c-0.092,0.022-0.07-0.131-0.118-0.179c-0.084,0.029,0.024,0.105,0.018,0.154c-0.977-1.908-2.125-3.544-3.273-5.641
		c-0.025-0.036-0.12,0.036-0.138-0.008c-0.069-0.309-0.312-0.593-0.355-0.879c-0.027-0.032-0.106,0.016-0.167,0.036
		c-0.492-1.147-1.635-2.028-2.062-3.319c-0.028-0.032-0.105,0.017-0.165,0.034c-0.36-0.614-0.763-0.958-0.949-1.563
		c-0.027-0.033-0.107,0.017-0.167,0.036c-0.011-0.377-0.47-0.573-0.533-0.872c-0.025-0.034-0.119,0.038-0.137-0.008
		c-0.148-0.358-0.326-0.529-0.394-0.862c-0.021-0.029-0.081,0.005-0.128,0.019c-0.151-0.51-0.727-1.007-0.959-1.593
		c-0.03,0.562-0.298-0.437-0.337-0.501c-0.33-0.027-0.172-0.472-0.554-0.479c-0.021-0.293-0.303-0.472-0.327-0.697
		c-0.027-0.05-0.139,0.034-0.177,0.006c-0.01-0.178-0.143-0.314-0.172-0.536c-0.029-0.033-0.107,0.016-0.167,0.034
		c-0.348-0.88-1.024-1.301-1.298-2.095c-0.027-0.032-0.105,0.018-0.165,0.035c-0.154-0.595-0.54-0.785-0.793-1.403
		c-0.02-0.029-0.081,0.004-0.127,0.019c-0.143-0.559-0.731-0.983-0.832-1.388c-0.249,0.001-0.288-0.308-0.338-0.502
		c-0.275-0.23-0.46-0.714-0.687-1.032c-0.211-0.294-0.461-0.585-0.693-0.934C0.436,39.173,0.207,38.723,0,38.157
		c0.277,0.173,0.566,0.487,0.649,0.824c0.024,0.035,0.117-0.039,0.137,0.008c0.155,0.553,0.708,0.865,0.859,1.344
		c0.025,0.038,0.12-0.037,0.139,0.009c0.063,0.177,0.13,0.437,0.337,0.503c0.522,0.973,1.268,1.835,1.908,2.934
		c0.018,0.03,0.081-0.007,0.125-0.021c-0.008,0.366,0.484,0.553,0.495,0.888c0.025,0.034,0.12-0.037,0.138,0.008
		c0.224,0.613,0.62,0.787,0.82,1.36c0.02,0.029,0.081-0.004,0.127-0.02c0.104,0.481,0.526,0.658,0.716,1.211
		c0.018,0.03,0.081-0.003,0.127-0.017c0.27,0.564,0.825,1.069,1.115,1.75c0.086-0.028-0.023-0.104-0.017-0.151
		c0.23,0.23,0.446,0.603,0.666,0.977c0.019,0.029,0.079-0.006,0.126-0.021c-0.012,0.229,0.231,0.297,0.221,0.551
		c0.024,0.036,0.12-0.037,0.138,0.008c0.377,0.705,0.85,1.143,1.208,1.875c0.021,0.028,0.08-0.007,0.127-0.021
		c0.171,0.494,0.471,0.708,0.637,1.244c0.021,0.028,0.081-0.006,0.128-0.02c0.36,0.692,0.787,0.86,1.143,1.71
		c0.02,0.03,0.08-0.005,0.125-0.02c0.142,0.524,0.533,0.741,0.795,1.405c0.019,0.028,0.08-0.007,0.127-0.02
		c0.203,0.383,0.359,0.808,0.66,1.074C15.045,59.943,16.083,60.792,16.893,63.33z"/>
	<path fill-rule="evenodd" clip-rule="evenodd" fill="#686B72" d="M16.752,63.476c0.279-0.04-0.116,0.26-0.062,0.401
		c0.089,0.028,0.087-0.133,0.138-0.182c0.082,0.037-0.034,0.108-0.035,0.161c1.216-1.966,2.571-3.633,3.982-5.785
		c0.029-0.038,0.115,0.046,0.141,0c0.105-0.323,0.385-0.611,0.465-0.911c0.031-0.034,0.104,0.023,0.162,0.048
		c0.635-1.188,1.895-2.053,2.482-3.396c0.029-0.033,0.104,0.023,0.162,0.048c0.437-0.631,0.885-0.973,1.146-1.604
		c0.031-0.033,0.104,0.025,0.163,0.047c0.059-0.397,0.545-0.578,0.643-0.892c0.029-0.037,0.115,0.048,0.141,0.002
		c0.191-0.371,0.392-0.543,0.502-0.893c0.021-0.031,0.079,0.011,0.125,0.028c0.215-0.533,0.855-1.025,1.16-1.632
		c-0.037,0.598,0.354-0.445,0.4-0.512c0.338-0.01,0.232-0.488,0.617-0.474c0.057-0.31,0.363-0.482,0.415-0.721
		c0.032-0.05,0.134,0.045,0.177,0.019c0.031-0.188,0.182-0.326,0.239-0.56c0.031-0.034,0.105,0.023,0.161,0.047
		c0.457-0.914,1.191-1.319,1.564-2.144c0.031-0.033,0.104,0.023,0.162,0.047c0.226-0.621,0.641-0.8,0.969-1.441
		c0.024-0.029,0.08,0.009,0.127,0.027c0.212-0.584,0.857-0.998,1.007-1.421c0.25,0.018,0.327-0.31,0.399-0.513
		c0.307-0.228,0.553-0.729,0.818-1.053c0.249-0.3,0.537-0.595,0.812-0.949c0.333-0.429,0.621-0.892,0.896-1.479
		c-0.299,0.166-0.631,0.482-0.754,0.835c-0.029,0.036-0.115-0.047-0.141,0c-0.221,0.577-0.816,0.876-1.029,1.375
		c-0.029,0.035-0.115-0.048-0.139,0.001c-0.087,0.182-0.188,0.455-0.402,0.512c-0.645,1.001-1.5,1.87-2.279,2.997
		c-0.023,0.03-0.08-0.012-0.125-0.029c-0.035,0.388-0.555,0.556-0.605,0.911c-0.029,0.036-0.116-0.047-0.14,0
		c-0.3,0.638-0.721,0.799-0.993,1.395c-0.021,0.029-0.078-0.011-0.125-0.028c-0.162,0.504-0.609,0.665-0.869,1.243
		c-0.021,0.029-0.08-0.013-0.125-0.029c-0.34,0.584-0.962,1.084-1.336,1.792c-0.083-0.037,0.035-0.109,0.035-0.161
		c-0.261,0.231-0.523,0.612-0.789,0.995c-0.023,0.03-0.078-0.01-0.125-0.028c-0.016,0.241-0.271,0.302-0.291,0.57
		c-0.029,0.036-0.115-0.047-0.141,0.001c-0.465,0.727-0.992,1.158-1.445,1.915c-0.022,0.029-0.08-0.011-0.125-0.028
		c-0.233,0.513-0.562,0.721-0.794,1.28c-0.023,0.029-0.081-0.011-0.126-0.029c-0.446,0.714-0.898,0.865-1.359,1.746
		c-0.022,0.031-0.08-0.01-0.124-0.029c-0.206,0.55-0.626,0.755-0.971,1.443c-0.022,0.029-0.079-0.012-0.125-0.029
		c-0.253,0.395-0.462,0.838-0.795,1.1C19.024,59.995,17.875,60.831,16.752,63.476z"/>
</g>
</svg>
