<?xml version="1.0" encoding="utf-8"?>
<!-- Generator: Adobe Illustrator 15.1.0, SVG Export Plug-In . SVG Version: 6.00 Build 0)  -->
<!DOCTYPE svg PUBLIC "-//W3C//DTD SVG 1.1//EN" "http://www.w3.org/Graphics/SVG/1.1/DTD/svg11.dtd">
<svg version="1.1" id="レイヤー_1" xmlns="http://www.w3.org/2000/svg" xmlns:xlink="http://www.w3.org/1999/xlink" x="0px"
	 y="0px" width="39.083px" height="39.083px" viewBox="0 0 39.083 39.083" enable-background="new 0 0 39.083 39.083"
	 xml:space="preserve">
<g>
	<polygon fill="#45474C" points="36.894,26.659 26.691,36.861 23.063,33.232 24.244,32.052 26.652,34.461 34.457,26.656 
		23.929,16.128 14.908,25.149 2.188,12.426 12.427,2.186 15.841,5.601 14.622,6.821 12.427,4.626 4.623,12.431 14.94,22.748 
		23.964,13.723 	"/>
</g>
<g>
	<g>
		<polygon fill="#45474C" points="18.128,16.731 16.336,14.939 26.653,4.623 34.458,12.428 32.263,14.622 33.482,15.842 
			36.896,12.428 26.656,2.188 13.934,14.908 16.942,17.917 		"/>
	</g>
	<g>
		<polygon fill="#45474C" points="20.956,21.93 22.955,23.93 12.428,34.458 4.623,26.653 7.031,24.245 5.85,23.063 2.222,26.691 
			12.425,36.895 25.36,23.964 22.142,20.745 		"/>
	</g>
</g>
</svg>
