<?xml version="1.0" encoding="utf-8"?>
<!-- Generator: Adobe Illustrator 15.1.0, SVG Export Plug-In . SVG Version: 6.00 Build 0)  -->
<!DOCTYPE svg PUBLIC "-//W3C//DTD SVG 1.1//EN" "http://www.w3.org/Graphics/SVG/1.1/DTD/svg11.dtd">
<svg version="1.1" id="レイヤー_1" xmlns="http://www.w3.org/2000/svg" xmlns:xlink="http://www.w3.org/1999/xlink" x="0px"
	 y="0px" width="79.538px" height="16px" viewBox="0 0 79.538 16" enable-background="new 0 0 79.538 16" xml:space="preserve">
<g>
	<path fill="#45474C" d="M1.337,4.245C1.313,3.652,1.288,3.047,1.26,2.432C1.484,2.45,1.71,2.466,1.939,2.48
		c0.229,0.014,0.454,0.021,0.679,0.021c0.112,0,0.247-0.004,0.406-0.014c0.158-0.009,0.319-0.016,0.482-0.021
		C3.67,2.462,3.826,2.455,3.976,2.445c0.149-0.009,0.275-0.014,0.378-0.014c0.141,0,0.313,0.005,0.519,0.014
		c0.205,0.01,0.422,0.038,0.651,0.084c0.229,0.047,0.454,0.117,0.679,0.21c0.224,0.094,0.427,0.229,0.608,0.406
		C6.993,3.323,7.14,3.544,7.252,3.811S7.42,4.405,7.42,4.797c0,0.616-0.133,1.116-0.398,1.498c-0.267,0.383-0.594,0.682-0.98,0.896
		C5.653,7.406,5.243,7.551,4.809,7.625C4.375,7.7,3.99,7.737,3.654,7.737c-0.215,0-0.411-0.002-0.588-0.007
		C2.889,7.726,2.707,7.714,2.52,7.695v0.77c0,0.616,0.012,1.223,0.035,1.82s0.049,1.185,0.077,1.764
		c-0.215-0.019-0.443-0.028-0.686-0.028c-0.243,0-0.472,0.009-0.687,0.028c0.028-0.579,0.054-1.167,0.077-1.764
		s0.035-1.204,0.035-1.82V6.058C1.372,5.441,1.36,4.837,1.337,4.245z M3.514,7.22c0.289,0,0.588-0.033,0.896-0.098
		C4.718,7.056,5,6.938,5.257,6.765s0.467-0.411,0.63-0.714C6.05,5.747,6.132,5.357,6.132,4.881c0-0.401-0.056-0.728-0.168-0.98
		S5.695,3.454,5.495,3.313C5.294,3.173,5.049,3.078,4.76,3.026C4.471,2.975,4.144,2.95,3.78,2.95H2.52v4.158
		C2.837,7.182,3.169,7.22,3.514,7.22z"/>
	<path fill="#45474C" d="M10.144,4.489c-0.005-0.373-0.012-0.742-0.021-1.106c-0.01-0.364-0.021-0.711-0.035-1.043
		c-0.015-0.331-0.03-0.613-0.049-0.847c0.261,0.047,0.471,0.07,0.63,0.07c0.158,0,0.368-0.023,0.63-0.07
		c-0.019,0.233-0.035,0.513-0.049,0.84c-0.015,0.327-0.026,0.67-0.035,1.029c-0.01,0.359-0.017,0.721-0.021,1.085
		c-0.005,0.364-0.007,0.7-0.007,1.008V6.52h0.028c0.262-0.401,0.575-0.711,0.94-0.931c0.365-0.219,0.801-0.329,1.307-0.329
		c0.262,0,0.526,0.038,0.793,0.112s0.508,0.203,0.724,0.385c0.215,0.182,0.391,0.43,0.526,0.742
		c0.136,0.313,0.204,0.712,0.204,1.197c0,0.401-0.01,0.814-0.028,1.239s-0.028,0.875-0.028,1.351v0.91
		c0,0.149,0.003,0.296,0.007,0.441c0.005,0.145,0.012,0.282,0.021,0.413c-0.189-0.019-0.388-0.028-0.595-0.028
		c-0.199,0-0.393,0.009-0.581,0.028c0.019-0.485,0.039-0.984,0.062-1.498c0.023-0.513,0.035-1.041,0.035-1.582V8.116
		c0-0.7-0.136-1.23-0.406-1.589c-0.271-0.359-0.644-0.539-1.12-0.539c-0.653,0-1.132,0.201-1.435,0.602
		c-0.304,0.401-0.455,0.966-0.455,1.694c0,0.261,0.002,0.564,0.007,0.91c0.005,0.346,0.012,0.693,0.021,1.043
		c0.009,0.35,0.021,0.688,0.035,1.015c0.014,0.327,0.03,0.593,0.049,0.798c-0.215-0.019-0.425-0.028-0.63-0.028
		c-0.206,0-0.416,0.009-0.63,0.028c0.019-0.214,0.034-0.485,0.049-0.812c0.014-0.326,0.025-0.672,0.035-1.036
		c0.009-0.364,0.016-0.733,0.021-1.106c0.005-0.374,0.007-0.719,0.007-1.036V5.525C10.15,5.208,10.148,4.863,10.144,4.489z"/>
	<path fill="#45474C" d="M18.739,7.128c0.2-0.443,0.464-0.803,0.791-1.078c0.326-0.275,0.693-0.476,1.099-0.602
		c0.406-0.126,0.81-0.189,1.211-0.189c0.411,0,0.817,0.063,1.219,0.189c0.4,0.126,0.765,0.327,1.092,0.602
		c0.326,0.275,0.59,0.635,0.791,1.078c0.2,0.443,0.301,0.982,0.301,1.617s-0.101,1.174-0.301,1.617
		c-0.201,0.443-0.465,0.803-0.791,1.078c-0.327,0.275-0.691,0.469-1.092,0.581c-0.401,0.112-0.808,0.168-1.219,0.168
		c-0.401,0-0.805-0.056-1.211-0.168c-0.405-0.112-0.772-0.306-1.099-0.581c-0.327-0.275-0.591-0.635-0.791-1.078
		c-0.201-0.443-0.301-0.982-0.301-1.617S18.538,7.572,18.739,7.128z M19.775,9.879c0.07,0.364,0.188,0.688,0.356,0.973
		s0.393,0.511,0.673,0.679c0.279,0.168,0.625,0.252,1.035,0.252c0.411,0,0.757-0.084,1.036-0.252
		c0.28-0.168,0.504-0.394,0.672-0.679s0.287-0.609,0.357-0.973c0.07-0.364,0.104-0.742,0.104-1.134s-0.034-0.77-0.104-1.134
		c-0.07-0.364-0.189-0.688-0.357-0.973s-0.392-0.511-0.672-0.679c-0.279-0.168-0.625-0.252-1.036-0.252
		c-0.41,0-0.756,0.084-1.035,0.252c-0.28,0.168-0.505,0.395-0.673,0.679s-0.286,0.609-0.356,0.973
		c-0.07,0.364-0.105,0.742-0.105,1.134S19.705,9.516,19.775,9.879z"/>
	<path fill="#45474C" d="M29.261,3.523c-0.028,0.355-0.049,0.703-0.062,1.043c-0.015,0.341-0.031,0.684-0.05,1.029
		c0.103,0,0.294-0.002,0.574-0.007c0.28-0.004,0.583-0.016,0.91-0.035c-0.01,0.028-0.014,0.079-0.014,0.154v0.14v0.154
		c0,0.065,0.004,0.112,0.014,0.14c-0.121-0.009-0.247-0.016-0.378-0.021s-0.271-0.007-0.42-0.007h-0.687
		C29.14,6.151,29.128,6.3,29.114,6.562c-0.015,0.261-0.026,0.572-0.035,0.931c-0.01,0.359-0.017,0.735-0.021,1.127
		s-0.007,0.742-0.007,1.05c0,0.261,0.007,0.518,0.021,0.77c0.014,0.252,0.058,0.479,0.133,0.679
		c0.074,0.201,0.187,0.362,0.336,0.483s0.364,0.182,0.644,0.182c0.075,0,0.175-0.009,0.302-0.028
		c0.126-0.019,0.235-0.042,0.328-0.07v0.336c-0.158,0.028-0.333,0.063-0.524,0.105s-0.376,0.063-0.553,0.063
		c-0.589,0-1.022-0.145-1.303-0.434c-0.279-0.289-0.42-0.714-0.42-1.274c0-0.252,0.005-0.525,0.015-0.819
		c0.009-0.294,0.021-0.616,0.034-0.966c0.015-0.35,0.026-0.737,0.035-1.162c0.01-0.425,0.015-0.898,0.015-1.421h-0.448
		c-0.075,0-0.154,0.002-0.238,0.007s-0.173,0.012-0.266,0.021c0.009-0.056,0.016-0.11,0.021-0.161s0.007-0.105,0.007-0.161
		c0-0.046-0.002-0.093-0.007-0.14c-0.005-0.047-0.012-0.093-0.021-0.14c0.42,0.028,0.728,0.042,0.924,0.042
		c-0.01-0.187-0.017-0.42-0.021-0.7c-0.005-0.28-0.016-0.569-0.034-0.868l1.161-0.49H29.261z"/>
	<path fill="#45474C" d="M32.795,7.128c0.2-0.443,0.464-0.803,0.791-1.078c0.326-0.275,0.693-0.476,1.099-0.602
		c0.406-0.126,0.81-0.189,1.211-0.189c0.411,0,0.817,0.063,1.219,0.189c0.4,0.126,0.765,0.327,1.092,0.602
		c0.326,0.275,0.59,0.635,0.791,1.078c0.2,0.443,0.301,0.982,0.301,1.617s-0.101,1.174-0.301,1.617
		c-0.201,0.443-0.465,0.803-0.791,1.078c-0.327,0.275-0.691,0.469-1.092,0.581c-0.401,0.112-0.808,0.168-1.219,0.168
		c-0.401,0-0.805-0.056-1.211-0.168c-0.405-0.112-0.772-0.306-1.099-0.581c-0.327-0.275-0.591-0.635-0.791-1.078
		c-0.201-0.443-0.301-0.982-0.301-1.617S32.594,7.572,32.795,7.128z M33.831,9.879c0.07,0.364,0.188,0.688,0.356,0.973
		s0.393,0.511,0.673,0.679c0.279,0.168,0.625,0.252,1.035,0.252c0.411,0,0.757-0.084,1.036-0.252
		c0.28-0.168,0.504-0.394,0.672-0.679s0.287-0.609,0.357-0.973c0.07-0.364,0.104-0.742,0.104-1.134s-0.034-0.77-0.104-1.134
		c-0.07-0.364-0.189-0.688-0.357-0.973s-0.392-0.511-0.672-0.679c-0.279-0.168-0.625-0.252-1.036-0.252
		c-0.41,0-0.756,0.084-1.035,0.252c-0.28,0.168-0.505,0.395-0.673,0.679s-0.286,0.609-0.356,0.973
		c-0.07,0.364-0.105,0.742-0.105,1.134S33.761,9.516,33.831,9.879z"/>
	<path fill="#45474C" d="M41.889,6.526c0.14-0.285,0.333-0.52,0.581-0.707c0.247-0.187,0.532-0.327,0.854-0.42
		c0.322-0.093,0.665-0.14,1.029-0.14c0.177,0,0.348,0.005,0.511,0.014s0.371,0.023,0.623,0.042c0.215,0.019,0.406,0.033,0.574,0.042
		s0.303,0.014,0.406,0.014c0.522,0,0.9-0.023,1.134-0.07c-0.01,0.047-0.017,0.096-0.021,0.147c-0.005,0.052-0.007,0.101-0.007,0.147
		c0,0.046,0.002,0.096,0.007,0.147s0.012,0.1,0.021,0.147c-0.271-0.019-0.534-0.04-0.791-0.063s-0.511-0.04-0.763-0.049
		l-0.028,0.028c0.289,0.159,0.522,0.404,0.7,0.735c0.177,0.332,0.266,0.674,0.266,1.029c0,0.7-0.235,1.249-0.707,1.645
		c-0.472,0.397-1.104,0.595-1.896,0.595c-0.131,0-0.26-0.005-0.386-0.014s-0.254-0.014-0.385-0.014
		c-0.168,0-0.324,0.061-0.469,0.182c-0.145,0.122-0.217,0.275-0.217,0.462c0,0.243,0.058,0.42,0.175,0.532
		c0.116,0.112,0.334,0.173,0.651,0.182c0.261,0.009,0.518,0.016,0.77,0.021s0.509,0.012,0.77,0.021
		c0.43,0.009,0.796,0.061,1.1,0.154c0.303,0.093,0.551,0.219,0.742,0.378c0.19,0.159,0.331,0.341,0.42,0.546
		c0.088,0.206,0.133,0.429,0.133,0.672c0,0.327-0.063,0.658-0.189,0.994c-0.126,0.336-0.321,0.639-0.588,0.91
		c-0.266,0.271-0.608,0.495-1.028,0.672s-0.925,0.266-1.513,0.266c-0.905,0-1.619-0.18-2.142-0.539s-0.784-0.852-0.784-1.477
		c0-0.243,0.044-0.467,0.133-0.672c0.089-0.206,0.203-0.387,0.344-0.546c0.14-0.159,0.298-0.285,0.476-0.378
		c0.177-0.094,0.359-0.163,0.546-0.21v-0.028c-0.289-0.084-0.509-0.224-0.658-0.42c-0.149-0.196-0.224-0.429-0.224-0.7
		c0-0.159,0.03-0.303,0.091-0.434s0.138-0.248,0.231-0.35c0.093-0.103,0.2-0.187,0.321-0.252s0.238-0.107,0.351-0.126V9.613
		c-0.43-0.187-0.766-0.45-1.008-0.791c-0.243-0.34-0.364-0.768-0.364-1.281C41.679,7.149,41.748,6.812,41.889,6.526z M46.158,12.357
		c-0.326-0.224-0.868-0.336-1.624-0.336c-0.699,0-1.241,0.114-1.624,0.343c-0.383,0.229-0.573,0.642-0.573,1.239
		c0,0.317,0.053,0.588,0.16,0.812s0.253,0.406,0.435,0.546s0.398,0.243,0.65,0.308c0.253,0.065,0.523,0.098,0.812,0.098
		c0.28,0,0.555-0.038,0.826-0.112c0.271-0.075,0.511-0.187,0.721-0.336s0.38-0.338,0.511-0.567c0.131-0.229,0.196-0.502,0.196-0.819
		C46.648,12.974,46.485,12.582,46.158,12.357z M45.473,6.127c-0.28-0.308-0.649-0.462-1.106-0.462c-0.504,0-0.896,0.17-1.176,0.511
		c-0.28,0.341-0.42,0.796-0.42,1.365c0,0.588,0.128,1.052,0.385,1.393s0.656,0.511,1.197,0.511c0.271,0,0.502-0.053,0.693-0.161
		c0.19-0.107,0.35-0.252,0.476-0.434s0.219-0.392,0.28-0.63c0.061-0.238,0.091-0.488,0.091-0.749
		C45.893,6.883,45.753,6.436,45.473,6.127z"/>
	<path fill="#45474C" d="M53.165,6.394c-0.136-0.047-0.273-0.07-0.413-0.07c-0.224,0-0.425,0.052-0.602,0.154
		c-0.178,0.103-0.327,0.24-0.448,0.413c-0.122,0.173-0.215,0.378-0.28,0.616c-0.065,0.238-0.098,0.493-0.098,0.763v1.54
		c0,0.625,0.002,1.104,0.007,1.435c0.005,0.331,0.021,0.6,0.049,0.805c-0.187-0.019-0.373-0.028-0.56-0.028
		c-0.206,0-0.401,0.009-0.588,0.028c0.027-0.317,0.044-0.749,0.049-1.295c0.004-0.546,0.007-1.215,0.007-2.009V8.297
		c0-0.364-0.003-0.784-0.007-1.26c-0.005-0.476-0.021-1.022-0.049-1.638c0.103,0.019,0.2,0.035,0.294,0.049
		c0.093,0.014,0.19,0.021,0.294,0.021c0.084,0,0.172-0.007,0.266-0.021c0.093-0.014,0.191-0.03,0.294-0.049
		c-0.037,0.336-0.059,0.602-0.062,0.798c-0.005,0.196-0.008,0.383-0.008,0.56l0.028,0.014c0.551-1.008,1.167-1.512,1.848-1.512
		c0.084,0,0.156,0.005,0.218,0.014c0.061,0.009,0.138,0.033,0.23,0.07c-0.047,0.112-0.074,0.283-0.084,0.511
		c-0.009,0.229-0.014,0.437-0.014,0.623l-0.099,0.07C53.392,6.492,53.3,6.44,53.165,6.394z"/>
	<path fill="#45474C" d="M57.372,5.427c0.355-0.112,0.719-0.168,1.093-0.168c0.336,0,0.644,0.049,0.925,0.147
		c0.28,0.098,0.52,0.238,0.719,0.42c0.198,0.182,0.354,0.401,0.468,0.658c0.113,0.257,0.17,0.539,0.17,0.847
		c0,0.532-0.009,1.062-0.027,1.589c-0.02,0.527-0.028,1.085-0.028,1.673c0,0.112,0.002,0.231,0.007,0.357s0.025,0.238,0.063,0.336
		c0.037,0.098,0.091,0.18,0.161,0.245c0.069,0.065,0.175,0.098,0.314,0.098c0.047,0,0.096-0.002,0.147-0.007
		c0.051-0.005,0.1-0.021,0.146-0.049v0.308c-0.103,0.047-0.23,0.084-0.385,0.112c-0.154,0.028-0.324,0.042-0.511,0.042
		c-0.304,0-0.535-0.077-0.696-0.231c-0.161-0.154-0.256-0.353-0.284-0.595c-0.335,0.336-0.665,0.583-0.99,0.742
		c-0.326,0.158-0.726,0.238-1.2,0.238c-0.232,0-0.46-0.033-0.684-0.098c-0.223-0.065-0.421-0.172-0.593-0.322
		s-0.312-0.329-0.419-0.539c-0.106-0.21-0.16-0.45-0.16-0.721c0-0.56,0.175-0.994,0.523-1.302s0.83-0.513,1.444-0.616
		c0.502-0.084,0.895-0.156,1.179-0.217c0.283-0.061,0.493-0.124,0.628-0.189s0.216-0.142,0.244-0.231
		c0.027-0.089,0.042-0.203,0.042-0.343c0-0.233-0.028-0.457-0.084-0.672c-0.057-0.214-0.146-0.401-0.267-0.56
		s-0.28-0.287-0.476-0.385c-0.196-0.098-0.435-0.147-0.714-0.147c-0.374,0-0.722,0.084-1.043,0.252
		c-0.322,0.168-0.562,0.401-0.722,0.7h-0.153V6.071C56.631,5.754,57.018,5.54,57.372,5.427z M59.118,8.704
		c-0.209,0.037-0.421,0.077-0.634,0.119c-0.214,0.042-0.425,0.096-0.634,0.161c-0.209,0.065-0.396,0.154-0.558,0.266
		C57.13,9.361,57,9.501,56.903,9.669c-0.098,0.168-0.146,0.383-0.146,0.644c0,0.439,0.125,0.77,0.376,0.994
		c0.25,0.224,0.529,0.336,0.836,0.336c0.353,0,0.676-0.098,0.968-0.294c0.293-0.196,0.519-0.425,0.676-0.686l0.057-2.1
		C59.511,8.62,59.327,8.667,59.118,8.704z"/>
	<path fill="#45474C" d="M64.113,8.438c-0.005-0.373-0.012-0.744-0.021-1.113c-0.009-0.369-0.021-0.721-0.035-1.057
		c-0.014-0.336-0.03-0.625-0.049-0.868c0.262,0.047,0.472,0.07,0.63,0.07c0.159,0,0.369-0.023,0.63-0.07
		c-0.037,0.243-0.065,0.476-0.084,0.7c-0.019,0.224-0.027,0.448-0.027,0.672h0.027c0.065-0.149,0.159-0.31,0.28-0.483
		s0.277-0.336,0.469-0.49c0.191-0.154,0.423-0.282,0.693-0.385s0.578-0.154,0.924-0.154c0.354,0,0.705,0.068,1.05,0.203
		c0.346,0.135,0.651,0.343,0.917,0.623c0.267,0.28,0.48,0.637,0.645,1.071c0.163,0.434,0.245,0.95,0.245,1.547
		s-0.089,1.115-0.267,1.554c-0.177,0.439-0.408,0.803-0.692,1.092c-0.285,0.289-0.609,0.501-0.974,0.637
		c-0.363,0.135-0.728,0.203-1.092,0.203c-1.026,0-1.76-0.443-2.198-1.33h-0.027v0.882c0,0.298,0.002,0.632,0.007,1.001
		c0.005,0.368,0.012,0.735,0.021,1.099c0.01,0.364,0.021,0.712,0.035,1.043c0.015,0.332,0.03,0.614,0.049,0.847
		c-0.261-0.047-0.471-0.07-0.63-0.07c-0.158,0-0.368,0.023-0.63,0.07c0.019-0.233,0.035-0.516,0.049-0.847
		c0.015-0.331,0.026-0.679,0.035-1.043c0.01-0.364,0.017-0.73,0.021-1.099c0.004-0.369,0.007-0.703,0.007-1.001V9.474
		C64.12,9.156,64.117,8.811,64.113,8.438z M68.999,7.304c-0.117-0.364-0.266-0.656-0.448-0.875c-0.182-0.219-0.39-0.371-0.623-0.455
		s-0.462-0.126-0.686-0.126c-0.374,0-0.693,0.079-0.959,0.238c-0.267,0.159-0.483,0.371-0.651,0.637
		c-0.168,0.266-0.289,0.579-0.364,0.938c-0.074,0.359-0.111,0.74-0.111,1.141c0,1.941,0.681,2.912,2.044,2.912
		c0.336,0,0.627-0.077,0.875-0.231c0.247-0.154,0.452-0.369,0.616-0.644c0.163-0.275,0.284-0.597,0.363-0.966
		s0.119-0.763,0.119-1.183C69.174,8.129,69.115,7.667,68.999,7.304z"/>
	<path fill="#45474C" d="M73.354,4.489c-0.005-0.373-0.012-0.742-0.021-1.106c-0.01-0.364-0.021-0.711-0.035-1.043
		c-0.015-0.331-0.03-0.613-0.049-0.847c0.261,0.047,0.471,0.07,0.63,0.07c0.158,0,0.368-0.023,0.63-0.07
		c-0.019,0.233-0.035,0.513-0.049,0.84c-0.015,0.327-0.026,0.67-0.035,1.029c-0.01,0.359-0.017,0.721-0.021,1.085
		c-0.005,0.364-0.007,0.7-0.007,1.008V6.52h0.028c0.262-0.401,0.575-0.711,0.94-0.931c0.365-0.219,0.801-0.329,1.307-0.329
		c0.262,0,0.526,0.038,0.793,0.112s0.508,0.203,0.724,0.385c0.215,0.182,0.391,0.43,0.526,0.742
		c0.136,0.313,0.204,0.712,0.204,1.197c0,0.401-0.01,0.814-0.028,1.239s-0.028,0.875-0.028,1.351v0.91
		c0,0.149,0.003,0.296,0.007,0.441c0.005,0.145,0.012,0.282,0.021,0.413c-0.189-0.019-0.388-0.028-0.595-0.028
		c-0.199,0-0.393,0.009-0.581,0.028c0.019-0.485,0.039-0.984,0.062-1.498c0.023-0.513,0.035-1.041,0.035-1.582V8.116
		c0-0.7-0.136-1.23-0.406-1.589c-0.271-0.359-0.644-0.539-1.12-0.539c-0.653,0-1.132,0.201-1.435,0.602
		c-0.304,0.401-0.455,0.966-0.455,1.694c0,0.261,0.002,0.564,0.007,0.91c0.005,0.346,0.012,0.693,0.021,1.043
		c0.009,0.35,0.021,0.688,0.035,1.015c0.014,0.327,0.03,0.593,0.049,0.798c-0.215-0.019-0.425-0.028-0.63-0.028
		c-0.206,0-0.416,0.009-0.63,0.028c0.019-0.214,0.034-0.485,0.049-0.812c0.014-0.326,0.025-0.672,0.035-1.036
		c0.009-0.364,0.016-0.733,0.021-1.106c0.005-0.374,0.007-0.719,0.007-1.036V5.525C73.36,5.208,73.358,4.863,73.354,4.489z"/>
</g>
</svg>
