<?xml version="1.0" encoding="utf-8"?>
<!-- Generator: Adobe Illustrator 15.1.0, SVG Export Plug-In . SVG Version: 6.00 Build 0)  -->
<!DOCTYPE svg PUBLIC "-//W3C//DTD SVG 1.1//EN" "http://www.w3.org/Graphics/SVG/1.1/DTD/svg11.dtd">
<svg version="1.1" id="レイヤー_1" xmlns="http://www.w3.org/2000/svg" xmlns:xlink="http://www.w3.org/1999/xlink" x="0px"
	 y="0px" width="36.831px" height="63.889px" viewBox="0 0 36.831 63.889" enable-background="new 0 0 36.831 63.889"
	 xml:space="preserve">
<g>
	<path fill="#45474C" d="M19.88,13.889c-0.832-0.816-2.049-1.761-3.825-2.529c0,2.209-0.017,2.466,0.032,4.578l0.048,2.289
		c0.016,1.137,0.031,1.601-0.528,1.601c-0.32,0-0.353-0.304-0.353-0.641c0-0.224,0.064-1.312,0.064-1.568
		c0.016-0.832,0.063-3.762,0.063-4.386l-0.016-4.29V8.495c0-0.272,0-0.913-0.176-1.249c-0.017-0.048-0.208-0.304-0.208-0.384
		c0-0.128,0.144-0.128,0.191-0.128c0.177,0,1.041,0.176,1.041,0.672c0,0.144-0.097,0.816-0.097,0.96
		c-0.048,0.881-0.063,1.553-0.063,2.802c1.216,0.304,2.305,0.56,3.649,1.473c0.256,0.176,1.201,0.784,1.201,1.28
		c0,0.208-0.145,0.4-0.369,0.4c-0.176,0-0.336-0.112-0.447-0.225L19.88,13.889z"/>
	<path fill="#45474C" d="M14.485,29.136c-0.031-0.032-0.208-0.24-0.208-0.288s0.097-0.08,0.129-0.08
		c0.048,0,1.632,1.232,1.632,2.097c0,0.24-0.208,0.368-0.368,0.368c-0.224,0-0.271-0.144-0.448-0.624
		C15.062,30.145,14.662,29.392,14.485,29.136z M21.978,28.304c0.24,0,0.783,0.368,0.783,0.688c0,0.08-0.207,0.528-0.238,0.608
		c-0.85,1.889-1.09,2.465-1.906,3.634c-2.241,3.265-4.962,4.13-5.01,4.13c-0.064,0-0.097-0.08-0.097-0.113
		c0-0.047,0.032-0.078,0.097-0.111c1.265-0.801,1.856-1.168,2.673-1.953c2.321-2.208,3.698-5.826,3.698-6.322
		c0-0.08-0.096-0.399-0.096-0.464C21.882,28.352,21.913,28.304,21.978,28.304z M17.399,27.903c0.224,0,1.648,1.393,1.648,2.257
		c0,0.224-0.176,0.368-0.352,0.368c-0.161,0-0.272-0.112-0.337-0.272c-0.384-0.977-0.641-1.601-0.849-1.889
		c-0.031-0.048-0.224-0.336-0.224-0.384C17.287,27.951,17.367,27.903,17.399,27.903z"/>
	<path fill="#45474C" d="M14.117,47.6c-0.704,0.145-0.784,0.16-0.976,0.16c-0.736,0-1.009-0.736-1.009-0.801
		c0-0.111,0.08-0.145,0.112-0.145c0.016,0,0.176,0.064,0.191,0.064c0.225,0.08,0.513,0.111,0.801,0.111
		c1.024,0,6.787-0.688,7.123-0.752c0.08-0.016,0.672-0.191,0.689-0.191c0.271,0,0.879,0.416,0.879,0.783
		c0,0.129-0.383,0.656-0.432,0.785c-0.672,1.762-2.289,5.699-6.259,8.387c-0.416,0.273-2.033,1.152-2.177,1.152
		c-0.048,0-0.097-0.047-0.097-0.111c0-0.031,0.032-0.064,0.049-0.08c0.768-0.447,1.488-0.961,2.192-1.488
		c4.018-3.057,5.699-8.244,5.699-8.756c0-0.111-0.064-0.127-0.145-0.127c-0.049,0-0.129,0.016-0.256,0.031
		C18.504,46.799,16.118,47.184,14.117,47.6z M24.698,44.879c0,0.783-0.656,1.52-1.52,1.52c-0.85,0-1.506-0.721-1.506-1.52
		c0-0.801,0.672-1.521,1.521-1.521C24.058,43.357,24.698,44.109,24.698,44.879z M22.138,44.879c0,0.543,0.447,1.057,1.041,1.057
		c0.623,0,1.055-0.514,1.055-1.057c0-0.561-0.447-1.057-1.039-1.057C22.569,43.822,22.138,44.334,22.138,44.879z"/>
</g>
</svg>
