<?xml version="1.0" encoding="utf-8"?>
<!-- Generator: Adobe Illustrator 15.1.0, SVG Export Plug-In . SVG Version: 6.00 Build 0)  -->
<!DOCTYPE svg PUBLIC "-//W3C//DTD SVG 1.1//EN" "http://www.w3.org/Graphics/SVG/1.1/DTD/svg11.dtd">
<svg version="1.1" id="レイヤー_1" xmlns="http://www.w3.org/2000/svg" xmlns:xlink="http://www.w3.org/1999/xlink" x="0px"
	 y="0px" width="36.831px" height="63.889px" viewBox="0 0 36.831 63.889" enable-background="new 0 0 36.831 63.889"
	 xml:space="preserve">
<g>
	<path fill="#45474C" d="M13.198,10.977c-0.192,0.016-1.201,0.08-1.44,0.08c-0.385,0-0.641-0.257-0.641-0.353
		c0-0.048,0.048-0.08,0.096-0.08c0.08,0,0.593,0.032,0.688,0.032c0.32,0,1.169,0,1.328-0.032c0.08-0.016,0.497-0.208,0.593-0.208
		c0.16,0,0.624,0.176,0.624,0.433c0,0.063-0.176,0.319-0.208,0.384c-0.032,0.063-0.048,0.112-0.063,0.624
		c-0.064,3.121-0.08,3.361-0.225,3.746c0.208,0.08,1.185,0.527,1.408,0.624c1.81,0.736,3.682,1.072,5.62,1.072
		c1.889,0,3.041-0.145,4.801-0.433c0.033,0,0.176-0.048,0.209-0.048c0.047,0,0.08,0.048,0.08,0.097c0,0.111-0.914,0.832-1.025,0.88
		c-0.225,0.128-2.721,0.192-2.961,0.192c-3.57,0-5.346-0.704-6.674-1.28c-0.305-0.129-1.665-0.816-1.825-0.816
		c-0.32,0-0.977,0.832-1.297,1.248c-0.384,0.496-0.432,0.544-0.607,0.544c-0.288,0-0.673-0.432-0.673-0.576
		c0-0.063,0.097-0.128,0.192-0.128c0.16-0.016,0.24-0.063,0.336-0.128c1.393-1.009,1.537-1.12,1.873-1.248
		c0.08-1.985,0.128-2.802,0.096-4.643L13.198,10.977z M11.901,5.006c0.256,0,2.289,0.816,2.289,1.825
		c0,0.208-0.112,0.367-0.32,0.367c-0.16,0-0.208-0.048-0.592-0.544c-0.625-0.816-1.089-1.2-1.393-1.456
		c-0.032-0.032-0.064-0.064-0.064-0.097C11.821,5.054,11.853,5.006,11.901,5.006z M19.6,7.823l-0.016-1.585l-2.018,0.048
		c-0.288,0-1.553,0.112-1.809,0.112c-0.32,0-0.64-0.32-0.64-0.4s0.063-0.096,0.096-0.096c0.096,0,0.561,0.063,0.656,0.063
		c0.288,0.017,0.96,0,1.12,0l2.594-0.063c0-0.305,0-1.345-0.049-1.601c-0.016-0.08-0.208-0.385-0.208-0.465
		c0-0.063,0.048-0.128,0.128-0.128c0.192,0,0.848,0.16,0.848,0.545c0,0.144-0.062,1.376-0.062,1.648L21.36,5.87
		c0.561-0.016,1.408-0.063,1.762-0.176c0.08-0.032,0.527-0.16,0.623-0.16c0.273,0,0.912,0.24,0.912,0.432
		c0,0.208-0.512,0.208-0.719,0.208c-0.514,0-1.17,0-1.682,0.017l-2.016,0.032v1.601l1.648-0.048c0.143,0,0.672,0,0.848-0.064
		c0.049-0.016,0.256-0.128,0.305-0.128c0.24,0,0.527,0.304,0.527,0.432c0,0.064-0.16,0.32-0.176,0.368
		c-0.049,0.225-0.049,1.617-0.049,1.969c0,0.288,0.018,1.649,0,1.825c0,0.16-0.031,0.512-0.432,0.512
		c-0.271,0-0.271-0.256-0.271-0.368v-0.111l-2.385,0.048v1.696l1.695-0.031c0.32,0,1.186-0.032,1.65-0.145
		c0.111-0.032,0.623-0.208,0.736-0.208c0.256,0,0.895,0.24,0.895,0.448c0,0.192-0.496,0.192-0.719,0.192
		c-0.496,0-1.17,0-1.682,0.016l-2.561,0.064c0.016,1.568,0.016,2.08,0,2.16c-0.031,0.288-0.209,0.465-0.432,0.465
		c-0.336,0-0.336-0.337-0.336-0.545c0-0.319,0.031-1.776,0.048-2.08l-2.273,0.048c-0.288,0-1.553,0.128-1.809,0.128
		c-0.32,0-0.64-0.32-0.64-0.4c0-0.063,0.048-0.112,0.096-0.112c0.096,0,0.544,0.064,0.641,0.064c0.384,0.016,0.896,0,1.136,0
		l2.85-0.048l0.016-1.697l-2.529,0.048c0,0.177,0,0.641-0.416,0.641c-0.271,0-0.271-0.256-0.271-0.592
		c0-0.32,0.031-1.761,0.031-2.049c0-1.185-0.016-1.585-0.048-2.001c-0.016-0.097-0.096-0.464-0.096-0.544
		c0-0.064,0.048-0.129,0.112-0.129c0.16,0,0.384,0.16,0.464,0.209c0.16,0.016,0.32,0.016,1.328,0L19.6,7.823z M19.6,9.855V8.159
		l-0.849,0.016c-0.24,0-1.248,0.064-1.456,0.064c-0.112,0-0.208-0.017-0.288-0.048c-0.032,0.72-0.032,0.832-0.032,1.713L19.6,9.855z
		 M19.6,10.176l-2.625,0.064c0.016,0.479,0.048,1.265,0.048,1.744l2.545-0.048L19.6,10.176z M20.241,11.921
		c0.143,0,0.848-0.017,1.008-0.032s0.961-0.096,1.137-0.096c0.111,0,0.176,0.031,0.271,0.063c0.049-1.44,0.049-1.969,0.049-3.762
		l-2.465,0.049c-0.018,0.864-0.018,1.136-0.018,1.681c0.674-0.017,0.721-0.032,1.137-0.064c0.225-0.016,0.576-0.096,0.801-0.096
		c0.145,0,0.496,0.128,0.496,0.304c0,0.145-0.064,0.145-0.607,0.16l-1.826,0.032L20.241,11.921z"/>
	<path fill="#45474C" d="M12.077,33.457c0.08,0,0.736,0.208,0.736,0.512c0,0.064-0.319,1.104-0.512,1.633
		c-0.561,1.568-1.312,2.993-1.457,2.993c-0.048,0-0.08-0.048-0.08-0.08c0-0.08,0.641-1.921,0.736-2.241
		c0.288-0.96,0.496-2.049,0.496-2.288c0-0.064-0.048-0.337-0.048-0.385C11.949,33.521,11.997,33.457,12.077,33.457z M15.646,30.464
		c-0.048-0.064-0.048-0.064-0.048-0.08c0-0.032,0.032-0.097,0.097-0.097c0.111,0,1.216,0.977,1.216,1.697
		c0,0.224-0.144,0.368-0.336,0.368c-0.224,0-0.272-0.177-0.304-0.288c-0.017-0.08-0.097-0.353-0.128-0.465
		c-1.104,0.177-1.425,0.225-1.985,0.32c0.192,0.128,0.225,0.208,0.225,0.336c0,0.177-0.032,0.944-0.032,1.104
		c-0.017,0.673-0.017,4.178-0.017,5.187c0,0.448,0,0.864-0.447,0.864c-0.257,0-0.305-0.224-0.305-0.353
		c0-0.319,0.128-3.169,0.145-3.777c0.016-0.832,0.031-1.824,0.031-2.225c0-0.736-0.048-0.912-0.096-1.072
		c-0.256,0.032-1.393,0.176-1.616,0.208c-0.097,0.016-0.561,0.096-0.593,0.096c-0.24,0-0.432-0.544-0.432-0.752
		c0-0.064,0.048-0.128,0.128-0.128c0.048,0,0.063,0,0.208,0.08c0.08,0.048,0.16,0.08,0.352,0.08c0.064,0,1.409-0.049,1.649-0.064
		c0.576-0.88,2.257-3.585,2.257-4.05c0-0.032-0.048-0.191-0.048-0.224s0.031-0.128,0.144-0.128c0.096,0,0.672,0.336,0.672,0.672
		c0,0.16-1.28,2.097-2.688,3.729c0.416-0.032,0.624-0.032,2.385-0.128C15.951,31.056,15.823,30.72,15.646,30.464z M14.158,25.214
		c0.017-0.049-0.016-0.225-0.016-0.272c0-0.064,0.048-0.128,0.128-0.128c0.128,0,0.656,0.24,0.656,0.512
		c0,0.08-0.881,1.665-2.145,3.218c0.399,0.432,0.464,0.672,0.464,0.848c0,0.209-0.112,0.385-0.336,0.385
		c-0.097,0-0.208-0.032-0.288-0.208c-0.353-0.721-0.385-0.801-0.608-1.169c-0.048-0.08-0.208-0.32-0.448-0.672
		c0-0.048,0.032-0.096,0.096-0.096c0.08,0,0.608,0.384,0.961,0.735C13.566,26.622,14.142,25.31,14.158,25.214z M15.327,33.312
		c0.224,0,1.424,2.209,1.424,3.281c0,0.368-0.111,0.704-0.448,0.704c-0.304,0-0.336-0.224-0.384-0.832
		c-0.112-1.36-0.384-2.209-0.656-2.978c0-0.016-0.016-0.063-0.016-0.079C15.247,33.36,15.278,33.312,15.327,33.312z M21.665,26.862
		c-0.24,0-1.266,0.063-1.473,0.063c-0.176,0-0.336-0.08-0.48-0.176c-1.409,2.225-2.785,3.249-2.833,3.249
		c-0.064,0-0.097-0.063-0.097-0.096s0.816-1.089,0.977-1.297c1.745-2.368,2.017-3.505,2.017-3.665c0-0.048-0.063-0.272-0.063-0.32
		c0-0.063,0.063-0.128,0.128-0.128c0.047,0,0.719,0.256,0.719,0.624c0,0.192-0.543,1.137-0.703,1.393c0.432,0.017,0.992,0,1.199,0
		l1.281-0.032c0.225,0,0.289,0,0.352-0.016c0.113-0.032,0.289-0.096,0.338-0.096c0.207,0,0.688,0.304,0.688,0.512
		c0,0.16-0.512,0.608-0.576,0.721c-0.656,1.057-1.152,1.872-1.697,2.577c1.297,1.44,2.514,2.288,4.354,3.073
		c0.064,0.031,0.113,0.048,0.113,0.111c0,0.128-1.041,0.433-1.105,0.433c-0.191,0-2.336-1.36-3.697-3.201
		c-0.545,0.624-1.329,1.536-2.577,2.353c-1.057,0.704-2.113,1.137-2.146,1.137c-0.063,0-0.096-0.064-0.096-0.096
		c0-0.08,1.009-0.688,1.2-0.816c1.601-1.104,2.594-2.306,3.217-3.138c-0.383-0.608-1.232-2.321-1.232-2.641
		c0-0.017,0.016-0.08,0.08-0.08c0.063,0,0.096,0.031,0.112,0.08c0.176,0.399,0.528,1.185,1.344,2.257
		c0.943-1.297,1.504-2.369,1.744-2.817L21.665,26.862z M22.481,33.585c0.287,0,0.32,0,0.385-0.032
		c0.191-0.096,0.238-0.128,0.303-0.128c0.305,0,0.641,0.384,0.641,0.576c0,0.064-0.225,0.368-0.24,0.433
		c-0.047,0.159-0.064,1.84-0.064,2.112c0,0.336,0.033,1.761,0.033,2.064c0,0.305-0.176,0.608-0.48,0.608
		c-0.271,0-0.271-0.096-0.24-0.896l-3.969,0.08c0,0.48,0,0.896-0.368,0.896c-0.272,0-0.272-0.271-0.272-0.544
		c0-0.496,0.048-2.721,0.048-3.169c0-0.049-0.016-1.297-0.048-1.665c0-0.064-0.08-0.384-0.08-0.448c0-0.048,0.032-0.128,0.128-0.128
		c0.176,0,0.448,0.208,0.528,0.272c0.384,0.031,0.96,0.016,1.329,0.016L22.481,33.585z M20.72,33.969
		c-0.16,0-1.392,0.064-1.472,0.064c-0.111,0-0.208-0.032-0.336-0.08c-0.063,0.432-0.063,0.704-0.063,4.098l1.551-0.032
		c0.418-0.016,0.994-0.032,1.377-0.064c0.129,0,0.689-0.063,0.816-0.063c0.113,0,0.176,0.016,0.24,0.032
		c0.064-2.386,0.08-2.642,0.08-4.002L20.72,33.969z"/>
	<path fill="#45474C" d="M18.08,49.022v-2.305c0-0.608-0.048-0.752-0.08-0.833c-0.032-0.063-0.176-0.304-0.176-0.368
		c0-0.063,0.048-0.128,0.111-0.128c0.208,0,0.944,0.16,0.944,0.545c0,0.176-0.096,0.96-0.096,1.12v1.953l1.665-0.032
		c0.607-0.016,1.281-0.063,1.648-0.16c0.113-0.031,0.625-0.208,0.721-0.208c0.287,0,0.928,0.257,0.928,0.48
		c0,0.208-0.432,0.208-0.736,0.208c-0.496,0-1.168,0-1.68,0.016l-2.545,0.049l-0.016,3.345l2.385-0.048
		c0.912-0.016,1.713-0.063,2.191-0.16c0.145-0.032,0.816-0.32,0.961-0.32c0.225,0,0.961,0.305,0.961,0.608
		c0,0.145,0,0.208-0.865,0.208h-2l-2.561,0.048c0.031,0.064,0.096,0.129,0.096,0.272c0,0.08-0.049,0.561-0.049,0.673
		c-0.016,0.399-0.031,2.049-0.031,2.785c0,0.336,0,1.488,0.08,1.696c0.145,0.32,0.592,0.432,1.504,0.432
		c0.545,0,3.01-0.031,3.346-0.319c0.24-0.208,0.352-0.576,0.447-0.896c0.033-0.08,0.033-0.128,0.098-0.128
		c0.08,0,0.096,0.063,0.143,0.24c0.018,0.048,0.289,1.024,0.289,1.072c0,0.416-0.369,0.688-3.777,0.688
		c-2.417,0-2.849-0.159-2.849-1.521c0-0.304,0-4.802-0.017-4.978l-2.112,0.048c0.016,0.064,0.048,0.128,0.048,0.288
		c0,1.185-0.513,2.785-0.977,3.602c-1.057,1.873-2.881,2.753-4.37,3.169c-0.016,0-0.111,0.017-0.16,0.017
		c-0.048,0-0.096-0.048-0.096-0.097c0-0.063,0.064-0.096,0.128-0.111c2.689-0.961,4.706-3.313,4.706-6.499
		c0-0.128-0.016-0.24-0.048-0.353l-1.408,0.032c-0.625,0.017-0.721,0.017-1.649,0.08c-0.128,0-0.736,0.064-0.832,0.064
		c-0.368,0-0.736-0.385-0.736-0.48c0-0.032,0.032-0.096,0.096-0.096c0.112,0,0.561,0.063,0.656,0.063
		c0.688,0.032,1.505,0.032,2.161,0.017l3.537-0.08l0.017-3.346l-1.937,0.048c-0.16,0-1.393,0.064-1.489,0.064
		c-0.096,0-0.176-0.032-0.224-0.048c-0.704,1.088-1.793,2.497-1.969,2.497c-0.032,0-0.08-0.032-0.08-0.08
		c0-0.064,0.56-0.929,0.656-1.104c0.688-1.152,1.696-3.105,1.696-3.618c0-0.256,0-0.319,0.145-0.319
		c0.128,0,0.688,0.176,0.688,0.464c0,0.208-0.769,1.536-0.929,1.809c0.304,0,0.592-0.016,0.896-0.016L18.08,49.022z"/>
</g>
</svg>
