<?xml version="1.0" encoding="utf-8"?>
<!-- Generator: Adobe Illustrator 15.1.0, SVG Export Plug-In . SVG Version: 6.00 Build 0)  -->
<!DOCTYPE svg PUBLIC "-//W3C//DTD SVG 1.1//EN" "http://www.w3.org/Graphics/SVG/1.1/DTD/svg11.dtd">
<svg version="1.1" id="レイヤー_1" xmlns="http://www.w3.org/2000/svg" xmlns:xlink="http://www.w3.org/1999/xlink" x="0px"
	 y="0px" width="36.831px" height="63.889px" viewBox="0 0 36.831 63.889" enable-background="new 0 0 36.831 63.889"
	 xml:space="preserve">
<g>
	<path fill="#45474C" d="M15.839,22.873c0,0.688,0.048,5.058,0.048,5.218c0,0.096,0,0.608-0.448,0.608
		c-0.336,0-0.336-0.336-0.336-0.561c0-0.368,0.063-4.562,0.08-5.234H14.83c-0.416,0-1.072,0.064-1.488,0.064
		c-0.08,0-0.24-0.016-0.4-0.128c-0.048,0.544-0.048,0.624-0.048,1.28c0,0.336,0.032,2.033,0.032,2.417c0,0.56-0.368,0.56-0.385,0.56
		c-0.272,0-0.272-0.272-0.272-0.464c0-0.352,0.049-2.049,0.049-2.433c0-0.352-0.017-1.057-0.032-1.36c0-0.064-0.08-0.384-0.08-0.448
		c0-0.048,0.032-0.128,0.112-0.128c0.096,0,0.352,0.128,0.512,0.289c0.48,0.032,0.769,0.032,1.377,0.016l0.977-0.032
		c0.016-1.761,0.016-1.969,0.016-2.417l-1.681,0.032c-0.256,0-1.521,0.128-1.793,0.128c-0.352,0-0.656-0.353-0.656-0.432
		c0-0.08,0.064-0.096,0.097-0.096c0.079,0,0.336,0.032,0.479,0.048c0.4,0.032,1.024,0.016,1.297,0.016l2.257-0.048l-0.016-2.465
		c-0.16,0.016-1.361,0.064-1.457,0.064c-0.16,0-0.32-0.064-0.448-0.144c-0.512,1.121-1.137,2.161-1.265,2.161
		c-0.063,0-0.096-0.048-0.096-0.096c0-0.064,0.352-0.784,0.416-0.928c0.496-1.217,0.784-2.401,0.784-2.785
		c0-0.032-0.063-0.192-0.063-0.24c0-0.016,0.031-0.112,0.144-0.112c0.176,0,0.688,0.16,0.688,0.432c0,0.08-0.416,1.104-0.496,1.312
		c0.271,0.016,0.864,0.016,1.2,0l0.593-0.016c-0.017-2.001-0.017-2.001-0.049-2.193c-0.016-0.064-0.208-0.384-0.208-0.464
		c0-0.016,0.017-0.112,0.145-0.112c0.192,0,0.832,0.144,0.832,0.528c0,0.064-0.048,0.496-0.048,0.592
		c-0.016,0.208-0.016,1.024-0.016,1.632l0.576-0.016c0.672-0.016,0.848-0.048,0.976-0.08c0.112-0.032,0.608-0.224,0.721-0.224
		c0.145,0,0.672,0.224,0.672,0.464c0,0.128-0.096,0.176-0.736,0.176l-1.44,0.016l-0.768,0.032l-0.017,2.449l0.513-0.016
		c0.736-0.016,1.312-0.064,1.648-0.144c0.112-0.032,0.641-0.224,0.752-0.224c0.177,0,1.024,0.224,1.024,0.496
		c0,0.192-0.352,0.176-0.656,0.192c-0.24,0-1.473,0.016-1.744,0.016l-1.537,0.032c0,0.544,0,0.736,0.017,2.433l1.296-0.032
		c0.385-0.016,0.561-0.048,0.673-0.08c0.063-0.016,0.399-0.128,0.479-0.128c0.288,0,0.608,0.256,0.608,0.464
		c0,0.032-0.063,0.144-0.096,0.176c-0.048,0.08-0.048,0.144-0.048,0.432c0,0.433-0.017,2.193-0.064,2.593
		c-0.08,0.752-0.528,0.977-0.704,0.977c-0.208,0-0.96-0.705-0.96-0.752c0-0.032,0.016-0.096,0.096-0.096
		c0.048,0,0.464,0.064,0.561,0.064c0.256,0,0.336-0.08,0.367-0.56c0.032-0.432,0.049-1.665,0.064-2.769L15.839,22.873z
		 M20.816,15.686c0.113,0,0.752,0.128,0.752,0.432c0,0.096-0.062,0.528-0.062,0.608c-0.033,0.416-0.033,1.008-0.033,1.361v6.386
		c0,0.432-0.32,0.48-0.4,0.48c-0.303,0-0.303-0.384-0.303-0.528c0-0.096,0.016-0.512,0.016-0.592
		c0.127-3.201,0.145-3.569,0.145-4.754c0-0.512,0-2.529-0.064-2.817c-0.016-0.064-0.176-0.368-0.176-0.448
		C20.689,15.782,20.736,15.686,20.816,15.686z M24.658,14.741c0,0.08-0.064,0.432-0.064,0.512c-0.016,0.288-0.08,2.593-0.08,5.554
		c0,0.977,0.08,5.282,0.08,6.146c0,1.457-0.768,1.585-0.832,1.585c-0.271,0-1.248-0.833-1.248-0.896s0.064-0.08,0.111-0.08
		c0.113,0,0.641,0.048,0.754,0.048c0.447,0,0.527,0,0.527-2.865c0-0.944-0.016-9.7-0.111-10.004c-0.018-0.064-0.209-0.336-0.209-0.4
		c0-0.048,0.031-0.128,0.129-0.128C23.857,14.213,24.658,14.357,24.658,14.741z"/>
	<path fill="#45474C" d="M14.462,39.734c0,0.336-0.016,1.857-0.016,2.161c0,1.104,0.048,5.954,0.048,6.948
		c0,0.111,0,0.752-0.48,0.752c-0.353,0-0.353-0.354-0.353-0.529c0-0.367,0.097-2.049,0.112-2.385
		c0.064-2.257,0.064-4.306,0.08-6.643c-0.88,1.457-1.729,2.514-2.688,3.313c-0.08,0.063-0.097,0.063-0.112,0.063
		c-0.048,0-0.097-0.048-0.097-0.096c0-0.032,0-0.048,0.08-0.128c2.289-2.577,3.97-6.866,3.97-7.587c0-0.049-0.048-0.289-0.048-0.336
		c0-0.049,0.032-0.145,0.145-0.145c0.256,0,0.784,0.368,0.784,0.656c0,0.032-0.256,0.656-0.272,0.688
		c-0.352,0.849-0.672,1.648-1.328,2.801C14.43,39.383,14.462,39.559,14.462,39.734z M22.529,41.736
		c0.449-0.017,0.656-0.017,0.992-0.097c0.113-0.032,0.594-0.224,0.705-0.224c0.225,0,0.752,0.256,0.752,0.464
		c0,0.159-0.064,0.159-0.641,0.176c-0.016,0-1.297,0.032-1.553,0.032l-2.031,0.031v2.498l1.824-0.032
		c0.752-0.017,1.184-0.048,1.408-0.097c0.16-0.031,0.832-0.271,0.977-0.271c0.24,0,0.912,0.256,0.912,0.48
		c0,0.127-0.129,0.191-0.512,0.207c-0.096,0-1.602,0.017-1.904,0.017l-2.705,0.048c0.016,0.592,0.047,3.441,0.047,4.033
		c0,0.498-0.305,0.705-0.527,0.705c-0.321,0-0.321-0.367-0.321-0.48c0-0.416,0.096-2.193,0.112-2.561
		c0.031-1.232,0.048-6.643,0.048-7.748c-0.064,0-0.849,0.033-0.864,0.033c-0.097,0-0.225-0.033-0.368-0.097
		c-1.121,2.306-2.737,4.034-2.913,4.034c-0.048,0-0.097-0.033-0.097-0.097c0-0.032,0.608-0.896,0.721-1.056
		c2.081-3.042,2.785-6.195,2.785-6.483c0-0.063-0.08-0.304-0.08-0.353c0-0.063,0.048-0.127,0.128-0.127
		c0.145,0,0.85,0.287,0.85,0.672c0,0-0.241,0.672-0.257,0.721c-0.353,0.96-0.48,1.344-0.993,2.385c0.097,0,0.513,0.016,1.104,0
		l1.058-0.017c0.768-0.016,1.68-0.048,2.176-0.176c0.16-0.032,0.832-0.304,0.992-0.304c0.209,0,1.01,0.287,1.01,0.607
		c0,0.112,0,0.209-0.832,0.209c-0.32,0-1.842-0.017-2.033-0.017l-1.809,0.048c0.047,0.049,0.111,0.129,0.111,0.256
		c0,0.416-0.047,2.241-0.047,2.609L22.529,41.736z"/>
</g>
</svg>
