<?xml version="1.0" encoding="utf-8"?>
<!-- Generator: Adobe Illustrator 15.1.0, SVG Export Plug-In . SVG Version: 6.00 Build 0)  -->
<!DOCTYPE svg PUBLIC "-//W3C//DTD SVG 1.1//EN" "http://www.w3.org/Graphics/SVG/1.1/DTD/svg11.dtd">
<svg version="1.1" id="レイヤー_1" xmlns="http://www.w3.org/2000/svg" xmlns:xlink="http://www.w3.org/1999/xlink" x="0px"
	 y="0px" width="42.532px" height="16px" viewBox="0 0 42.532 16" enable-background="new 0 0 42.532 16" xml:space="preserve">
<g>
	<path fill="#769FC0" d="M10.29,12.049c-0.131-0.02-0.254-0.027-0.371-0.027c-0.116,0-0.24,0-0.37,0c-0.131,0-0.255,0-0.371,0
		c-0.117,0-0.24,0.008-0.371,0.027c-0.065-0.214-0.154-0.474-0.267-0.777c-0.111-0.303-0.235-0.621-0.371-0.951
		C8.034,9.988,7.896,9.652,7.757,9.312c-0.141-0.34-0.272-0.666-0.393-0.974C7.065,8.33,6.763,8.323,6.454,8.318
		C6.146,8.314,5.839,8.312,5.53,8.312c-0.289,0-0.574,0.002-0.854,0.007c-0.28,0.004-0.565,0.011-0.854,0.02
		C3.523,9.066,3.253,9.76,3.011,10.418c-0.243,0.658-0.425,1.202-0.546,1.631c-0.159-0.02-0.332-0.027-0.519-0.027
		s-0.359,0.008-0.518,0.027c0.756-1.633,1.493-3.257,2.212-4.872C4.359,5.563,5.082,3.92,5.811,2.25h0.266
		c0.225,0.542,0.467,1.127,0.729,1.757c0.261,0.63,0.527,1.267,0.798,1.911s0.541,1.283,0.812,1.918
		C8.687,8.471,8.941,9.061,9.18,9.607c0.237,0.545,0.452,1.033,0.644,1.463C10.013,11.499,10.169,11.826,10.29,12.049z M4.089,7.695
		c0.242,0,0.494,0.005,0.756,0.014c0.261,0.009,0.513,0.014,0.756,0.014c0.261,0,0.522-0.002,0.784-0.007
		c0.261-0.004,0.522-0.011,0.783-0.021L5.614,4.14L4.089,7.695z"/>
	<path fill="#769FC0" d="M18.67,10.034c-0.164,0.448-0.388,0.833-0.672,1.155c-0.285,0.322-0.621,0.568-1.008,0.742
		c-0.388,0.172-0.806,0.258-1.254,0.258c-0.447,0-0.852-0.096-1.211-0.287c-0.359-0.19-0.632-0.422-0.818-0.692
		c-0.336,0.271-0.649,0.542-0.938,0.812h-0.252c0.019-0.224,0.035-0.494,0.049-0.812c0.015-0.317,0.026-0.655,0.035-1.015
		c0.01-0.359,0.017-0.727,0.021-1.1s0.007-0.719,0.007-1.036V5.525c0-0.317-0.003-0.663-0.007-1.036
		c-0.005-0.373-0.012-0.742-0.021-1.106C12.592,3.02,12.58,2.672,12.565,2.34c-0.014-0.331-0.03-0.613-0.049-0.847
		c0.262,0.047,0.472,0.07,0.63,0.07c0.103,0,0.21-0.007,0.322-0.021c0.112-0.014,0.233-0.03,0.364-0.049
		c-0.028,0.187-0.052,0.483-0.07,0.889c-0.019,0.406-0.033,0.859-0.042,1.358c-0.01,0.499-0.019,1.013-0.028,1.54
		c-0.009,0.528-0.019,1.006-0.027,1.435h0.027c0.317-0.504,0.668-0.873,1.051-1.106c0.382-0.233,0.825-0.35,1.329-0.35
		c0.485,0,0.905,0.091,1.261,0.273c0.354,0.182,0.648,0.422,0.882,0.721c0.233,0.299,0.408,0.646,0.525,1.043
		c0.116,0.397,0.175,0.814,0.175,1.253C18.915,9.091,18.833,9.585,18.67,10.034z M17.521,7.367c-0.107-0.332-0.247-0.609-0.42-0.833
		C16.929,6.31,16.729,6.139,16.5,6.022s-0.465-0.175-0.707-0.175c-0.29,0-0.567,0.054-0.833,0.161
		c-0.267,0.107-0.497,0.285-0.693,0.532c-0.196,0.248-0.353,0.569-0.469,0.966c-0.117,0.397-0.175,0.885-0.175,1.463
		c0,1.877,0.681,2.814,2.044,2.814c0.289,0,0.555-0.077,0.798-0.23c0.242-0.154,0.455-0.375,0.637-0.666
		c0.183-0.289,0.324-0.635,0.427-1.035c0.103-0.401,0.154-0.85,0.154-1.345C17.683,8.078,17.629,7.698,17.521,7.367z"/>
	<path fill="#769FC0" d="M21.483,7.128c0.2-0.443,0.464-0.803,0.791-1.078c0.326-0.275,0.693-0.476,1.1-0.602
		c0.405-0.126,0.81-0.189,1.211-0.189c0.41,0,0.816,0.063,1.219,0.189c0.4,0.126,0.765,0.327,1.092,0.602
		c0.326,0.275,0.59,0.635,0.791,1.078c0.2,0.443,0.301,0.982,0.301,1.617c0,0.635-0.101,1.174-0.301,1.616
		c-0.201,0.443-0.465,0.804-0.791,1.078c-0.327,0.275-0.691,0.47-1.092,0.582c-0.401,0.111-0.809,0.168-1.219,0.168
		c-0.401,0-0.806-0.057-1.211-0.168c-0.406-0.112-0.772-0.307-1.1-0.582c-0.327-0.274-0.591-0.635-0.791-1.078
		c-0.201-0.442-0.301-0.981-0.301-1.616C21.182,8.11,21.282,7.572,21.483,7.128z M22.52,9.879c0.07,0.364,0.188,0.688,0.355,0.973
		s0.394,0.512,0.674,0.68c0.279,0.168,0.625,0.252,1.035,0.252s0.756-0.084,1.035-0.252c0.28-0.168,0.504-0.395,0.672-0.68
		s0.287-0.608,0.357-0.973c0.07-0.363,0.104-0.742,0.104-1.134c0-0.392-0.033-0.77-0.104-1.134c-0.07-0.364-0.189-0.688-0.357-0.973
		C26.124,6.353,25.9,6.127,25.62,5.959c-0.279-0.168-0.625-0.252-1.035-0.252s-0.756,0.084-1.035,0.252
		c-0.28,0.168-0.506,0.395-0.674,0.679c-0.168,0.284-0.285,0.61-0.355,0.973c-0.07,0.364-0.105,0.742-0.105,1.134
		C22.415,9.137,22.45,9.516,22.52,9.879z"/>
	<path fill="#769FC0" d="M30.752,8.668c0.014-0.35,0.021-0.698,0.021-1.043c0-0.327-0.003-0.681-0.008-1.064
		s-0.013-0.77-0.021-1.162c0.232,0.047,0.428,0.07,0.588,0.07c0.148,0,0.34-0.023,0.573-0.07c-0.047,0.56-0.081,1.174-0.104,1.841
		s-0.035,1.351-0.035,2.051c0,0.484,0.042,0.855,0.126,1.113c0.084,0.257,0.187,0.451,0.31,0.58
		c0.131,0.149,0.295,0.273,0.496,0.371c0.2,0.099,0.436,0.147,0.707,0.147c0.393,0,0.719-0.086,0.979-0.259
		c0.263-0.174,0.453-0.385,0.574-0.637c0.065-0.16,0.117-0.295,0.154-0.406c0.037-0.112,0.067-0.262,0.092-0.448
		c0.022-0.187,0.037-0.438,0.041-0.756c0.006-0.317,0.008-0.751,0.008-1.302V6.52c0-0.205-0.002-0.401-0.008-0.588
		c-0.004-0.187-0.012-0.364-0.021-0.532c0.103,0.019,0.2,0.035,0.294,0.049c0.094,0.014,0.191,0.021,0.295,0.021
		s0.2-0.007,0.294-0.021c0.093-0.014,0.187-0.03,0.279-0.049c-0.048,0.728-0.074,1.431-0.085,2.107
		c-0.008,0.677-0.014,1.394-0.014,2.149c0,0.42,0.006,0.83,0.014,1.232c0.011,0.4,0.023,0.789,0.043,1.161
		c-0.188-0.019-0.368-0.028-0.547-0.028c-0.176,0-0.358,0.01-0.545,0.028c0.009-0.084,0.017-0.172,0.021-0.266
		c0.004-0.093,0.007-0.19,0.007-0.294v-0.602h-0.027c-0.244,0.447-0.557,0.776-0.938,0.986c-0.383,0.21-0.799,0.314-1.246,0.314
		c-0.729,0-1.3-0.192-1.716-0.58c-0.415-0.387-0.622-0.945-0.622-1.674C30.731,9.441,30.738,9.02,30.752,8.668z"/>
	<path fill="#769FC0" d="M40.979,3.523c-0.027,0.355-0.049,0.703-0.062,1.043c-0.015,0.341-0.03,0.684-0.049,1.029
		c0.103,0,0.293-0.002,0.573-0.007c0.28-0.004,0.583-0.016,0.91-0.035c-0.011,0.028-0.015,0.079-0.015,0.154v0.14v0.154
		c0,0.065,0.004,0.112,0.015,0.14c-0.121-0.009-0.247-0.016-0.378-0.021c-0.131-0.005-0.271-0.007-0.42-0.007h-0.688
		c-0.009,0.038-0.021,0.187-0.033,0.448c-0.016,0.261-0.026,0.572-0.035,0.931c-0.01,0.359-0.018,0.735-0.021,1.127
		c-0.004,0.393-0.007,0.742-0.007,1.05c0,0.261,0.007,0.519,0.021,0.771c0.015,0.252,0.059,0.479,0.133,0.679
		s0.188,0.362,0.336,0.483c0.15,0.121,0.365,0.182,0.645,0.182c0.075,0,0.176-0.01,0.303-0.028c0.125-0.019,0.234-0.042,0.328-0.069
		v0.336c-0.158,0.027-0.334,0.062-0.525,0.104c-0.19,0.042-0.375,0.063-0.553,0.063c-0.588,0-1.021-0.146-1.303-0.435
		c-0.279-0.289-0.42-0.714-0.42-1.274c0-0.252,0.005-0.524,0.016-0.818c0.008-0.294,0.021-0.616,0.033-0.967
		c0.016-0.349,0.026-0.736,0.035-1.161c0.01-0.425,0.016-0.898,0.016-1.421h-0.449c-0.074,0-0.153,0.002-0.237,0.007
		c-0.084,0.005-0.173,0.012-0.267,0.021c0.01-0.056,0.017-0.11,0.021-0.161s0.008-0.105,0.008-0.161c0-0.046-0.003-0.093-0.008-0.14
		c-0.005-0.047-0.012-0.093-0.021-0.14c0.42,0.028,0.729,0.042,0.925,0.042c-0.011-0.187-0.017-0.42-0.021-0.7
		c-0.006-0.28-0.017-0.569-0.035-0.868l1.162-0.49H40.979z"/>
</g>
</svg>
