<?xml version="1.0" encoding="utf-8"?>
<!-- Generator: Adobe Illustrator 15.1.0, SVG Export Plug-In . SVG Version: 6.00 Build 0)  -->
<!DOCTYPE svg PUBLIC "-//W3C//DTD SVG 1.1//EN" "http://www.w3.org/Graphics/SVG/1.1/DTD/svg11.dtd">
<svg version="1.1" id="レイヤー_1" xmlns="http://www.w3.org/2000/svg" xmlns:xlink="http://www.w3.org/1999/xlink" x="0px"
	 y="0px" width="25px" height="16px" viewBox="0 0 25 16" enable-background="new 0 0 25 16" xml:space="preserve">
<path fill="#769FC0" d="M2.996094,3.160156c-0.243164,0-0.49707,0.001953-0.76416,0.006836
	c-0.265137,0.003906-0.530762,0.01416-0.796875,0.026855c-0.266113,0.01416-0.521973,0.03125-0.77002,0.049316
	C0.416992,3.262207,0.194824,3.286133,0,3.312988C0.045898,3.14502,0.068848,2.996094,0.068848,2.865234
	c0-0.103027-0.022949-0.248047-0.068848-0.434082C0.616211,2.450195,1.217773,2.46582,1.806152,2.47998
	c0.587891,0.01416,1.189941,0.020996,1.805664,0.020996c0.616211,0,1.219238-0.006836,1.807129-0.020996
	S6.60791,2.450195,7.225098,2.431152C7.178223,2.618164,7.154785,2.76709,7.154785,2.878906
	c0,0.12207,0.023438,0.266113,0.070312,0.434082C7.028809,3.285156,6.807129,3.262207,6.560059,3.243164
	s-0.503906-0.035156-0.77002-0.049316C5.521973,3.181152,5.256836,3.170898,4.991211,3.166992
	c-0.266113-0.004883-0.52002-0.006836-0.763184-0.006836C4.200195,4.121094,4.186035,5.086914,4.186035,6.058105V8.46582
	c0,0.616211,0.012207,1.223633,0.035156,1.820312c0.022949,0.595703,0.048828,1.18457,0.07666,1.763672
	c-0.214844-0.018555-0.442871-0.02832-0.687012-0.02832c-0.241699,0-0.470703,0.010742-0.686035,0.02832
	c0.02832-0.579102,0.054199-1.166992,0.077148-1.763672S3.037109,9.082031,3.037109,8.46582V6.058105
	C3.038086,5.086914,3.022949,4.121094,2.996094,3.160156z"/>
<path fill="#769FC0" d="M8.484863,7.12793c0.200195-0.442871,0.464355-0.802734,0.791016-1.078125
	C9.602051,5.774902,9.969238,5.574219,10.375,5.448242s0.810059-0.189453,1.210938-0.189453
	c0.411133,0,0.815918,0.063477,1.219238,0.189453c0.399902,0.125977,0.765137,0.32666,1.091309,0.601562
	c0.326172,0.275391,0.589844,0.635254,0.791016,1.078125s0.300781,0.981934,0.300781,1.617188
	c0,0.634766-0.099609,1.173828-0.300781,1.616211c-0.201172,0.443359-0.464844,0.803711-0.791016,1.078125
	s-0.689453,0.469727-1.091309,0.582031c-0.400391,0.110352-0.808105,0.167969-1.219238,0.167969
	c-0.400879,0-0.805176-0.057617-1.210938-0.167969c-0.404785-0.112305-0.771973-0.307617-1.099121-0.582031
	c-0.32666-0.274414-0.59082-0.634766-0.791016-1.078125C8.28418,9.918945,8.185059,9.379883,8.185059,8.746094
	C8.185059,8.111816,8.28418,7.572266,8.484863,7.12793z M9.520996,9.878906c0.069824,0.364258,0.187988,0.6875,0.355957,0.972656
	s0.393066,0.512695,0.672852,0.680664c0.279297,0.167969,0.625,0.251953,1.035156,0.251953
	c0.411133,0,0.756836-0.083984,1.036133-0.251953c0.278809-0.167969,0.503906-0.395508,0.671875-0.680664
	s0.287109-0.607422,0.357422-0.972656c0.070312-0.363281,0.103516-0.742188,0.103516-1.133789
	c0-0.39209-0.033203-0.77002-0.103516-1.134277c-0.070312-0.36377-0.189453-0.687988-0.357422-0.972656
	c-0.167969-0.285156-0.393066-0.51123-0.671875-0.679199c-0.279297-0.167969-0.625-0.251953-1.036133-0.251953
	c-0.410156,0-0.755859,0.083984-1.035156,0.251953c-0.279785,0.167969-0.504883,0.39502-0.672852,0.679199
	C9.708984,6.921875,9.59082,7.24707,9.520996,7.61084c-0.069824,0.364258-0.10498,0.742188-0.10498,1.134277
	C9.416016,9.136719,9.451172,9.515625,9.520996,9.878906z"/>
<path fill="#769FC0" d="M17.886719,8.437988c-0.004883-0.373047-0.012695-0.744141-0.021484-1.112793
	c-0.009766-0.369141-0.021484-0.721191-0.03418-1.057129c-0.014648-0.335938-0.03125-0.625-0.049805-0.868164
	c0.262695,0.047363,0.47168,0.069824,0.629883,0.069824c0.15918,0,0.368164-0.022461,0.630859-0.069824
	c-0.037109,0.243164-0.06543,0.476074-0.083984,0.700195c-0.020508,0.224121-0.026367,0.447754-0.026367,0.671875h0.026367
	c0.063477-0.148926,0.158203-0.310059,0.27832-0.48291c0.121094-0.172852,0.277344-0.335938,0.469727-0.490234
	c0.19043-0.153809,0.423828-0.281738,0.692383-0.384766c0.269531-0.103027,0.578125-0.154297,0.924805-0.154297
	c0.353516,0,0.704102,0.068359,1.050781,0.203125c0.34668,0.135254,0.649414,0.343262,0.916016,0.623047
	c0.268555,0.280273,0.479492,0.637207,0.645508,1.071289c0.164062,0.433594,0.246094,0.949707,0.246094,1.546875
	c0,0.59668-0.09082,1.114258-0.268555,1.553711c-0.176758,0.439453-0.408203,0.802734-0.69043,1.091797
	c-0.285156,0.289062-0.609375,0.501953-0.975586,0.636719c-0.363281,0.136719-0.727539,0.203125-1.092773,0.203125
	c-1.024414,0-1.759766-0.441406-2.196289-1.330078h-0.026367v0.883789c0,0.297852,0.001953,0.631836,0.005859,1.000977
	c0.005859,0.367188,0.012695,0.734375,0.021484,1.098633c0.009766,0.364258,0.021484,0.713867,0.035156,1.042969
	c0.015625,0.332031,0.029297,0.614258,0.048828,0.848633c-0.260742-0.046875-0.470703-0.070312-0.628906-0.070312
	s-0.369141,0.023438-0.630859,0.070312c0.019531-0.233398,0.035156-0.517578,0.048828-0.848633
	c0.015625-0.329102,0.025391-0.678711,0.035156-1.042969c0.009766-0.362305,0.017578-0.729492,0.021484-1.098633
	s0.005859-0.703125,0.005859-1.000977V9.474609C17.894531,9.15625,17.890625,8.810547,17.886719,8.437988z M22.771484,7.304199
	c-0.117188-0.364258-0.265625-0.65625-0.447266-0.875c-0.181641-0.219238-0.390625-0.371094-0.62207-0.455078
	c-0.234375-0.083984-0.463867-0.125977-0.686523-0.125977c-0.375,0-0.693359,0.078613-0.958984,0.237793
	c-0.267578,0.15918-0.483398,0.371094-0.652344,0.637207c-0.167969,0.266113-0.288086,0.578613-0.362305,0.937988
	c-0.074219,0.358887-0.110352,0.739746-0.110352,1.140625c0,1.941406,0.679688,2.912109,2.042969,2.912109
	c0.335938,0,0.626953-0.077148,0.875-0.231445c0.248047-0.152344,0.452148-0.367188,0.616211-0.643555
	c0.162109-0.274414,0.283203-0.59668,0.363281-0.96582c0.078125-0.369141,0.118164-0.763672,0.118164-1.183594
	C22.947266,8.128906,22.888672,7.666992,22.771484,7.304199z"/>
</svg>
