<?xml version="1.0" encoding="utf-8"?>
<!-- Generator: Adobe Illustrator 15.1.0, SVG Export Plug-In . SVG Version: 6.00 Build 0)  -->
<!DOCTYPE svg PUBLIC "-//W3C//DTD SVG 1.1//EN" "http://www.w3.org/Graphics/SVG/1.1/DTD/svg11.dtd">
<svg version="1.1" id="レイヤー_1" xmlns="http://www.w3.org/2000/svg" xmlns:xlink="http://www.w3.org/1999/xlink" x="0px"
	 y="0px" width="25px" height="16px" viewBox="0 0 25 16" enable-background="new 0 0 25 16" xml:space="preserve">
<path fill="#769FC0" d="M2.996,3.16c-0.243,0-0.497,0.002-0.764,0.007C1.967,3.171,1.701,3.181,1.435,3.194
	c-0.266,0.014-0.522,0.031-0.77,0.049C0.417,3.262,0.195,3.286,0,3.313c0.046-0.168,0.069-0.317,0.069-0.448
	c0-0.103-0.023-0.248-0.069-0.434C0.616,2.45,1.218,2.466,1.806,2.48c0.588,0.014,1.19,0.021,1.806,0.021
	c0.616,0,1.219-0.007,1.807-0.021s1.189-0.03,1.806-0.049c-0.047,0.187-0.07,0.336-0.07,0.448c0,0.122,0.023,0.266,0.07,0.434
	C7.029,3.285,6.807,3.262,6.56,3.243S6.056,3.208,5.79,3.194C5.522,3.181,5.257,3.171,4.991,3.167
	C4.725,3.162,4.471,3.16,4.228,3.16C4.2,4.121,4.186,5.087,4.186,6.058v2.408c0,0.616,0.012,1.224,0.035,1.82
	s0.049,1.185,0.077,1.764c-0.215-0.019-0.443-0.028-0.687-0.028c-0.242,0-0.471,0.01-0.686,0.028
	c0.028-0.579,0.054-1.167,0.077-1.764s0.035-1.204,0.035-1.82V6.058C3.038,5.087,3.023,4.121,2.996,3.16z"/>
<path fill="#769FC0" d="M8.485,7.128c0.2-0.443,0.464-0.803,0.791-1.078c0.326-0.275,0.693-0.476,1.099-0.602
	c0.406-0.126,0.81-0.189,1.211-0.189c0.411,0,0.816,0.063,1.219,0.189c0.4,0.126,0.766,0.327,1.092,0.602
	c0.326,0.275,0.59,0.635,0.791,1.078s0.301,0.982,0.301,1.617c0,0.635-0.1,1.174-0.301,1.616c-0.201,0.443-0.465,0.804-0.791,1.078
	c-0.326,0.275-0.69,0.47-1.092,0.582c-0.4,0.111-0.808,0.168-1.219,0.168c-0.401,0-0.805-0.057-1.211-0.168
	c-0.405-0.112-0.772-0.307-1.099-0.582c-0.327-0.274-0.591-0.635-0.791-1.078c-0.201-0.442-0.3-0.981-0.3-1.615
	C8.185,8.112,8.284,7.572,8.485,7.128z M9.521,9.879c0.07,0.364,0.188,0.688,0.356,0.973s0.393,0.512,0.673,0.68
	c0.279,0.168,0.625,0.252,1.035,0.252c0.411,0,0.757-0.084,1.036-0.252s0.504-0.395,0.672-0.68s0.287-0.608,0.357-0.973
	c0.07-0.363,0.104-0.742,0.104-1.134c0-0.392-0.033-0.77-0.104-1.134c-0.07-0.364-0.189-0.688-0.357-0.973
	c-0.168-0.285-0.393-0.511-0.672-0.679s-0.625-0.252-1.036-0.252c-0.41,0-0.756,0.084-1.035,0.252
	c-0.28,0.168-0.505,0.395-0.673,0.679C9.709,6.922,9.591,7.247,9.521,7.611c-0.07,0.364-0.105,0.742-0.105,1.134
	C9.416,9.137,9.451,9.516,9.521,9.879z"/>
<path fill="#769FC0" d="M17.886,8.438c-0.004-0.373-0.012-0.744-0.021-1.113c-0.009-0.369-0.021-0.721-0.034-1.057
	C17.816,5.932,17.8,5.643,17.781,5.4c0.263,0.047,0.472,0.07,0.63,0.07c0.159,0,0.369-0.023,0.631-0.07
	c-0.037,0.243-0.065,0.476-0.084,0.7c-0.02,0.224-0.027,0.448-0.027,0.672h0.027c0.064-0.149,0.158-0.31,0.279-0.483
	s0.277-0.336,0.469-0.49c0.191-0.154,0.424-0.282,0.693-0.385s0.578-0.154,0.924-0.154c0.354,0,0.705,0.068,1.051,0.203
	c0.346,0.135,0.65,0.343,0.916,0.623c0.268,0.28,0.48,0.637,0.646,1.071c0.163,0.434,0.245,0.95,0.245,1.547
	c0,0.597-0.09,1.114-0.268,1.554c-0.177,0.439-0.408,0.803-0.691,1.092c-0.285,0.289-0.609,0.502-0.975,0.637
	c-0.363,0.136-0.728,0.203-1.092,0.203c-1.025,0-1.76-0.442-2.197-1.33h-0.027v0.883c0,0.298,0.002,0.632,0.007,1.001
	c0.005,0.368,0.012,0.735,0.021,1.099c0.01,0.364,0.021,0.713,0.035,1.043c0.016,0.332,0.03,0.614,0.049,0.848
	c-0.261-0.047-0.471-0.07-0.629-0.07s-0.369,0.023-0.631,0.07c0.02-0.233,0.035-0.517,0.049-0.848
	c0.016-0.33,0.026-0.679,0.035-1.043c0.01-0.363,0.018-0.73,0.021-1.099c0.004-0.369,0.007-0.703,0.007-1.001V9.475
	C17.894,9.156,17.891,8.811,17.886,8.438z M22.772,7.304c-0.117-0.364-0.266-0.656-0.448-0.875c-0.182-0.219-0.39-0.371-0.622-0.455
	c-0.234-0.084-0.463-0.126-0.687-0.126c-0.374,0-0.693,0.079-0.959,0.238c-0.267,0.159-0.483,0.371-0.651,0.637
	s-0.289,0.579-0.363,0.938c-0.074,0.359-0.111,0.74-0.111,1.141c0,1.941,0.681,2.912,2.044,2.912c0.336,0,0.627-0.077,0.875-0.231
	c0.247-0.153,0.452-0.368,0.616-0.644c0.162-0.274,0.283-0.597,0.363-0.966c0.078-0.369,0.118-0.764,0.118-1.184
	C22.947,8.129,22.889,7.667,22.772,7.304z"/>
</svg>
