<?xml version="1.0" encoding="utf-8"?>
<!-- Generator: Adobe Illustrator 15.1.0, SVG Export Plug-In . SVG Version: 6.00 Build 0)  -->
<!DOCTYPE svg PUBLIC "-//W3C//DTD SVG 1.1//EN" "http://www.w3.org/Graphics/SVG/1.1/DTD/svg11.dtd">
<svg version="1.1" id="レイヤー_1" xmlns="http://www.w3.org/2000/svg" xmlns:xlink="http://www.w3.org/1999/xlink" x="0px"
	 y="0px" width="42px" height="16px" viewBox="0 0 42 16" enable-background="new 0 0 42 16" xml:space="preserve">
<g>
	<path fill="#769FC0" d="M3.108,10.971c-0.154-0.504-0.329-1.072-0.525-1.707s-0.401-1.3-0.616-1.995
		C1.752,6.574,1.547,5.91,1.352,5.28c-0.197-0.63-0.376-1.197-0.54-1.701S0.52,2.702,0.426,2.459
		c0.121,0.019,0.238,0.035,0.351,0.049c0.111,0.014,0.229,0.021,0.35,0.021s0.238-0.007,0.351-0.021
		c0.111-0.014,0.229-0.03,0.35-0.049c0.177,0.709,0.35,1.374,0.518,1.995s0.348,1.251,0.539,1.89C3.075,6.984,3.28,7.656,3.5,8.36
		c0.22,0.705,0.469,1.501,0.749,2.388h0.028c0.084-0.253,0.2-0.6,0.35-1.044c0.149-0.442,0.312-0.933,0.49-1.47
		c0.177-0.537,0.364-1.094,0.56-1.673C5.873,5.983,6.055,5.43,6.223,4.902C6.392,4.375,6.54,3.895,6.671,3.46
		s0.225-0.768,0.28-1.001c0.187,0.047,0.341,0.07,0.462,0.07s0.275-0.023,0.462-0.07C7.94,2.711,8.041,3.057,8.176,3.495
		c0.136,0.439,0.287,0.927,0.455,1.463S8.979,6.053,9.17,6.631c0.191,0.578,0.376,1.134,0.553,1.666
		c0.178,0.532,0.339,1.014,0.483,1.441c0.145,0.431,0.259,0.767,0.343,1.01h0.028c0.065-0.206,0.166-0.525,0.301-0.96
		c0.136-0.435,0.289-0.925,0.462-1.47c0.173-0.546,0.351-1.12,0.532-1.722c0.181-0.602,0.354-1.176,0.518-1.722
		s0.309-1.034,0.435-1.463c0.126-0.429,0.212-0.747,0.259-0.952c0.084,0.019,0.166,0.035,0.245,0.049
		c0.079,0.014,0.161,0.021,0.245,0.021s0.165-0.007,0.245-0.021c0.079-0.014,0.161-0.03,0.245-0.049
		c-0.094,0.215-0.229,0.569-0.406,1.064c-0.178,0.495-0.376,1.059-0.595,1.694c-0.22,0.635-0.448,1.307-0.687,2.016
		c-0.239,0.709-0.467,1.384-0.686,2.022c-0.22,0.64-0.416,1.214-0.588,1.724c-0.173,0.508-0.302,0.875-0.386,1.099
		c-0.149-0.019-0.308-0.028-0.476-0.028c-0.168,0-0.327,0.01-0.477,0.028C9.345,10.779,8.93,9.477,8.52,8.165
		C8.109,6.853,7.666,5.498,7.19,4.098H7.161C7.086,4.312,6.986,4.599,6.86,4.958S6.594,5.721,6.44,6.169
		C6.286,6.617,6.12,7.098,5.943,7.611C5.766,8.125,5.588,8.643,5.411,9.166c-0.178,0.521-0.35,1.035-0.518,1.539
		s-0.322,0.961-0.463,1.372c-0.149-0.019-0.312-0.028-0.489-0.028c-0.178,0-0.341,0.01-0.49,0.028
		C3.376,11.844,3.262,11.475,3.108,10.971z"/>
	<path fill="#769FC0" d="M15.092,7.156c0.2-0.443,0.464-0.803,0.791-1.078c0.326-0.275,0.693-0.476,1.099-0.602
		c0.406-0.126,0.81-0.189,1.211-0.189c0.411,0,0.817,0.063,1.219,0.189c0.4,0.126,0.765,0.327,1.092,0.602
		c0.326,0.275,0.59,0.635,0.791,1.078c0.2,0.443,0.301,0.982,0.301,1.618c0,0.635-0.101,1.174-0.301,1.617
		c-0.201,0.442-0.465,0.803-0.791,1.078c-0.327,0.274-0.691,0.469-1.092,0.579c-0.401,0.112-0.808,0.168-1.219,0.168
		c-0.401,0-0.805-0.056-1.211-0.168c-0.405-0.11-0.772-0.305-1.099-0.579c-0.327-0.275-0.591-0.636-0.791-1.078
		c-0.201-0.443-0.301-0.982-0.301-1.617C14.791,8.138,14.891,7.6,15.092,7.156z M16.128,9.906c0.07,0.365,0.188,0.689,0.356,0.975
		c0.168,0.284,0.393,0.51,0.673,0.678c0.279,0.17,0.625,0.254,1.035,0.254c0.411,0,0.757-0.084,1.036-0.254
		c0.28-0.168,0.504-0.394,0.672-0.678c0.168-0.285,0.287-0.609,0.357-0.975c0.07-0.364,0.104-0.74,0.104-1.133
		s-0.034-0.771-0.104-1.134c-0.07-0.364-0.189-0.688-0.357-0.973s-0.392-0.511-0.672-0.679c-0.279-0.168-0.625-0.252-1.036-0.252
		c-0.41,0-0.756,0.084-1.035,0.252c-0.28,0.168-0.505,0.395-0.673,0.679s-0.286,0.609-0.356,0.973
		c-0.07,0.364-0.105,0.742-0.105,1.134C16.022,9.166,16.058,9.543,16.128,9.906z"/>
	<path fill="#769FC0" d="M27.175,6.421c-0.137-0.047-0.272-0.07-0.413-0.07c-0.224,0-0.425,0.052-0.603,0.154
		c-0.179,0.102-0.326,0.24-0.447,0.413c-0.123,0.173-0.215,0.378-0.28,0.616c-0.064,0.238-0.099,0.493-0.099,0.763v1.541
		c0,0.625,0.002,1.104,0.008,1.436c0.005,0.33,0.021,0.6,0.05,0.805c-0.188-0.02-0.373-0.028-0.562-0.028
		c-0.205,0-0.399,0.011-0.588,0.028c0.026-0.316,0.045-0.749,0.049-1.295c0.004-0.547,0.008-1.217,0.008-2.01V8.325
		c0-0.364-0.004-0.784-0.008-1.26s-0.021-1.022-0.049-1.638c0.104,0.019,0.2,0.035,0.295,0.049c0.092,0.014,0.188,0.021,0.293,0.021
		c0.084,0,0.172-0.007,0.267-0.021c0.094-0.014,0.19-0.03,0.295-0.049c-0.037,0.336-0.06,0.602-0.062,0.798
		c-0.006,0.196-0.008,0.383-0.008,0.56l0.027,0.014c0.551-1.008,1.168-1.512,1.848-1.512c0.084,0,0.156,0.005,0.219,0.014
		c0.061,0.009,0.137,0.033,0.23,0.07c-0.047,0.112-0.074,0.283-0.084,0.511c-0.011,0.229-0.015,0.437-0.015,0.623l-0.101,0.07
		C27.402,6.52,27.311,6.468,27.175,6.421z"/>
	<path fill="#769FC0" d="M30.199,4.517c-0.006-0.373-0.012-0.742-0.021-1.106c-0.01-0.364-0.021-0.711-0.035-1.043
		c-0.014-0.331-0.029-0.613-0.049-0.847c0.262,0.047,0.471,0.07,0.631,0.07c0.158,0,0.367-0.023,0.629-0.07
		c-0.018,0.233-0.035,0.516-0.049,0.847C31.291,2.7,31.279,3.047,31.27,3.411c-0.01,0.364-0.016,0.733-0.021,1.106
		c-0.004,0.374-0.006,0.719-0.006,1.036v2.548c0,0.178,0.055,0.266,0.168,0.266c0.073,0,0.155-0.032,0.243-0.098
		c0.091-0.065,0.189-0.14,0.302-0.224c0.084-0.065,0.228-0.191,0.428-0.378c0.201-0.187,0.425-0.404,0.673-0.651
		s0.502-0.511,0.764-0.791c0.26-0.28,0.498-0.546,0.713-0.798c0.188,0.047,0.365,0.07,0.533,0.07c0.102,0,0.205-0.007,0.307-0.021
		c0.104-0.014,0.234-0.03,0.393-0.049c-0.588,0.476-1.149,0.945-1.688,1.407s-1.047,0.931-1.533,1.407
		c0.533,0.644,1.08,1.288,1.646,1.933c0.563,0.645,1.141,1.278,1.729,1.903c-0.158-0.019-0.301-0.028-0.428-0.028
		c-0.125,0-0.25,0-0.371,0c-0.102,0-0.215,0-0.336,0s-0.246,0.01-0.377,0.028c-0.205-0.233-0.439-0.507-0.701-0.819
		c-0.26-0.312-0.52-0.623-0.775-0.931c-0.258-0.308-0.502-0.597-0.736-0.868c-0.231-0.27-0.434-0.494-0.602-0.672
		c-0.027-0.037-0.061-0.07-0.098-0.098c-0.037-0.028-0.074-0.043-0.113-0.043c-0.092,0-0.139,0.057-0.139,0.168v0.84
		c0,0.421,0.006,0.83,0.021,1.227c0.014,0.396,0.043,0.795,0.09,1.196c-0.215-0.019-0.424-0.028-0.629-0.028
		c-0.207,0-0.416,0.01-0.631,0.028c0.02-0.214,0.034-0.485,0.049-0.812c0.014-0.328,0.024-0.672,0.035-1.037
		c0.01-0.363,0.016-0.732,0.021-1.105c0.004-0.373,0.006-0.718,0.006-1.036V5.553C30.205,5.236,30.203,4.891,30.199,4.517z"/>
	<path fill="#769FC0" d="M38.432,11.084c0.098,0.111,0.215,0.217,0.35,0.314c0.135,0.097,0.289,0.18,0.463,0.244
		c0.172,0.065,0.355,0.099,0.553,0.099c0.176,0,0.348-0.028,0.51-0.085c0.164-0.055,0.31-0.135,0.437-0.236
		c0.125-0.104,0.225-0.234,0.301-0.393c0.074-0.158,0.11-0.342,0.11-0.547c0-0.289-0.082-0.51-0.243-0.664
		c-0.164-0.154-0.367-0.28-0.609-0.379c-0.243-0.099-0.51-0.185-0.799-0.258C39.212,9.104,38.947,9,38.705,8.863
		c-0.244-0.135-0.447-0.314-0.609-0.538c-0.164-0.224-0.246-0.532-0.246-0.924c0-0.308,0.053-0.59,0.154-0.847
		c0.104-0.256,0.252-0.478,0.449-0.665c0.195-0.187,0.438-0.333,0.727-0.441c0.289-0.107,0.621-0.161,0.994-0.161
		c0.346,0,0.637,0.047,0.875,0.14c0.238,0.093,0.465,0.177,0.68,0.252c-0.074,0.14-0.145,0.313-0.211,0.518
		c-0.063,0.206-0.106,0.364-0.125,0.476h-0.168c-0.076-0.224-0.221-0.425-0.434-0.602c-0.215-0.177-0.482-0.266-0.799-0.266
		c-0.141,0-0.279,0.023-0.42,0.07s-0.266,0.117-0.379,0.21c-0.111,0.093-0.205,0.215-0.279,0.364
		c-0.074,0.149-0.111,0.327-0.111,0.532c0,0.299,0.082,0.53,0.244,0.693c0.164,0.164,0.367,0.292,0.609,0.385
		c0.242,0.094,0.508,0.175,0.799,0.245c0.289,0.07,0.555,0.168,0.797,0.293c0.242,0.127,0.445,0.301,0.609,0.524
		c0.162,0.226,0.244,0.532,0.244,0.924c0,0.271-0.06,0.537-0.174,0.8c-0.117,0.262-0.285,0.495-0.504,0.707
		c-0.222,0.209-0.484,0.372-0.791,0.489c-0.31,0.114-0.658,0.174-1.052,0.174c-0.431,0-0.789-0.041-1.078-0.125
		s-0.53-0.183-0.729-0.295c0.058-0.121,0.115-0.287,0.177-0.496c0.062-0.211,0.092-0.385,0.092-0.524h0.168
		C38.262,10.869,38.333,10.971,38.432,11.084z"/>
</g>
</svg>
