<?xml version="1.0" encoding="utf-8"?>
<!-- Generator: Adobe Illustrator 15.1.0, SVG Export Plug-In . SVG Version: 6.00 Build 0)  -->
<!DOCTYPE svg PUBLIC "-//W3C//DTD SVG 1.1//EN" "http://www.w3.org/Graphics/SVG/1.1/DTD/svg11.dtd">
<svg version="1.1" id="レイヤー_1" xmlns="http://www.w3.org/2000/svg" xmlns:xlink="http://www.w3.org/1999/xlink" x="0px"
	 y="0px" width="36.831px" height="63.889px" viewBox="0 0 36.831 63.889" enable-background="new 0 0 36.831 63.889"
	 xml:space="preserve">
<g>
	<path fill="#45474C" d="M19.936,17.751c0.417-0.017,0.753-0.032,0.976-0.097c0.129-0.031,0.625-0.224,0.736-0.224
		c0.24,0,0.93,0.24,0.93,0.464c0,0.176-0.064,0.176-0.641,0.192c-0.145,0-1.281,0.016-1.441,0.016H20.4l-2.209,0.048
		c-0.225,0-1.265,0.064-1.473,0.064c-0.16,0-0.305-0.064-0.385-0.112c-0.096,0.353-0.512,1.969-0.592,2.289
		c0.4,0.032,0.896,0.017,1.265,0.017l3.953-0.08c0.305,0,0.352-0.032,0.416-0.064c0.191-0.08,0.256-0.112,0.336-0.112
		c0.225,0,0.625,0.32,0.625,0.561c0,0.08-0.256,0.353-0.289,0.416c-0.016,0.096-0.031,0.16-0.111,0.864
		c-0.033,0.305-0.08,0.576-0.113,0.801l0.418-0.017c0.512-0.016,0.992-0.048,1.439-0.111c0.16-0.032,0.801-0.288,0.945-0.288
		c0.336,0,0.977,0.304,0.977,0.56c0,0.112-0.08,0.16-0.545,0.16c-0.561,0.017-1.441,0-1.857,0.017l-1.424,0.031
		c-0.289,1.841-0.816,3.346-1.281,4.098c-0.655,1.072-1.535,1.201-1.68,1.201c-0.256,0-1.2-0.913-1.2-0.944
		c0-0.032,0.032-0.097,0.096-0.097c0.048,0,0.801,0.128,0.961,0.128c0.176,0,0.72,0,1.12-0.56c0.096-0.128,0.768-1.057,1.279-3.81
		l-7.554,0.16c-0.288,0-1.537,0.128-1.793,0.128c-0.353,0-0.656-0.353-0.656-0.433c0-0.063,0.048-0.112,0.096-0.112
		c0.032,0,0.433,0.064,0.48,0.064c0.353,0.016,0.929,0,1.297,0l8.179-0.16c0.111-0.688,0.16-1.057,0.256-2.145l-3.761,0.08
		c-0.24,0-1.265,0.063-1.473,0.063c-0.225,0-0.368-0.096-0.465-0.16c-0.224,0.736-0.288,0.944-0.624,0.944
		c-0.096,0-0.352-0.048-0.352-0.304c0-0.112,0.479-1.312,0.56-1.568c0.545-1.665,0.784-3.298,0.784-3.474
		c0-0.064-0.096-0.32-0.096-0.384c0-0.049,0.048-0.112,0.145-0.112c0.128,0,0.736,0.224,0.736,0.544
		c0,0.096-0.353,1.265-0.417,1.505c0.272,0.016,0.865,0,1.169,0L19.936,17.751z M23.136,14.693c0.385,0,0.434-0.016,0.594-0.064
		c0.047-0.016,0.303-0.096,0.367-0.096c0.385,0,0.961,0.4,0.961,0.656c0,0.145-0.031,0.16-0.496,0.32
		c-0.271,0.096-1.473,0.929-1.537,0.929c-0.047,0-0.08-0.049-0.08-0.097c0-0.031,0-0.048,0.08-0.16
		c0.289-0.416,0.4-0.592,0.705-1.152l-8.836,0.192c-0.24,0-1.265,0.064-1.488,0.064c-0.112,0-0.24-0.049-0.336-0.097
		c-0.017,0.353-0.08,1.729-0.769,1.729c-0.208,0-0.416-0.111-0.416-0.319c0-0.112,0.144-0.288,0.4-0.641
		c0.111-0.176,0.448-0.801,0.56-1.36c0.017-0.08,0.032-0.145,0.112-0.145c0.112,0,0.112,0.032,0.112,0.416
		c0.416,0.017,0.784,0.017,1.2,0L23.136,14.693z"/>
	<path fill="#45474C" d="M22.401,45.434c0.848-0.016,1.184-0.048,1.648-0.16c0.111-0.032,0.656-0.224,0.736-0.224
		c0.367,0,0.977,0.288,0.977,0.528c0,0.16-0.529,0.16-0.721,0.16H23.36l-9.811,0.208c-0.289,0-1.553,0.128-1.81,0.128
		c-0.336,0-0.64-0.32-0.64-0.4c0-0.064,0.032-0.112,0.096-0.112c0.032,0,0.561,0.064,0.641,0.064c0.368,0.016,0.848,0,1.136,0
		L22.401,45.434z M16.591,46.843c0,0.512-4.482,2.593-4.898,2.593c-0.032,0-0.08-0.032-0.08-0.096c0-0.048,0.433-0.304,0.496-0.336
		c1.104-0.625,3.298-1.857,3.569-2.321c0.177-0.288,0.192-0.304,0.257-0.304C16.03,46.379,16.591,46.57,16.591,46.843z
		 M15.15,44.169v0.177c0,0.096,0,0.607-0.417,0.607c-0.288,0-0.319-0.319-0.319-0.479c0-0.08,0.016-0.225,0.016-0.305
		c0.064-0.768,0.048-1.664,0.048-2.673c0-1.681-0.048-2.978-0.063-3.089c-0.017-0.064-0.097-0.385-0.097-0.448
		c0-0.064,0.048-0.128,0.128-0.128c0.097,0,0.368,0.096,0.593,0.288c0.752,0.016,0.784,0.016,1.376,0l1.505-0.032l0.112-1.393
		l-3.777,0.08c-0.257,0-1.521,0.112-1.809,0.112c-0.32,0-0.641-0.32-0.641-0.4c0-0.064,0.048-0.112,0.096-0.112
		c0.097,0,0.545,0.064,0.641,0.064c0.416,0.031,0.992,0.016,1.137,0.016l4.369-0.096l0.064-0.736
		c0.016-0.145,0.032-0.433,0.032-0.528c0-0.16-0.049-0.32-0.08-0.433c-0.017-0.032-0.097-0.208-0.097-0.256
		c0-0.064,0.064-0.128,0.16-0.128c0.145,0,0.784,0.192,0.784,0.592c0,0.16-0.176,0.961-0.191,1.137l-0.032,0.336l3.104-0.063
		c0.816-0.017,1.217-0.048,1.648-0.16c0.113-0.032,0.625-0.225,0.752-0.225c0.305,0,0.961,0.272,0.961,0.528
		c0,0.16-0.512,0.16-0.721,0.16h-1.68l-4.081,0.096l-0.112,1.409l2.432-0.064c0.289,0,0.354-0.016,0.449-0.048
		c0.064-0.016,0.352-0.176,0.416-0.176c0.256,0,0.607,0.271,0.607,0.48c0,0.048-0.16,0.319-0.176,0.368
		c-0.08,0.159-0.08,2.257-0.08,2.608c0,0.416,0.064,2.689,0.064,2.961c0,0.417-0.305,0.48-0.416,0.48
		c-0.352,0-0.336-0.384-0.32-0.656L15.15,44.169z M19.504,39.896c0.32,0,0.72-0.048,0.944-0.08c0.096-0.016,0.496-0.08,0.592-0.08
		c0.127,0,0.48,0.128,0.48,0.288s-0.064,0.145-0.592,0.16l-5.843,0.128c0,0.32,0.016,1.377,0.016,1.601l4.386-0.08
		c0.353,0,0.673-0.048,0.977-0.08c0.08-0.016,0.48-0.08,0.561-0.08c0.127,0,0.48,0.128,0.48,0.305c0,0.144-0.064,0.144-0.594,0.16
		l-5.793,0.111c0,0.257,0.016,1.361,0.032,1.585l4.354-0.08c0.08,0,0.784-0.032,0.911-0.048c0.096-0.016,0.594-0.08,0.689-0.08
		c0.127,0,0.256,0.048,0.447,0.128c0.033-0.592,0.049-0.816,0.049-1.665c0-0.592-0.033-3.201-0.033-3.745l-4.545,0.096
		c-0.224,0-1.248,0.064-1.456,0.064c-0.048,0-0.225,0-0.433-0.112c-0.048,0.721-0.048,0.801-0.048,1.585L19.504,39.896z
		 M24.753,48.987c0,0.24-0.191,0.353-0.336,0.353c-0.207,0-0.271-0.048-0.801-0.513c-0.432-0.368-1.535-1.344-3.536-2.257
		c-0.048-0.031-0.112-0.063-0.112-0.128c0-0.048,0.017-0.096,0.097-0.096C20.511,46.347,24.753,47.915,24.753,48.987z"/>
</g>
</svg>
