<?xml version="1.0" encoding="utf-8"?>
<!-- Generator: Adobe Illustrator 15.1.0, SVG Export Plug-In . SVG Version: 6.00 Build 0)  -->
<!DOCTYPE svg PUBLIC "-//W3C//DTD SVG 1.1//EN" "http://www.w3.org/Graphics/SVG/1.1/DTD/svg11.dtd">
<svg version="1.1" id="レイヤー_1" xmlns="http://www.w3.org/2000/svg" xmlns:xlink="http://www.w3.org/1999/xlink" x="0px"
	 y="0px" width="30px" height="30px" viewBox="0 0 30 30" enable-background="new 0 0 30 30" xml:space="preserve">
<path fill="#686B72" d="M14.793,5.806c-5.42,0-9.812,4.393-9.812,9.813c0,4.156,2.587,7.707,6.236,9.137
	c-0.087-0.775-0.163-1.967,0.034-2.814c0.178-0.766,1.15-4.877,1.15-4.877s-0.294-0.589-0.294-1.457
	c0-1.365,0.791-2.383,1.775-2.383c0.837,0,1.242,0.627,1.242,1.381c0,0.842-0.537,2.102-0.812,3.268
	c-0.231,0.977,0.489,1.773,1.452,1.773c1.744,0,3.085-1.84,3.085-4.494c0-2.348-1.688-3.99-4.098-3.99
	c-2.793,0-4.432,2.094-4.432,4.257c0,0.844,0.324,1.748,0.73,2.239c0.079,0.098,0.091,0.184,0.067,0.281
	c-0.074,0.311-0.24,0.977-0.272,1.113c-0.043,0.18-0.143,0.219-0.327,0.131c-1.226-0.57-1.992-2.361-1.992-3.801
	c0-3.096,2.249-5.938,6.483-5.938c3.404,0,6.049,2.426,6.049,5.667c0,3.382-2.132,6.104-5.092,6.104
	c-0.994,0-1.929-0.516-2.249-1.127c0,0-0.491,1.875-0.611,2.334c-0.222,0.852-0.819,1.92-1.219,2.571
	c0.918,0.285,1.894,0.438,2.904,0.438c5.42,0,9.812-4.394,9.812-9.812C24.604,10.199,20.212,5.806,14.793,5.806L14.793,5.806z"/>
</svg>
